<svg width="695" height="990" xmlns="http://www.w3.org/2000/svg" version="1.1">
 <g>
  <title>Layer 1</title>
  <rect fill="#ffffff" x="0" y="0" width="695" height="990" id="svg_8"/>
  <g id="svg_181">
   <g id="svg_173">
    <rect rx="10" id="svg_9" height="235" width="675" y="10" x="10" fill="#f6f6f6"/>
    <g id="svg_6">
     <rect rx="10" id="svg_11" height="40" width="655" y="198" x="20" fill="#ffffff"/>
     <rect rx="10" stroke="null" id="svg_15" height="30" width="30" y="203" x="28" stroke-width="0" fill="#779953"/>
     <rect rx="10" stroke="null" id="svg_14" height="30" width="120" y="203" x="61.5" stroke-width="0" fill="#f6f6f6"/>
     <text xml:space="preserve" text-anchor="start" font-family="'Roboto Mono'" font-size="14" stroke-width="0" id="svg_17" y="223" x="36" fill="#f6f6f6">М.</text>
    </g>
    <g id="svg_5">
     <rect rx="10" id="svg_14" height="40" width="655" y="153" x="20" fill="#ffffff"/>
     <rect rx="10" stroke="null" id="svg_20" height="30" width="30" y="158" x="188" stroke-width="0" fill="#779953"/>
     <rect rx="10" stroke="null" id="svg_21" height="30" width="120" y="158" x="222" stroke-width="0" fill="#f6f6f6"/>
     <text xml:space="preserve" text-anchor="start" font-family="'Roboto Mono'" font-size="14" stroke-width="0" id="svg_22" y="178" x="197" fill="#f6f6f6">Ч.</text>
     <rect rx="10" stroke="null" id="svg_25" height="30" width="30" y="158" x="27.5" stroke-width="0" fill="#779953"/>
     <rect rx="10" stroke="null" id="svg_26" height="30" width="120" y="158" x="61.5" stroke-width="0" fill="#f6f6f6"/>
     <text xml:space="preserve" text-anchor="start" font-family="'Roboto Mono'" font-size="14" stroke-width="0" id="svg_28" y="178" x="36.5" fill="#f6f6f6">И.</text>
    </g>
    <g id="svg_4">
     <rect rx="10" id="svg_13" height="40" width="655" y="109" x="20" fill="#ffffff"/>
     <rect rx="10" stroke="null" id="svg_30" height="30" width="480" y="114" x="187.5" stroke-width="0" fill="#f6f6f6"/>
     <rect rx="10" stroke="null" id="svg_33" height="30" width="30" y="114" x="27.5" stroke-width="0" fill="#779953"/>
     <rect rx="10" stroke="null" id="svg_34" height="30" width="120" y="114" x="61.5" stroke-width="0" fill="#f6f6f6"/>
     <text xml:space="preserve" text-anchor="start" font-family="'Roboto Mono'" font-size="14" stroke-width="0" id="svg_36" y="134" x="36" fill="#f6f6f6">Д.</text>
    </g>
    <g id="svg_172">
     <rect rx="10" id="svg_12" height="40" width="655" y="65" x="20" fill="#ffffff"/>
     <rect rx="10" stroke="null" id="svg_39" height="30" width="120" y="70" x="61.5" stroke-width="0" fill="#f6f6f6"/>
     <rect rx="10" stroke="null" id="svg_2" height="30" width="30" y="70" x="27.5" stroke-width="0" fill="#779953"/>
     <text xml:space="preserve" text-anchor="start" font-family="'Roboto Mono'" font-size="14" stroke-width="0" id="svg_40" y="90" x="36.5" fill="#f6f6f6">В.</text>
     <rect rx="10" stroke="null" id="svg_145" height="30" width="120" y="70" x="222" stroke-width="0" fill="#f6f6f6"/>
     <rect rx="10" stroke="null" id="svg_146" height="30" width="30" y="70" x="188" stroke-width="0" fill="#779953"/>
     <text xml:space="preserve" text-anchor="start" font-family="'Roboto Mono'" font-size="14" stroke-width="0" id="svg_147" y="90" x="197" fill="#f6f6f6">П.</text>
    </g>
   </g>
   <text font-style="normal" font-weight="normal" xml:space="preserve" text-anchor="start" font-family="'Roboto Mono'" font-size="24" stroke-width="0" id="svg_10" y="50" x="275.98438" fill="#323232">${name1_1}</text>
   <text xml:space="preserve" text-anchor="start" font-family="'Roboto Mono'" font-size="14" stroke-width="0" id="svg_18" y="223" x="67" fill="#323232">${name1_8}</text>
   <text xml:space="preserve" text-anchor="start" font-family="'Roboto Mono'" font-size="14" stroke-width="0" id="svg_23" y="178" x="227.5" fill="#323232">${name1_7}</text>
   <text xml:space="preserve" text-anchor="start" font-family="'Roboto Mono'" font-size="14" stroke-width="0" id="svg_27" y="178" x="67" fill="#323232">${name1_6}</text>
   <text xml:space="preserve" text-anchor="start" font-family="'Roboto Mono'" font-size="14" id="svg_31" y="134" x="195" stroke-width="0" stroke="null" fill="#323232">${name1_5}</text>
   <text xml:space="preserve" text-anchor="start" font-family="'Roboto Mono'" font-size="14" stroke-width="0" id="svg_35" y="134" x="67" fill="#323232">${name1_4}</text>
   <text xml:space="preserve" text-anchor="start" font-family="'Roboto Mono'" font-size="14" stroke-width="0" id="svg_41" y="90" x="67" fill="#323232">${name1_2}</text>
   <text xml:space="preserve" text-anchor="start" font-family="'Roboto Mono'" font-size="14" stroke-width="0" id="svg_148" y="90" x="227.5" fill="#323232">${name1_3}</text>
  </g>
  <g id="svg_182">
   <g id="svg_178">
    <rect rx="10" id="svg_44" height="235" width="675" y="256" x="10" fill="#f6f6f6"/>
    <g id="svg_90">
     <rect rx="10" id="svg_55" height="40" width="655" y="354" x="20" fill="#ffffff"/>
     <rect rx="10" stroke="null" id="svg_88" height="30" width="480" y="359" x="187.5" stroke-width="0" fill="#f6f6f6"/>
     <rect rx="10" stroke="null" id="svg_91" height="30" width="30" y="359" x="28" stroke-width="0" fill="#779953"/>
     <rect rx="10" stroke="null" id="svg_92" height="30" width="120" y="359" x="62" stroke-width="0" fill="#f6f6f6"/>
     <text xml:space="preserve" text-anchor="start" font-family="'Roboto Mono'" font-size="14" stroke-width="0" id="svg_94" y="379" x="36.5" fill="#f6f6f6">Д.</text>
    </g>
    <g id="svg_19">
     <rect rx="10" id="svg_59" height="40" width="655" y="398" x="20" fill="#ffffff"/>
     <rect rx="10" stroke="null" id="svg_78" height="30" width="30" y="403" x="188" stroke-width="0" fill="#779953"/>
     <rect rx="10" stroke="null" id="svg_79" height="30" width="120" y="403" x="222" stroke-width="0" fill="#f6f6f6"/>
     <text xml:space="preserve" text-anchor="start" font-family="'Roboto Mono'" font-size="14" stroke-width="0" id="svg_80" y="423" x="197" fill="#f6f6f6">Ч.</text>
     <rect rx="10" stroke="null" id="svg_83" height="30" width="30" y="403" x="27.5" stroke-width="0" fill="#779953"/>
     <rect rx="10" stroke="null" id="svg_84" height="30" width="120" y="403" x="61.5" stroke-width="0" fill="#f6f6f6"/>
     <text xml:space="preserve" text-anchor="start" font-family="'Roboto Mono'" font-size="14" stroke-width="0" id="svg_86" y="423" x="36.5" fill="#f6f6f6">И.</text>
    </g>
    <g id="svg_24">
     <rect rx="10" id="svg_51" height="40" width="655" y="443" x="20" fill="#ffffff"/>
     <rect rx="10" stroke="null" id="svg_62" height="30" width="30" y="448" x="28" stroke-width="0" fill="#779953"/>
     <rect rx="10" stroke="null" id="svg_63" height="30" width="120" y="448" x="61.5" stroke-width="0" fill="#f6f6f6"/>
     <text xml:space="preserve" text-anchor="start" font-family="'Roboto Mono'" font-size="14" stroke-width="0" id="svg_68" y="468" x="36" fill="#f6f6f6">М.</text>
    </g>
    <g id="svg_176">
     <rect rx="10" id="svg_54" height="40" width="655" y="310" x="20" fill="#ffffff"/>
     <rect rx="10" stroke="null" id="svg_96" height="30" width="30" y="315" x="27.5" stroke-width="0" fill="#779953"/>
     <rect rx="10" stroke="null" id="svg_97" height="30" width="120" y="315" x="61.5" stroke-width="0" fill="#f6f6f6"/>
     <text xml:space="preserve" text-anchor="start" font-family="'Roboto Mono'" font-size="14" stroke-width="0" id="svg_98" y="335" x="36.5" fill="#f6f6f6">В.</text>
     <rect rx="10" stroke="null" id="svg_156" height="30" width="120" y="315" x="222" stroke-width="0" fill="#f6f6f6"/>
     <rect rx="10" stroke="null" id="svg_157" height="30" width="30" y="315" x="188" stroke-width="0" fill="#779953"/>
     <text xml:space="preserve" text-anchor="start" font-family="'Roboto Mono'" font-size="14" stroke-width="0" id="svg_158" y="335" x="197" fill="#f6f6f6">П.</text>
    </g>
   </g>
   <text font-style="normal" font-weight="normal" xml:space="preserve" text-anchor="start" font-family="'Roboto Mono'" font-size="24" stroke-width="0" id="svg_45" y="295" x="275.98438" fill="#323232">${name2_1}</text>
   <text style="cursor: move;" xml:space="preserve" text-anchor="start" font-family="'Roboto Mono'" font-size="14" id="svg_89" y="379" x="195" stroke-width="0" stroke="null" fill="#323232">${name2_5}</text>
   <text style="cursor: move;" xml:space="preserve" text-anchor="start" font-family="'Roboto Mono'" font-size="14" stroke-width="0" id="svg_93" y="379" x="67.5" fill="#323232">${name2_4}</text>
   <text style="cursor: move;" xml:space="preserve" text-anchor="start" font-family="'Roboto Mono'" font-size="14" stroke-width="0" id="svg_81" y="423" x="227.5" fill="#323232">${name2_7}</text>
   <text style="cursor: move;" xml:space="preserve" text-anchor="start" font-family="'Roboto Mono'" font-size="14" stroke-width="0" id="svg_85" y="423" x="67" fill="#323232">${name2_6}</text>
   <text style="cursor: move;" xml:space="preserve" text-anchor="start" font-family="'Roboto Mono'" font-size="14" stroke-width="0" id="svg_71" y="468" x="67" fill="#323232">${name2_8}</text>
   <text xml:space="preserve" text-anchor="start" font-family="'Roboto Mono'" font-size="14" stroke-width="0" id="svg_159" y="335" x="227.5" fill="#323232">${name1_3}</text>
   <text xml:space="preserve" text-anchor="start" font-family="'Roboto Mono'" font-size="14" stroke-width="0" id="svg_99" y="335" x="67" fill="#323232">${name2_2}</text>
  </g>
  <g id="svg_184">
   <g id="svg_179">
    <rect rx="10" id="svg_102" height="235" width="675" y="500" x="10" fill="#f6f6f6"/>
    <g id="svg_170">
     <rect rx="10" id="svg_105" height="40" width="655" y="555" x="20" fill="#ffffff"/>
     <g id="svg_161">
      <rect rx="10" stroke="null" id="svg_131" height="30" width="30" y="560" x="27.5" stroke-width="0" fill="#779953"/>
      <rect rx="10" stroke="null" id="svg_132" height="30" width="120" y="560" x="61.5" stroke-width="0" fill="#f6f6f6"/>
      <text xml:space="preserve" text-anchor="start" font-family="'Roboto Mono'" font-size="14" stroke-width="0" id="svg_133" y="580" x="36.5" fill="#f6f6f6">В.</text>
     </g>
     <rect rx="10" stroke="null" id="svg_3" height="30" width="120" y="560" x="222" stroke-width="0" fill="#f6f6f6"/>
     <rect rx="10" stroke="null" id="svg_95" height="30" width="30" y="560" x="188" stroke-width="0" fill="#779953"/>
     <text xml:space="preserve" text-anchor="start" font-family="'Roboto Mono'" font-size="14" stroke-width="0" id="svg_112" y="580" x="197" fill="#f6f6f6">П.</text>
    </g>
    <g id="svg_32">
     <rect rx="10" id="svg_106" height="40" width="655" y="599" x="19" fill="#ffffff"/>
     <rect rx="10" stroke="null" id="svg_123" height="30" width="480" y="604" x="186.5" stroke-width="0" fill="#f6f6f6"/>
     <rect rx="10" stroke="null" id="svg_126" height="30" width="30" y="604" x="26.5" stroke-width="0" fill="#779953"/>
     <rect rx="10" stroke="null" id="svg_127" height="30" width="120" y="604" x="60.5" stroke-width="0" fill="#f6f6f6"/>
     <text xml:space="preserve" text-anchor="start" font-family="'Roboto Mono'" font-size="14" stroke-width="0" id="svg_129" y="624" x="35" fill="#f6f6f6">Д.</text>
    </g>
    <g id="svg_37">
     <rect rx="10" id="svg_107" height="40" width="655" y="643" x="20" fill="#ffffff"/>
     <rect rx="10" stroke="null" id="svg_113" height="30" width="30" y="648" x="188" stroke-width="0" fill="#779953"/>
     <rect rx="10" stroke="null" id="svg_114" height="30" width="120" y="648" x="222" stroke-width="0" fill="#f6f6f6"/>
     <text xml:space="preserve" text-anchor="start" font-family="'Roboto Mono'" font-size="14" stroke-width="0" id="svg_115" y="668" x="197" fill="#f6f6f6">Ч.</text>
     <rect rx="10" stroke="null" id="svg_118" height="30" width="30" y="648" x="27.5" stroke-width="0" fill="#779953"/>
     <rect rx="10" stroke="null" id="svg_119" height="30" width="120" y="648" x="61.5" stroke-width="0" fill="#f6f6f6"/>
     <text xml:space="preserve" text-anchor="start" font-family="'Roboto Mono'" font-size="14" stroke-width="0" id="svg_121" y="668" x="36.5" fill="#f6f6f6">И.</text>
    </g>
    <g id="svg_117">
     <rect rx="10" id="svg_104" height="40" width="655" y="688" x="20" fill="#ffffff"/>
     <rect rx="10" stroke="null" id="svg_108" height="30" width="30" y="693" x="28" stroke-width="0" fill="#779953"/>
     <rect rx="10" stroke="null" id="svg_109" height="30" width="120" y="693" x="61.5" stroke-width="0" fill="#f6f6f6"/>
     <text xml:space="preserve" text-anchor="start" font-family="'Roboto Mono'" font-size="14" stroke-width="0" id="svg_110" y="713" x="36" fill="#f6f6f6">М.</text>
    </g>
   </g>
   <text font-style="normal" font-weight="normal" xml:space="preserve" text-anchor="start" font-family="'Roboto Mono'" font-size="24" stroke-width="0" id="svg_103" y="540" x="275.98438" fill="#323232">${name3_1}</text>
   <text xml:space="preserve" text-anchor="start" font-family="'Roboto Mono'" font-size="14" stroke-width="0" id="svg_134" y="580" x="67" fill="#323232">${name3_2}</text>
   <text style="cursor: move;" xml:space="preserve" text-anchor="start" font-family="'Roboto Mono'" font-size="14" id="svg_124" y="624" x="195" stroke-width="0" stroke="null" fill="#323232">${name3_5}</text>
   <text style="cursor: move;" xml:space="preserve" text-anchor="start" font-family="'Roboto Mono'" font-size="14" stroke-width="0" id="svg_128" y="624" x="67" fill="#323232">${name3_4}</text>
   <text style="cursor: move;" xml:space="preserve" text-anchor="start" font-family="'Roboto Mono'" font-size="14" stroke-width="0" id="svg_114" y="668" x="227.5" fill="#323232">${name3_7}</text>
   <text style="cursor: move;" xml:space="preserve" text-anchor="start" font-family="'Roboto Mono'" font-size="14" stroke-width="0" id="svg_120" y="668" x="67" fill="#323232">${name3_6}</text>
   <text style="cursor: move;" xml:space="preserve" text-anchor="start" font-family="'Roboto Mono'" font-size="14" stroke-width="0" id="svg_111" y="713" x="67" fill="#323232">${name3_8}</text>
   <text xml:space="preserve" text-anchor="start" font-family="'Roboto Mono'" font-size="14" stroke-width="0" id="svg_122" y="580" x="227.5" fill="#323232">${name1_3}</text>
  </g>
  <g id="svg_185">
   <g id="svg_180">
    <rect rx="10" id="svg_46" height="235" width="675" y="745" x="10" fill="#f6f6f6"/>
    <g id="svg_75">
     <rect rx="10" id="svg_64" height="40" width="655" y="844" x="20" fill="#ffffff"/>
     <rect rx="10" stroke="null" id="svg_67" height="30" width="480" y="849" x="187.5" stroke-width="0" fill="#f6f6f6"/>
     <rect rx="10" stroke="null" id="svg_65" height="30" width="30" y="849" x="27.5" stroke-width="0" fill="#779953"/>
     <rect rx="10" stroke="null" id="svg_66" height="30" width="120" y="849" x="61.5" stroke-width="0" fill="#f6f6f6"/>
     <text xml:space="preserve" text-anchor="start" font-family="'Roboto Mono'" font-size="14" stroke-width="0" id="svg_154" y="869" x="36" fill="#f6f6f6">Д.</text>
    </g>
    <g id="svg_82">
     <rect rx="10" id="svg_72" height="40" width="655" y="888" x="20" fill="#ffffff"/>
     <rect rx="10" stroke="null" id="svg_73" height="30" width="30" y="893" x="188" stroke-width="0" fill="#779953"/>
     <rect rx="10" stroke="null" id="svg_74" height="30" width="120" y="893" x="222" stroke-width="0" fill="#f6f6f6"/>
     <text xml:space="preserve" text-anchor="start" font-family="'Roboto Mono'" font-size="14" stroke-width="0" id="svg_76" y="913" x="197" fill="#f6f6f6">Ч.</text>
     <rect rx="10" stroke="null" id="svg_152" height="30" width="30" y="893" x="27.5" stroke-width="0" fill="#779953"/>
     <rect rx="10" stroke="null" id="svg_153" height="30" width="120" y="893" x="61.5" stroke-width="0" fill="#f6f6f6"/>
     <text xml:space="preserve" text-anchor="start" font-family="'Roboto Mono'" font-size="14" stroke-width="0" id="svg_1" y="913" x="36.5" fill="#f6f6f6">И.</text>
    </g>
    <g id="svg_87">
     <rect rx="10" id="svg_48" height="40" width="655" y="933" x="20" fill="#ffffff"/>
     <rect rx="10" stroke="null" id="svg_49" height="30" width="30" y="938" x="28" stroke-width="0" fill="#779953"/>
     <rect rx="10" stroke="null" id="svg_50" height="30" width="120" y="938" x="61.5" stroke-width="0" fill="#f6f6f6"/>
     <text xml:space="preserve" text-anchor="start" font-family="'Roboto Mono'" font-size="14" stroke-width="0" id="svg_52" y="958" x="36" fill="#f6f6f6">М.</text>
    </g>
    <g id="svg_169">
     <rect rx="10" id="svg_56" height="40" width="655" y="800" x="20" fill="#ffffff"/>
     <rect rx="10" stroke="null" id="svg_57" height="30" width="30" y="805" x="188" stroke-width="0" fill="#779953"/>
     <rect rx="10" stroke="null" id="svg_58" height="30" width="120" y="805" x="222" stroke-width="0" fill="#f6f6f6"/>
     <text xml:space="preserve" text-anchor="start" font-family="'Roboto Mono'" font-size="14" stroke-width="0" id="svg_60" y="825" x="197" fill="#f6f6f6">П.</text>
     <rect rx="10" stroke="null" id="svg_163" height="30" width="30" y="805" x="27.5" stroke-width="0" fill="#779953"/>
     <rect rx="10" stroke="null" id="svg_164" height="30" width="120" y="805" x="61.5" stroke-width="0" fill="#f6f6f6"/>
     <text xml:space="preserve" text-anchor="start" font-family="'Roboto Mono'" font-size="14" stroke-width="0" id="svg_165" y="825" x="36.5" fill="#f6f6f6">В.</text>
    </g>
   </g>
   <text font-style="normal" font-weight="normal" xml:space="preserve" text-anchor="start" font-family="'Roboto Mono'" font-size="24" stroke-width="0" id="svg_47" y="785" x="275.98438" fill="#323232">${name4_1}</text>
   <text style="cursor: move;" xml:space="preserve" text-anchor="start" font-family="'Roboto Mono'" font-size="14" id="svg_70" y="869" x="195" stroke-width="0" stroke="null" fill="#323232">${name4_5}</text>
   <text style="cursor: move;" xml:space="preserve" text-anchor="start" font-family="'Roboto Mono'" font-size="14" stroke-width="0" id="svg_69" y="869" x="67" fill="#323232">${name4_4}</text>
   <text style="cursor: move;" xml:space="preserve" text-anchor="start" font-family="'Roboto Mono'" font-size="14" stroke-width="0" id="svg_77" y="913" x="227.5" fill="#323232">${name4_7}</text>
   <text style="cursor: move;" xml:space="preserve" text-anchor="start" font-family="'Roboto Mono'" font-size="14" stroke-width="0" id="svg_155" y="913" x="67" fill="#323232">${name4_6}</text>
   <text style="cursor: move;" xml:space="preserve" text-anchor="start" font-family="'Roboto Mono'" font-size="14" stroke-width="0" id="svg_53" y="958" x="67" fill="#323232">${name4_8}</text>
   <text xml:space="preserve" text-anchor="start" font-family="'Roboto Mono'" font-size="14" stroke-width="0" id="svg_61" y="825" x="227.5" fill="#323232">${name4_3}</text>
   <text xml:space="preserve" text-anchor="start" font-family="'Roboto Mono'" font-size="14" stroke-width="0" id="svg_166" y="825" x="67" fill="#323232">${name4_2}</text>
  </g>
 </g>

</svg>