<svg width="695" height="990" xmlns="http://www.w3.org/2000/svg" version="1.1">
 <g>
  <title>Layer 1</title>
  <rect id="svg_8" height="990" width="695" y="0" x="0" fill="#ffffff"/>
  <g id="svg_147">
   <rect fill="#f6f6f6" x="10" y="10" width="675" height="235" id="svg_9" rx="10"/>
   <text fill="#323232" x="275.98438" y="50" id="svg_10" stroke-width="0" font-size="24" font-family="'Roboto Mono'" text-anchor="start" xml:space="preserve" font-weight="normal" font-style="normal">${name1_1}</text>
   <g id="svg_16">
    <g id="svg_6">
     <rect fill="#ffffff" x="20" y="198" width="655" height="40" id="svg_11" rx="10"/>
     <rect fill="#779953" stroke-width="0" x="28" y="203" width="30" height="30" id="svg_15" stroke="null" rx="10"/>
     <rect fill="#f6f6f6" stroke-width="0" x="61.5" y="203" width="120" height="30" id="svg_14" stroke="null" rx="10"/>
     <text fill="#f6f6f6" x="36" y="223" id="svg_17" stroke-width="0" font-size="14" font-family="'Roboto Mono'" text-anchor="start" xml:space="preserve">М.</text>
    </g>
    <text fill="#323232" x="67" y="223" id="svg_18" stroke-width="0" font-size="14" font-family="'Roboto Mono'" text-anchor="start" xml:space="preserve">${name1_7}</text>
   </g>
   <g id="svg_38">
    <g id="svg_5">
     <rect fill="#ffffff" x="20" y="153" width="655" height="40" id="svg_14" rx="10"/>
     <rect fill="#779953" stroke-width="0" x="188" y="158" width="30" height="30" id="svg_20" stroke="null" rx="10"/>
     <rect fill="#f6f6f6" stroke-width="0" x="222" y="158" width="120" height="30" id="svg_21" stroke="null" rx="10"/>
     <text fill="#f6f6f6" x="197" y="178" id="svg_22" stroke-width="0" font-size="14" font-family="'Roboto Mono'" text-anchor="start" xml:space="preserve">Ч.</text>
     <rect fill="#779953" stroke-width="0" x="27.5" y="158" width="30" height="30" id="svg_25" stroke="null" rx="10"/>
     <rect fill="#f6f6f6" stroke-width="0" x="61.5" y="158" width="120" height="30" id="svg_26" stroke="null" rx="10"/>
     <text fill="#f6f6f6" x="36.5" y="178" id="svg_28" stroke-width="0" font-size="14" font-family="'Roboto Mono'" text-anchor="start" xml:space="preserve">И.</text>
    </g>
    <text fill="#323232" x="227.5" y="178" id="svg_23" stroke-width="0" font-size="14" font-family="'Roboto Mono'" text-anchor="start" xml:space="preserve">${name1_6}</text>
    <text fill="#323232" x="67" y="178" id="svg_27" stroke-width="0" font-size="14" font-family="'Roboto Mono'" text-anchor="start" xml:space="preserve">${name1_5}</text>
   </g>
   <g id="svg_42">
    <g id="svg_4">
     <rect fill="#ffffff" x="20" y="109" width="655" height="40" id="svg_13" rx="10"/>
     <rect fill="#f6f6f6" stroke-width="0" x="187.5" y="114" width="480" height="30" id="svg_30" stroke="null" rx="10"/>
     <rect fill="#779953" stroke-width="0" x="27.5" y="114" width="30" height="30" id="svg_33" stroke="null" rx="10"/>
     <rect fill="#f6f6f6" stroke-width="0" x="61.5" y="114" width="120" height="30" id="svg_34" stroke="null" rx="10"/>
     <text fill="#f6f6f6" x="36" y="134" id="svg_36" stroke-width="0" font-size="14" font-family="'Roboto Mono'" text-anchor="start" xml:space="preserve">Д.</text>
    </g>
    <text fill="#323232" stroke="null" stroke-width="0" x="195" y="134" id="svg_31" font-size="14" font-family="'Roboto Mono'" text-anchor="start" xml:space="preserve">${name1_4}</text>
    <text fill="#323232" x="67" y="134" id="svg_35" stroke-width="0" font-size="14" font-family="'Roboto Mono'" text-anchor="start" xml:space="preserve">${name1_3}</text>
   </g>
   <g id="svg_95">
    <g id="svg_3">
     <rect fill="#ffffff" x="20" y="65" width="655" height="40" id="svg_12" rx="10"/>
     <rect fill="#f6f6f6" stroke-width="0" x="61.5" y="70" width="120" height="30" id="svg_39" stroke="null" rx="10"/>
     <rect fill="#779953" stroke-width="0" x="27.5" y="70" width="30" height="30" id="svg_2" stroke="null" rx="10"/>
     <text fill="#f6f6f6" x="36.5" y="90" id="svg_40" stroke-width="0" font-size="14" font-family="'Roboto Mono'" text-anchor="start" xml:space="preserve">В.</text>
    </g>
    <text fill="#323232" x="67" y="90" id="svg_41" stroke-width="0" font-size="14" font-family="'Roboto Mono'" text-anchor="start" xml:space="preserve">${name1_2}</text>
   </g>
  </g>
  <g id="svg_148">
   <rect fill="#f6f6f6" x="10" y="256" width="675" height="235" id="svg_44" rx="10"/>
   <text fill="#323232" x="275.98438" y="295" id="svg_45" stroke-width="0" font-size="24" font-family="'Roboto Mono'" text-anchor="start" xml:space="preserve" font-weight="normal" font-style="normal">${name2_1}</text>
   <g id="svg_100">
    <g id="svg_7">
     <rect fill="#ffffff" x="20" y="310" width="655" height="40" id="svg_54" rx="10"/>
     <rect fill="#779953" stroke-width="0" x="27.5" y="315" width="30" height="30" id="svg_96" stroke="null" rx="10"/>
     <rect fill="#f6f6f6" stroke-width="0" x="61.5" y="315" width="120" height="30" id="svg_97" stroke="null" rx="10"/>
     <text fill="#f6f6f6" x="36.5" y="335" id="svg_98" stroke-width="0" font-size="14" font-family="'Roboto Mono'" text-anchor="start" xml:space="preserve">В.</text>
    </g>
    <text fill="#323232" x="67" y="335" id="svg_99" stroke-width="0" font-size="14" font-family="'Roboto Mono'" text-anchor="start" xml:space="preserve">${name2_2}</text>
   </g>
   <g id="svg_101">
    <g id="svg_90">
     <rect fill="#ffffff" x="20" y="354" width="655" height="40" id="svg_55" rx="10"/>
     <rect fill="#f6f6f6" stroke-width="0" x="187.5" y="359" width="480" height="30" id="svg_88" stroke="null" rx="10"/>
     <rect fill="#779953" stroke-width="0" x="28" y="359" width="30" height="30" id="svg_91" stroke="null" rx="10"/>
     <rect fill="#f6f6f6" stroke-width="0" x="62" y="359" width="120" height="30" id="svg_92" stroke="null" rx="10"/>
     <text fill="#f6f6f6" x="36.5" y="379" id="svg_94" stroke-width="0" font-size="14" font-family="'Roboto Mono'" text-anchor="start" xml:space="preserve">Д.</text>
    </g>
    <text fill="#323232" stroke="null" stroke-width="0" x="195" y="379" id="svg_89" font-size="14" font-family="'Roboto Mono'" text-anchor="start" xml:space="preserve">${name2_4}</text>
    <text fill="#323232" x="67.5" y="379" id="svg_93" stroke-width="0" font-size="14" font-family="'Roboto Mono'" text-anchor="start" xml:space="preserve">${name2_3}</text>
   </g>
   <g id="svg_116">
    <g id="svg_19">
     <rect fill="#ffffff" x="20" y="398" width="655" height="40" id="svg_59" rx="10"/>
     <rect fill="#779953" stroke-width="0" x="188" y="403" width="30" height="30" id="svg_78" stroke="null" rx="10"/>
     <rect fill="#f6f6f6" stroke-width="0" x="222" y="403" width="120" height="30" id="svg_79" stroke="null" rx="10"/>
     <text fill="#f6f6f6" x="197" y="423" id="svg_80" stroke-width="0" font-size="14" font-family="'Roboto Mono'" text-anchor="start" xml:space="preserve">Ч.</text>
     <rect fill="#779953" stroke-width="0" x="27.5" y="403" width="30" height="30" id="svg_83" stroke="null" rx="10"/>
     <rect fill="#f6f6f6" stroke-width="0" x="61.5" y="403" width="120" height="30" id="svg_84" stroke="null" rx="10"/>
     <text fill="#f6f6f6" x="36.5" y="423" id="svg_86" stroke-width="0" font-size="14" font-family="'Roboto Mono'" text-anchor="start" xml:space="preserve">И.</text>
    </g>
    <text fill="#323232" x="227.5" y="423" id="svg_81" stroke-width="0" font-size="14" font-family="'Roboto Mono'" text-anchor="start" xml:space="preserve">${name2_6}</text>
    <text fill="#323232" x="67" y="423" id="svg_85" stroke-width="0" font-size="14" font-family="'Roboto Mono'" text-anchor="start" xml:space="preserve">${name2_5}</text>
   </g>
   <g id="svg_125">
    <g id="svg_24">
     <rect fill="#ffffff" x="20" y="443" width="655" height="40" id="svg_51" rx="10"/>
     <rect fill="#779953" stroke-width="0" x="28" y="448" width="30" height="30" id="svg_62" stroke="null" rx="10"/>
     <rect fill="#f6f6f6" stroke-width="0" x="61.5" y="448" width="120" height="30" id="svg_63" stroke="null" rx="10"/>
     <text fill="#f6f6f6" x="36" y="468" id="svg_68" stroke-width="0" font-size="14" font-family="'Roboto Mono'" text-anchor="start" xml:space="preserve">М.</text>
    </g>
    <text fill="#323232" x="67" y="468" id="svg_71" stroke-width="0" font-size="14" font-family="'Roboto Mono'" text-anchor="start" xml:space="preserve">${name2_7}</text>
   </g>
  </g>
  <g id="svg_149">
   <rect fill="#f6f6f6" x="10" y="500" width="675" height="235" id="svg_102" rx="10"/>
   <text fill="#323232" x="275.98438" y="540" id="svg_103" stroke-width="0" font-size="24" font-family="'Roboto Mono'" text-anchor="start" xml:space="preserve" font-weight="normal" font-style="normal">${name3_1}</text>
   <g id="svg_130">
    <g id="svg_29">
     <rect fill="#ffffff" x="20" y="555" width="655" height="40" id="svg_105" rx="10"/>
     <rect fill="#779953" stroke-width="0" x="27.5" y="560" width="30" height="30" id="svg_131" stroke="null" rx="10"/>
     <rect fill="#f6f6f6" stroke-width="0" x="61.5" y="560" width="120" height="30" id="svg_132" stroke="null" rx="10"/>
     <text fill="#f6f6f6" x="36.5" y="580" id="svg_133" stroke-width="0" font-size="14" font-family="'Roboto Mono'" text-anchor="start" xml:space="preserve">В.</text>
    </g>
    <text fill="#323232" x="67" y="580" id="svg_134" stroke-width="0" font-size="14" font-family="'Roboto Mono'" text-anchor="start" xml:space="preserve">${name3_2}</text>
   </g>
   <g id="svg_135">
    <g id="svg_32">
     <rect fill="#ffffff" x="20" y="599" width="655" height="40" id="svg_106" rx="10"/>
     <rect fill="#f6f6f6" stroke-width="0" x="187.5" y="604" width="480" height="30" id="svg_123" stroke="null" rx="10"/>
     <rect fill="#779953" stroke-width="0" x="27.5" y="604" width="30" height="30" id="svg_126" stroke="null" rx="10"/>
     <rect fill="#f6f6f6" stroke-width="0" x="61.5" y="604" width="120" height="30" id="svg_127" stroke="null" rx="10"/>
     <text fill="#f6f6f6" x="36" y="624" id="svg_129" stroke-width="0" font-size="14" font-family="'Roboto Mono'" text-anchor="start" xml:space="preserve">Д.</text>
    </g>
    <text fill="#323232" stroke="null" stroke-width="0" x="195" y="624" id="svg_124" font-size="14" font-family="'Roboto Mono'" text-anchor="start" xml:space="preserve">${name3_4}</text>
    <text fill="#323232" x="67" y="624" id="svg_128" stroke-width="0" font-size="14" font-family="'Roboto Mono'" text-anchor="start" xml:space="preserve">${name3_3}</text>
   </g>
   <g id="svg_136">
    <g id="svg_37">
     <rect fill="#ffffff" x="20" y="643" width="655" height="40" id="svg_107" rx="10"/>
     <rect fill="#779953" stroke-width="0" x="188" y="648" width="30" height="30" id="svg_113" stroke="null" rx="10"/>
     <rect fill="#f6f6f6" stroke-width="0" x="222" y="648" width="120" height="30" id="svg_114" stroke="null" rx="10"/>
     <text fill="#f6f6f6" x="197" y="668" id="svg_115" stroke-width="0" font-size="14" font-family="'Roboto Mono'" text-anchor="start" xml:space="preserve">Ч.</text>
     <rect fill="#779953" stroke-width="0" x="27.5" y="648" width="30" height="30" id="svg_118" stroke="null" rx="10"/>
     <rect fill="#f6f6f6" stroke-width="0" x="61.5" y="648" width="120" height="30" id="svg_119" stroke="null" rx="10"/>
     <text fill="#f6f6f6" x="36.5" y="668" id="svg_121" stroke-width="0" font-size="14" font-family="'Roboto Mono'" text-anchor="start" xml:space="preserve">И.</text>
    </g>
    <text fill="#323232" x="227.5" y="668" id="svg_114" stroke-width="0" font-size="14" font-family="'Roboto Mono'" text-anchor="start" xml:space="preserve">${name3_6}</text>
    <text fill="#323232" x="67" y="668" id="svg_120" stroke-width="0" font-size="14" font-family="'Roboto Mono'" text-anchor="start" xml:space="preserve">${name3_5}</text>
   </g>
   <g id="svg_138">
    <g id="svg_117">
     <rect fill="#ffffff" x="20" y="688" width="655" height="40" id="svg_104" rx="10"/>
     <rect fill="#779953" stroke-width="0" x="28" y="693" width="30" height="30" id="svg_108" stroke="null" rx="10"/>
     <rect fill="#f6f6f6" stroke-width="0" x="61.5" y="693" width="120" height="30" id="svg_109" stroke="null" rx="10"/>
     <text fill="#f6f6f6" x="36" y="713" id="svg_110" stroke-width="0" font-size="14" font-family="'Roboto Mono'" text-anchor="start" xml:space="preserve">М.</text>
    </g>
    <text fill="#323232" x="67" y="713" id="svg_111" stroke-width="0" font-size="14" font-family="'Roboto Mono'" text-anchor="start" xml:space="preserve">${name3_7}</text>
   </g>
  </g>
  <g id="svg_150">
   <rect fill="#f6f6f6" x="10" y="745" width="675" height="235" id="svg_46" rx="10"/>
   <text fill="#323232" x="275.98438" y="785" id="svg_47" stroke-width="0" font-size="24" font-family="'Roboto Mono'" text-anchor="start" xml:space="preserve" font-weight="normal" font-style="normal">${name4_1}</text>
   <g id="svg_139">
    <g id="svg_43">
     <rect fill="#ffffff" x="20" y="800" width="655" height="40" id="svg_56" rx="10"/>
     <rect fill="#779953" stroke-width="0" x="27.5" y="805" width="30" height="30" id="svg_57" stroke="null" rx="10"/>
     <rect fill="#f6f6f6" stroke-width="0" x="61.5" y="805" width="120" height="30" id="svg_58" stroke="null" rx="10"/>
     <text fill="#f6f6f6" x="36.5" y="825" id="svg_60" stroke-width="0" font-size="14" font-family="'Roboto Mono'" text-anchor="start" xml:space="preserve">В.</text>
    </g>
    <text fill="#323232" x="67" y="825" id="svg_61" stroke-width="0" font-size="14" font-family="'Roboto Mono'" text-anchor="start" xml:space="preserve">${name4_2}</text>
   </g>
   <g id="svg_140">
    <g id="svg_75">
     <rect fill="#ffffff" x="20" y="844" width="655" height="40" id="svg_64" rx="10"/>
     <rect fill="#f6f6f6" stroke-width="0" x="187.5" y="849" width="480" height="30" id="svg_67" stroke="null" rx="10"/>
     <rect fill="#779953" stroke-width="0" x="27.5" y="849" width="30" height="30" id="svg_65" stroke="null" rx="10"/>
     <rect fill="#f6f6f6" stroke-width="0" x="61.5" y="849" width="120" height="30" id="svg_66" stroke="null" rx="10"/>
     <text fill="#f6f6f6" x="36" y="869" id="svg_154" stroke-width="0" font-size="14" font-family="'Roboto Mono'" text-anchor="start" xml:space="preserve">Д.</text>
    </g>
    <text fill="#323232" stroke="null" stroke-width="0" x="195" y="869" id="svg_70" font-size="14" font-family="'Roboto Mono'" text-anchor="start" xml:space="preserve">${name4_4}</text>
    <text fill="#323232" x="67" y="869" id="svg_69" stroke-width="0" font-size="14" font-family="'Roboto Mono'" text-anchor="start" xml:space="preserve">${name4_3}</text>
   </g>
   <g id="svg_141">
    <g id="svg_82">
     <rect fill="#ffffff" x="20" y="888" width="655" height="40" id="svg_72" rx="10"/>
     <rect fill="#779953" stroke-width="0" x="188" y="893" width="30" height="30" id="svg_73" stroke="null" rx="10"/>
     <rect fill="#f6f6f6" stroke-width="0" x="222" y="893" width="120" height="30" id="svg_74" stroke="null" rx="10"/>
     <text fill="#f6f6f6" x="197" y="913" id="svg_76" stroke-width="0" font-size="14" font-family="'Roboto Mono'" text-anchor="start" xml:space="preserve">Ч.</text>
     <rect fill="#779953" stroke-width="0" x="27.5" y="893" width="30" height="30" id="svg_152" stroke="null" rx="10"/>
     <rect fill="#f6f6f6" stroke-width="0" x="61.5" y="893" width="120" height="30" id="svg_153" stroke="null" rx="10"/>
     <text fill="#f6f6f6" x="36.5" y="913" id="svg_1" stroke-width="0" font-size="14" font-family="'Roboto Mono'" text-anchor="start" xml:space="preserve">И.</text>
    </g>
    <text fill="#323232" x="227.5" y="913" id="svg_77" stroke-width="0" font-size="14" font-family="'Roboto Mono'" text-anchor="start" xml:space="preserve">${name4_6}</text>
    <text fill="#323232" x="67" y="913" id="svg_155" stroke-width="0" font-size="14" font-family="'Roboto Mono'" text-anchor="start" xml:space="preserve">${name4_5}</text>
   </g>
   <g id="svg_142">
    <g id="svg_87">
     <rect fill="#ffffff" x="20" y="933" width="655" height="40" id="svg_48" rx="10"/>
     <rect fill="#779953" stroke-width="0" x="28" y="938" width="30" height="30" id="svg_49" stroke="null" rx="10"/>
     <rect fill="#f6f6f6" stroke-width="0" x="61.5" y="938" width="120" height="30" id="svg_50" stroke="null" rx="10"/>
     <text fill="#f6f6f6" x="36" y="958" id="svg_52" stroke-width="0" font-size="14" font-family="'Roboto Mono'" text-anchor="start" xml:space="preserve">М.</text>
    </g>
    <text fill="#323232" x="67" y="958" id="svg_53" stroke-width="0" font-size="14" font-family="'Roboto Mono'" text-anchor="start" xml:space="preserve">${name4_7}</text>
   </g>
  </g>
 </g>

</svg>