<svg width="695" height="1130" xmlns="http://www.w3.org/2000/svg" version="1.1">

 <g>
  <rect id="svg_42" fill="#ffffff" x="0" y="0" width="695" height="1130"/>

  <g id="svg_82">
   <rect id="svg_43" rx="10" height="270" width="675" y="10" x="10" stroke="null" fill="#f6f6f6"/>
   <g id="svg_62">
    <rect id="svg_44" rx="10" height="40" width="655" y="65" x="20" fill="#ffffff"/>
    <rect id="svg_45" rx="10" stroke="null" height="30" width="197" y="70" x="132" stroke-width="0" fill="#f6f6f6"/>
    <rect id="svg_46" rx="10" stroke="null" height="30" width="100" y="70" x="27.5" stroke-width="0" fill="#779953"/>
    <rect id="svg_47" rx="10" stroke="null" height="30" width="197" y="70" x="472" stroke-width="0" fill="#f6f6f6"/>
    <rect id="svg_48" rx="10" stroke="null" height="30" width="100" y="70" x="366" stroke-width="0" fill="#779953"/>
    <rect id="svg_49" rx="10" height="76" width="655" y="109" x="20" fill="#ffffff"/>
    <rect id="svg_50" rx="10" stroke="null" height="30" width="197" y="114" x="133" stroke-width="0" fill="#f6f6f6"/>
    <rect id="svg_51" rx="10" stroke="null" height="30" width="100" y="114" x="27.5" stroke-width="0" fill="#779953"/>
    <rect id="svg_52" rx="10" stroke="null" height="30" width="536" y="150" x="133" stroke-width="0" fill="#f6f6f6"/>
    <rect id="svg_53" rx="10" stroke="null" height="30" width="100" y="150" x="27.5" stroke-width="0" fill="#779953"/>
    <rect id="svg_54" rx="10" height="40" width="655" y="189" x="20" fill="#ffffff"/>
    <rect id="svg_55" rx="10" stroke="null" height="30" width="100" y="194" x="27.5" stroke-width="0" fill="#779953"/>
    <rect id="svg_56" rx="10" stroke="null" height="30" width="197" y="194" x="133" stroke-width="0" fill="#f6f6f6"/>
    <rect id="svg_57" rx="10" stroke="null" height="30" width="197" y="194" x="472" stroke-width="0" fill="#f6f6f6"/>
    <rect id="svg_58" rx="10" stroke="null" height="30" width="100" y="194" x="366" stroke-width="0" fill="#779953"/>
    <rect id="svg_59" rx="10" height="40" width="655" y="234" x="20" fill="#ffffff"/>
    <rect id="svg_60" rx="10" stroke="null" height="30" width="100" y="239" x="28" stroke-width="0" fill="#779953"/>
    <rect id="svg_61" rx="10" stroke="null" height="30" width="197" y="239" x="133" stroke-width="0" fill="#f6f6f6"/>
   </g>
   <text id="svg_63" xml:space="preserve" text-anchor="start" font-family="'Roboto Mono'" font-size="24" stroke-width="0" y="50" x="275.98438" fill="#323232">${W_0}</text>
   <g id="svg_68">
    <text id="svg_64" xml:space="preserve" text-anchor="start" font-family="'Roboto Mono'" font-size="14" stroke-width="0" y="90" x="138.5" fill="#323232">${name1_2}</text>
    <text id="svg_65" xml:space="preserve" text-anchor="start" font-family="'Roboto Mono'" font-size="14" stroke-width="0" y="90" x="46" fill="#f6f6f6">Ведучий</text>
    <text id="svg_66" xml:space="preserve" text-anchor="start" font-family="'Roboto Mono'" font-size="14" stroke-width="0" y="90" x="482" fill="#323232">${name1_3}</text>
    <text id="svg_67" xml:space="preserve" text-anchor="start" font-family="'Roboto Mono'" font-size="14" stroke-width="0" y="90" x="396" fill="#f6f6f6">Пісня</text>
   </g>
   <g id="svg_73">
    <text id="svg_69" xml:space="preserve" text-anchor="start" font-family="'Roboto Mono'" font-size="14" stroke-width="0" y="134" x="138.5" fill="#323232">${name1_4}</text>
    <text id="svg_70" xml:space="preserve" text-anchor="start" font-family="'Roboto Mono'" font-size="14" stroke-width="0" y="134" x="40" stroke="null" fill="#f6f6f6">Промовець</text>
    <text id="svg_71" xml:space="preserve" text-anchor="start" font-family="'Roboto Mono'" font-size="14" y="170" x="139" stroke-width="0" stroke="null" fill="#323232">${name1_5}</text>
    <text id="svg_72" xml:space="preserve" text-anchor="start" font-family="'Roboto Mono'" font-size="14" stroke-width="0" y="170" x="60" fill="#f6f6f6">Тема</text>
   </g>
   <g id="svg_78">
    <text id="svg_74" xml:space="preserve" text-anchor="start" font-family="'Roboto Mono'" font-size="14" stroke-width="0" y="214" x="44" fill="#f6f6f6">Вивчення</text>
    <text id="svg_75" xml:space="preserve" text-anchor="start" font-family="'Roboto Mono'" font-size="14" stroke-width="0" y="214" x="139.5" fill="#323232">${name1_6}</text>
    <text id="svg_76" xml:space="preserve" text-anchor="start" font-family="'Roboto Mono'" font-size="14" stroke-width="0" y="214" x="478.5" fill="#323232">${name1_7}</text>
    <text id="svg_77" xml:space="preserve" text-anchor="start" font-family="'Roboto Mono'" font-size="14" stroke-width="0" y="214" x="392" fill="#f6f6f6">Читець</text>
   </g>
   <g id="svg_81">
    <text id="svg_79" xml:space="preserve" text-anchor="start" font-family="'Roboto Mono'" font-size="14" stroke-width="0" y="259" x="48" fill="#f6f6f6">Молитва</text>
    <text id="svg_80" xml:space="preserve" text-anchor="start" font-family="'Roboto Mono'" font-size="14" stroke-width="0" y="259" x="138.5" fill="#323232">${name1_8}</text>
   </g>
  </g>

  <g>
   <rect rx="10" height="270" width="675" y="290" x="10" stroke="null" fill="#f6f6f6"/>
   <g>
    <rect rx="10" height="40" width="655" y="345" x="20" fill="#ffffff"/>
    <rect rx="10" stroke="null" height="30" width="197" y="350" x="132" stroke-width="0" fill="#f6f6f6"/>
    <rect rx="10" stroke="null" height="30" width="100" y="350" x="27.5" stroke-width="0" fill="#779953"/>
    <rect rx="10" stroke="null" height="30" width="197" y="350" x="472" stroke-width="0" fill="#f6f6f6"/>
    <rect rx="10" stroke="null" height="30" width="100" y="350" x="366" stroke-width="0" fill="#779953"/>
    <rect rx="10" height="76" width="655" y="389" x="20" fill="#ffffff"/>
    <rect rx="10" stroke="null" height="30" width="197" y="394" x="133" stroke-width="0" fill="#f6f6f6"/>
    <rect rx="10" stroke="null" height="30" width="100" y="394" x="27.5" stroke-width="0" fill="#779953"/>
    <rect rx="10" stroke="null" height="30" width="536" y="430" x="133" stroke-width="0" fill="#f6f6f6"/>
    <rect rx="10" stroke="null" height="30" width="100" y="430" x="27.5" stroke-width="0" fill="#779953"/>
    <rect rx="10" height="40" width="655" y="469" x="20" fill="#ffffff"/>
    <rect rx="10" stroke="null" height="30" width="100" y="474" x="27.5" stroke-width="0" fill="#779953"/>
    <rect rx="10" stroke="null" height="30" width="197" y="474" x="133" stroke-width="0" fill="#f6f6f6"/>
    <rect rx="10" stroke="null" height="30" width="197" y="474" x="472" stroke-width="0" fill="#f6f6f6"/>
    <rect rx="10" stroke="null" height="30" width="100" y="474" x="366" stroke-width="0" fill="#779953"/>
    <rect rx="10" height="40" width="655" y="514" x="20" fill="#ffffff"/>
    <rect rx="10" stroke="null" height="30" width="100" y="519" x="28" stroke-width="0" fill="#779953"/>
    <rect rx="10" stroke="null" height="30" width="197" y="519" x="133" stroke-width="0" fill="#f6f6f6"/>
   </g>
   <text xml:space="preserve" text-anchor="start" font-family="'Roboto Mono'" font-size="24" stroke-width="0" y="330" x="275.98438" fill="#323232">${W_0}</text>
   <g>
    <text xml:space="preserve" text-anchor="start" font-family="'Roboto Mono'" font-size="14" stroke-width="0" y="370" x="138.5" fill="#323232">${name1_2}</text>
    <text xml:space="preserve" text-anchor="start" font-family="'Roboto Mono'" font-size="14" stroke-width="0" y="370" x="46" fill="#f6f6f6">Ведучий</text>
    <text xml:space="preserve" text-anchor="start" font-family="'Roboto Mono'" font-size="14" stroke-width="0" y="370" x="482" fill="#323232">${name1_3}</text>
    <text xml:space="preserve" text-anchor="start" font-family="'Roboto Mono'" font-size="14" stroke-width="0" y="370" x="396" fill="#f6f6f6">Пісня</text>
   </g>
   <g>
    <text  xml:space="preserve" text-anchor="start" font-family="'Roboto Mono'" font-size="14" stroke-width="0" y="414" x="138.5" fill="#323232">${name1_4}</text>
    <text  xml:space="preserve" text-anchor="start" font-family="'Roboto Mono'" font-size="14" stroke-width="0" y="414" x="40" stroke="null" fill="#f6f6f6">Промовець</text>
    <text  xml:space="preserve" text-anchor="start" font-family="'Roboto Mono'" font-size="14" y="450" x="139" stroke-width="0" stroke="null" fill="#323232">${name1_5}</text>
    <text  xml:space="preserve" text-anchor="start" font-family="'Roboto Mono'" font-size="14" stroke-width="0" y="450" x="60" fill="#f6f6f6">Тема</text>
   </g>
   <g>
    <text xml:space="preserve" text-anchor="start" font-family="'Roboto Mono'" font-size="14" stroke-width="0" y="494" x="44" fill="#f6f6f6">Вивчення</text>
    <text xml:space="preserve" text-anchor="start" font-family="'Roboto Mono'" font-size="14" stroke-width="0" y="494" x="139.5" fill="#323232">${name1_6}</text>
    <text xml:space="preserve" text-anchor="start" font-family="'Roboto Mono'" font-size="14" stroke-width="0" y="494" x="478.5" fill="#323232">${name1_7}</text>
    <text xml:space="preserve" text-anchor="start" font-family="'Roboto Mono'" font-size="14" stroke-width="0" y="494" x="392" fill="#f6f6f6">Читець</text>
   </g>
   <g>
    <text xml:space="preserve" text-anchor="start" font-family="'Roboto Mono'" font-size="14" stroke-width="0" y="539" x="48" fill="#f6f6f6">Молитва</text>
    <text xml:space="preserve" text-anchor="start" font-family="'Roboto Mono'" font-size="14" stroke-width="0" y="539" x="138.5" fill="#323232">${name1_8}</text>
   </g>
  </g>

  <g>
   <rect rx="10" height="270" width="675" y="570" x="10" stroke="null" fill="#f6f6f6"/>
   <g>
    <rect rx="10" height="40" width="655" y="625" x="20" fill="#ffffff"/>
    <rect rx="10" stroke="null" height="30" width="197" y="630" x="132" stroke-width="0" fill="#f6f6f6"/>
    <rect rx="10" stroke="null" height="30" width="100" y="630" x="27.5" stroke-width="0" fill="#779953"/>
    <rect rx="10" stroke="null" height="30" width="197" y="630" x="472" stroke-width="0" fill="#f6f6f6"/>
    <rect rx="10" stroke="null" height="30" width="100" y="630" x="366" stroke-width="0" fill="#779953"/>
    <rect rx="10" height="76" width="655" y="669" x="20" fill="#ffffff"/>
    <rect rx="10" stroke="null" height="30" width="197" y="674" x="133" stroke-width="0" fill="#f6f6f6"/>
    <rect rx="10" stroke="null" height="30" width="100" y="674" x="27.5" stroke-width="0" fill="#779953"/>
    <rect rx="10" stroke="null" height="30" width="536" y="710" x="133" stroke-width="0" fill="#f6f6f6"/>
    <rect rx="10" stroke="null" height="30" width="100" y="710" x="27.5" stroke-width="0" fill="#779953"/>
    <rect rx="10" height="40" width="655" y="749" x="20" fill="#ffffff"/>
    <rect rx="10" stroke="null" height="30" width="100" y="754" x="27.5" stroke-width="0" fill="#779953"/>
    <rect rx="10" stroke="null" height="30" width="197" y="754" x="133" stroke-width="0" fill="#f6f6f6"/>
    <rect rx="10" stroke="null" height="30" width="197" y="754" x="472" stroke-width="0" fill="#f6f6f6"/>
    <rect rx="10" stroke="null" height="30" width="100" y="754" x="366" stroke-width="0" fill="#779953"/>
    <rect rx="10" height="40" width="655" y="794" x="20" fill="#ffffff"/>
    <rect rx="10" stroke="null" height="30" width="100" y="799" x="28" stroke-width="0" fill="#779953"/>
    <rect rx="10" stroke="null" height="30" width="197" y="799" x="133" stroke-width="0" fill="#f6f6f6"/>
   </g>
   <text xml:space="preserve" text-anchor="start" font-family="'Roboto Mono'" font-size="24" stroke-width="0" y="610" x="275.98438" fill="#323232">${W_0}</text>
   <g>
    <text xml:space="preserve" text-anchor="start" font-family="'Roboto Mono'" font-size="14" stroke-width="0" y="650" x="138.5" fill="#323232">${name1_2}</text>
    <text xml:space="preserve" text-anchor="start" font-family="'Roboto Mono'" font-size="14" stroke-width="0" y="650" x="46" fill="#f6f6f6">Ведучий</text>
    <text xml:space="preserve" text-anchor="start" font-family="'Roboto Mono'" font-size="14" stroke-width="0" y="650" x="482" fill="#323232">${name1_3}</text>
    <text xml:space="preserve" text-anchor="start" font-family="'Roboto Mono'" font-size="14" stroke-width="0" y="650" x="396" fill="#f6f6f6">Пісня</text>
   </g>
   <g>
    <text xml:space="preserve" text-anchor="start" font-family="'Roboto Mono'" font-size="14" stroke-width="0" y="694" x="138.5" fill="#323232">${name1_4}</text>
    <text xml:space="preserve" text-anchor="start" font-family="'Roboto Mono'" font-size="14" stroke-width="0" y="694" x="40" stroke="null" fill="#f6f6f6">Промовець</text>
    <text xml:space="preserve" text-anchor="start" font-family="'Roboto Mono'" font-size="14" y="730" x="139" stroke-width="0" stroke="null" fill="#323232">${name1_5}</text>
    <text xml:space="preserve" text-anchor="start" font-family="'Roboto Mono'" font-size="14" stroke-width="0" y="730" x="60" fill="#f6f6f6">Тема</text>
   </g>
   <g>
    <text xml:space="preserve" text-anchor="start" font-family="'Roboto Mono'" font-size="14" stroke-width="0" y="774" x="44" fill="#f6f6f6">Вивчення</text>
    <text xml:space="preserve" text-anchor="start" font-family="'Roboto Mono'" font-size="14" stroke-width="0" y="774" x="139.5" fill="#323232">${name1_6}</text>
    <text xml:space="preserve" text-anchor="start" font-family="'Roboto Mono'" font-size="14" stroke-width="0" y="774" x="478.5" fill="#323232">${name1_7}</text>
    <text xml:space="preserve" text-anchor="start" font-family="'Roboto Mono'" font-size="14" stroke-width="0" y="774" x="392" fill="#f6f6f6">Читець</text>
   </g>
   <g>
    <text xml:space="preserve" text-anchor="start" font-family="'Roboto Mono'" font-size="14" stroke-width="0" y="819" x="48" fill="#f6f6f6">Молитва</text>
    <text xml:space="preserve" text-anchor="start" font-family="'Roboto Mono'" font-size="14" stroke-width="0" y="819" x="138.5" fill="#323232">${name1_8}</text>
   </g>
  </g>

  <g>
   <rect rx="10" height="270" width="675" y="850" x="10" stroke="null" fill="#f6f6f6"/>
   <g>
    <rect rx="10" height="40" width="655" y="905" x="20" fill="#ffffff"/>
    <rect rx="10" stroke="null" height="30" width="197" y="910" x="132" stroke-width="0" fill="#f6f6f6"/>
    <rect rx="10" stroke="null" height="30" width="100" y="910" x="27.5" stroke-width="0" fill="#779953"/>
    <rect rx="10" stroke="null" height="30" width="197" y="910" x="472" stroke-width="0" fill="#f6f6f6"/>
    <rect rx="10" stroke="null" height="30" width="100" y="910" x="366" stroke-width="0" fill="#779953"/>
    <rect rx="10" height="76" width="655" y="949" x="20" fill="#ffffff"/>
    <rect rx="10" stroke="null" height="30" width="197" y="954" x="133" stroke-width="0" fill="#f6f6f6"/>
    <rect rx="10" stroke="null" height="30" width="100" y="954" x="27.5" stroke-width="0" fill="#779953"/>
    <rect rx="10" stroke="null" height="30" width="536" y="990" x="133" stroke-width="0" fill="#f6f6f6"/>
    <rect rx="10" stroke="null" height="30" width="100" y="990" x="27.5" stroke-width="0" fill="#779953"/>
    <rect rx="10" height="40" width="655" y="1029" x="20" fill="#ffffff"/>
    <rect rx="10" stroke="null" height="30" width="100" y="1034" x="27.5" stroke-width="0" fill="#779953"/>
    <rect rx="10" stroke="null" height="30" width="197" y="1034" x="133" stroke-width="0" fill="#f6f6f6"/>
    <rect rx="10" stroke="null" height="30" width="197" y="1034" x="472" stroke-width="0" fill="#f6f6f6"/>
    <rect rx="10" stroke="null" height="30" width="100" y="1034" x="366" stroke-width="0" fill="#779953"/>
    <rect rx="10" height="40" width="655" y="1074" x="20" fill="#ffffff"/>
    <rect rx="10" stroke="null" height="30" width="100" y="1079" x="28" stroke-width="0" fill="#779953"/>
    <rect rx="10" stroke="null" height="30" width="197" y="1079" x="133" stroke-width="0" fill="#f6f6f6"/>
   </g>
   <text xml:space="preserve" text-anchor="start" font-family="'Roboto Mono'" font-size="24" stroke-width="0" y="890" x="275.98438" fill="#323232">${W_0}</text>
   <g>
    <text xml:space="preserve" text-anchor="start" font-family="'Roboto Mono'" font-size="14" stroke-width="0" y="930" x="138.5" fill="#323232">${name1_2}</text>
    <text xml:space="preserve" text-anchor="start" font-family="'Roboto Mono'" font-size="14" stroke-width="0" y="930" x="46" fill="#f6f6f6">Ведучий</text>
    <text xml:space="preserve" text-anchor="start" font-family="'Roboto Mono'" font-size="14" stroke-width="0" y="930" x="482" fill="#323232">${name1_3}</text>
    <text xml:space="preserve" text-anchor="start" font-family="'Roboto Mono'" font-size="14" stroke-width="0" y="930" x="396" fill="#f6f6f6">Пісня</text>
   </g>
   <g>
    <text xml:space="preserve" text-anchor="start" font-family="'Roboto Mono'" font-size="14" stroke-width="0" y="974" x="138.5" fill="#323232">${name1_4}</text>
    <text xml:space="preserve" text-anchor="start" font-family="'Roboto Mono'" font-size="14" stroke-width="0" y="974" x="40" stroke="null" fill="#f6f6f6">Промовець</text>
    <text xml:space="preserve" text-anchor="start" font-family="'Roboto Mono'" font-size="14" y="1010" x="139" stroke-width="0" stroke="null" fill="#323232">${name1_5}</text>
    <text xml:space="preserve" text-anchor="start" font-family="'Roboto Mono'" font-size="14" stroke-width="0" y="1010" x="60" fill="#f6f6f6">Тема</text>
   </g>
   <g>
    <text xml:space="preserve" text-anchor="start" font-family="'Roboto Mono'" font-size="14" stroke-width="0" y="1054" x="44" fill="#f6f6f6">Вивчення</text>
    <text xml:space="preserve" text-anchor="start" font-family="'Roboto Mono'" font-size="14" stroke-width="0" y="1054" x="139.5" fill="#323232">${name1_6}</text>
    <text xml:space="preserve" text-anchor="start" font-family="'Roboto Mono'" font-size="14" stroke-width="0" y="1054" x="478.5" fill="#323232">${name1_7}</text>
    <text xml:space="preserve" text-anchor="start" font-family="'Roboto Mono'" font-size="14" stroke-width="0" y="1054" x="392" fill="#f6f6f6">Читець</text>
   </g>
   <g>
    <text xml:space="preserve" text-anchor="start" font-family="'Roboto Mono'" font-size="14" stroke-width="0" y="1099" x="48" fill="#f6f6f6">Молитва</text>
    <text xml:space="preserve" text-anchor="start" font-family="'Roboto Mono'" font-size="14" stroke-width="0" y="1099" x="138.5" fill="#323232">${name1_8}</text>
   </g>
  </g>

 </g>
</svg>