<svg width="695" height="255" xmlns="http://www.w3.org/2000/svg" version="1.1">
 <g>
  <title>Layer 1</title>
  <rect stroke="null" id="svg_1" height="255" width="695" y="0" x="0" fill="#ffffff"/>
  <rect rx="10" id="svg_9" height="235" width="675" y="10" x="10" fill="#f6f6f6"/>
  <text font-style="normal" font-weight="normal" xml:space="preserve" text-anchor="start" font-family="'Roboto Mono'" font-size="24" stroke-width="0" id="svg_10" y="50" x="275.98438" fill="#323232">${name1_1}</text>
  <rect rx="10" id="svg_11" height="40" width="655" y="198" x="20" fill="#ffffff"/>
  <rect rx="10" id="svg_12" height="40" width="655" y="65" x="20" fill="#ffffff"/>
  <rect rx="10" id="svg_13" height="40" width="655" y="109" x="20" fill="#ffffff"/>
  <rect rx="10" id="svg_14" height="40" width="655" y="153" x="20" fill="#ffffff"/>
  <rect rx="10" stroke="null" id="svg_15" height="30" width="30" y="203" x="28" stroke-width="0" fill="#779953"/>
  <rect rx="10" stroke="null" id="svg_14" height="30" width="120" y="203" x="61.5" stroke-width="0" fill="#f6f6f6"/>
  <text xml:space="preserve" text-anchor="start" font-family="'Roboto Mono'" font-size="14" stroke-width="0" id="svg_17" y="223" x="36" fill="#f6f6f6">М.</text>
  <text xml:space="preserve" text-anchor="start" font-family="'Roboto Mono'" font-size="14" stroke-width="0" id="svg_18" y="223" x="67" fill="#323232">${name1_7}</text>
  <rect rx="10" stroke="null" id="svg_20" height="30" width="30" y="158" x="188" stroke-width="0" fill="#779953"/>
  <rect rx="10" stroke="null" id="svg_21" height="30" width="120" y="158" x="222" stroke-width="0" fill="#f6f6f6"/>
  <text xml:space="preserve" text-anchor="start" font-family="'Roboto Mono'" font-size="14" stroke-width="0" id="svg_22" y="178" x="197" fill="#f6f6f6">Ч.</text>
  <text xml:space="preserve" text-anchor="start" font-family="'Roboto Mono'" font-size="14" stroke-width="0" id="svg_23" y="178" x="227.5" fill="#323232">${name1_6}</text>
  <rect rx="10" stroke="null" id="svg_25" height="30" width="30" y="158" x="27.5" stroke-width="0" fill="#779953"/>
  <rect rx="10" stroke="null" id="svg_26" height="30" width="120" y="158" x="61.5" stroke-width="0" fill="#f6f6f6"/>
  <text xml:space="preserve" text-anchor="start" font-family="'Roboto Mono'" font-size="14" stroke-width="0" id="svg_27" y="178" x="67" fill="#323232">${name1_5}</text>
  <text xml:space="preserve" text-anchor="start" font-family="'Roboto Mono'" font-size="14" stroke-width="0" id="svg_28" y="178" x="36.5" fill="#f6f6f6">И.</text>
  <rect rx="10" stroke="null" id="svg_30" height="30" width="480" y="114" x="187.5" stroke-width="0" fill="#f6f6f6"/>
  <text xml:space="preserve" text-anchor="start" font-family="'Roboto Mono'" font-size="14" id="svg_31" y="134" x="195" stroke-width="0" stroke="null" fill="#323232">${name1_4}</text>
  <rect rx="10" stroke="null" id="svg_33" height="30" width="30" y="114" x="27.5" stroke-width="0" fill="#779953"/>
  <rect rx="10" stroke="null" id="svg_34" height="30" width="120" y="114" x="61.5" stroke-width="0" fill="#f6f6f6"/>
  <text xml:space="preserve" text-anchor="start" font-family="'Roboto Mono'" font-size="14" stroke-width="0" id="svg_35" y="134" x="67" fill="#323232">${name1_3}</text>
  <text xml:space="preserve" text-anchor="start" font-family="'Roboto Mono'" font-size="14" stroke-width="0" id="svg_36" y="134" x="36" fill="#f6f6f6">Д.</text>
  <rect rx="10" stroke="null" id="svg_38" height="30" width="30" y="70" x="27.5" stroke-width="0" fill="#779953"/>
  <rect rx="10" stroke="null" id="svg_39" height="30" width="120" y="70" x="61.5" stroke-width="0" fill="#f6f6f6"/>
  <text xml:space="preserve" text-anchor="start" font-family="'Roboto Mono'" font-size="14" stroke-width="0" id="svg_40" y="90" x="36.5" fill="#f6f6f6">В.</text>
  <text xml:space="preserve" text-anchor="start" font-family="'Roboto Mono'" font-size="14" stroke-width="0" id="svg_41" y="90" x="67" fill="#323232">${name1_2}</text>
 </g>

</svg>