<svg width="1380" height="1130" xmlns="http://www.w3.org/2000/svg" version="1.1">
 <g>
  <title>Layer 1</title>
  <rect stroke-width="0" id="svg_2" height="1130" width="1380" y="0" x="0" stroke="#000" fill="#fff"/>
  <g id="svg_1">
   <rect fill="#f6f6f6" x="695" y="10" width="675" height="550" id="svg_230" rx="10"/>
   <rect fill="#ffffff" x="706" y="421" width="655" height="40" id="svg_244" rx="10"/>
  </g>
  <rect fill="#ffffff" x="706" y="243" width="655" height="40" id="svg_269" rx="10"/>
  <rect fill="#ffffff" x="706" y="288" width="655" height="40" id="svg_264" rx="10"/>
  <rect fill="#f6f6f6" stroke-width="0" x="747.5" y="293" width="608" height="30" id="svg_266" stroke="null" rx="10"/>
  <text fill="#f6f6f6" x="36.5" y="335" id="svg_98" stroke-width="0" font-size="16" font-family="'Roboto Mono'" text-anchor="start" xml:space="preserve">В.</text>
  <text fill="#f6f6f6" x="34" y="357" id="svg_36" stroke-width="0" font-size="16" font-family="'Roboto Mono'" text-anchor="start" xml:space="preserve">Н3</text>
  <g id="svg_213">
   <rect fill="#f6f6f6" x="10" y="10" width="675" height="550" id="svg_149" rx="10"/>
   <g id="svg_154">
    <rect fill="#ffffff" x="21" y="511" width="655" height="40" id="svg_150" rx="10"/>
    <rect fill="#a14a2e" stroke-width="0" x="29" y="516" width="30" height="30" id="svg_151" stroke="null" rx="10"/>
    <rect fill="#f6f6f6" stroke-width="0" x="62.5" y="516" width="120" height="30" id="svg_152" stroke="null" rx="10"/>
    <text fill="#f6f6f6" x="37" y="536" id="svg_153" stroke-width="0" font-size="16" font-family="'Roboto Mono'" text-anchor="start" xml:space="preserve">М.</text>
   </g>
   <g id="svg_162">
    <rect fill="#ffffff" x="21" y="466" width="655" height="40" id="svg_155" rx="10"/>
    <rect fill="#a14a2e" stroke-width="0" x="29" y="471" width="30" height="30" id="svg_156" stroke="null" rx="10"/>
    <rect fill="#f6f6f6" stroke-width="0" x="63" y="471" width="120" height="30" id="svg_157" stroke="null" rx="10"/>
    <text fill="#f6f6f6" x="38" y="491" id="svg_158" stroke-width="0" font-size="16" font-family="'Roboto Mono'" text-anchor="start" xml:space="preserve">И.</text>
    <rect fill="#a14a2e" stroke-width="0" x="189.5" y="471" width="30" height="30" id="svg_159" stroke="null" rx="10"/>
    <rect fill="#f6f6f6" stroke-width="0" x="223.5" y="471" width="120" height="30" id="svg_160" stroke="null" rx="10"/>
    <text fill="#f6f6f6" x="198.5" y="491" id="svg_161" stroke-width="0" font-size="16" font-family="'Roboto Mono'" text-anchor="start" xml:space="preserve">Ч.</text>
   </g>
   <g id="svg_173">
    <rect fill="#ffffff" x="21" y="421" width="655" height="40" id="svg_163" rx="10"/>
    <rect fill="#f6f6f6" stroke-width="0" x="383.5" y="426" width="120" height="30" id="svg_164" stroke="null" rx="10"/>
    <rect fill="#a14a2e" stroke-width="0" x="29" y="426" width="30" height="30" id="svg_165" stroke="null" rx="10"/>
    <rect fill="#f6f6f6" stroke-width="0" x="63" y="426" width="120" height="30" id="svg_166" stroke="null" rx="10"/>
    <text fill="#f6f6f6" x="36" y="446" id="svg_167" stroke-width="0" font-size="16" font-family="'Roboto Mono'" text-anchor="start" xml:space="preserve">П1</text>
    <rect fill="#a14a2e" stroke-width="0" x="189.5" y="426" width="30" height="30" id="svg_168" stroke="null" rx="10"/>
    <rect fill="#f6f6f6" stroke-width="0" x="223.5" y="426" width="120" height="30" id="svg_169" stroke="null" rx="10"/>
    <text fill="#f6f6f6" x="196" y="446" id="svg_170" stroke-width="0" font-size="16" font-family="'Roboto Mono'" text-anchor="start" xml:space="preserve">П2</text>
    <rect fill="#a14a2e" stroke-width="0" x="349.5" y="426" width="30" height="30" id="svg_171" stroke="null" rx="10"/>
    <text fill="#f6f6f6" x="356" y="446" id="svg_172" stroke-width="0" font-size="16" font-family="'Roboto Mono'" text-anchor="start" xml:space="preserve">П3</text>
   </g>
   <g id="svg_177">
    <rect fill="#ffffff" x="21" y="332" width="655" height="40" id="svg_174" rx="10"/>
    <rect fill="#c5ba59" stroke-width="0" x="28.5" y="337" width="30" height="30" id="svg_175" stroke="null" rx="10"/>
    <rect fill="#f6f6f6" stroke-width="0" x="62.5" y="337" width="608" height="30" id="svg_176" stroke="null" rx="10"/>
   </g>
   <g id="svg_182">
    <rect fill="#ffffff" x="21" y="376" width="655" height="40" id="svg_178" rx="10"/>
    <rect fill="#c5ba59" stroke-width="0" x="28.5" y="381" width="30" height="30" id="svg_179" stroke="null" rx="10"/>
    <rect fill="#f6f6f6" stroke-width="0" x="62.5" y="381" width="608" height="30" id="svg_180" stroke="null" rx="10"/>
    <text fill="#f6f6f6" x="35" y="401" id="svg_181" stroke-width="0" font-size="16" font-family="'Roboto Mono'" text-anchor="start" xml:space="preserve">Н4</text>
   </g>
   <g id="svg_187">
    <rect fill="#ffffff" x="21" y="288" width="655" height="40" id="svg_183" rx="10"/>
    <rect fill="#c5ba59" stroke-width="0" x="28.5" y="293" width="30" height="30" id="svg_184" stroke="null" rx="10"/>
    <rect fill="#f6f6f6" stroke-width="0" x="62.5" y="293" width="608" height="30" id="svg_185" stroke="null" rx="10"/>
    <text fill="#f6f6f6" x="35" y="313" id="svg_186" stroke-width="0" font-size="16" font-family="'Roboto Mono'" text-anchor="start" xml:space="preserve">Н2</text>
   </g>
   <g id="svg_192">
    <rect fill="#ffffff" x="21" y="243" width="655" height="40" id="svg_188" rx="10"/>
    <rect fill="#c5ba59" stroke-width="0" x="29" y="248" width="30" height="30" id="svg_189" stroke="null" rx="10"/>
    <rect fill="#f6f6f6" stroke-width="0" x="62.5" y="248" width="608" height="30" id="svg_190" stroke="null" rx="10"/>
    <text fill="#f6f6f6" x="35" y="268" id="svg_191" stroke-width="0" font-size="16" font-family="'Roboto Mono'" text-anchor="start" xml:space="preserve">Н1</text>
   </g>
   <g id="svg_197">
    <rect fill="#ffffff" x="21" y="198" width="655" height="40" id="svg_193" rx="10"/>
    <rect fill="#7c7c7c" stroke-width="0" x="29" y="203" width="30" height="30" id="svg_194" stroke="null" rx="10"/>
    <rect fill="#f6f6f6" stroke-width="0" x="62.5" y="203" width="120" height="30" id="svg_195" stroke="null" rx="10"/>
    <text fill="#f6f6f6" x="37" y="223" id="svg_196" stroke-width="0" font-size="16" font-family="'Roboto Mono'" text-anchor="start" xml:space="preserve">Ч.</text>
   </g>
   <g id="svg_202">
    <rect fill="#ffffff" x="20" y="153" width="655" height="40" id="svg_198" rx="10"/>
    <rect fill="#7c7c7c" stroke-width="0" x="27.5" y="158" width="30" height="30" id="svg_199" stroke="null" rx="10"/>
    <rect fill="#f6f6f6" stroke-width="0" x="61.5" y="158" width="120" height="30" id="svg_200" stroke="null" rx="10"/>
    <text fill="#f6f6f6" x="36.5" y="178" id="svg_201" stroke-width="0" font-size="16" font-family="'Roboto Mono'" text-anchor="start" xml:space="preserve">Ж.</text>
   </g>
   <g id="svg_207">
    <rect fill="#ffffff" x="20" y="109" width="655" height="40" id="svg_203" rx="10"/>
    <rect fill="#7c7c7c" stroke-width="0" x="27.5" y="114" width="30" height="30" id="svg_204" stroke="null" rx="10"/>
    <rect fill="#f6f6f6" stroke-width="0" x="61.5" y="114" width="120" height="30" id="svg_205" stroke="null" rx="10"/>
    <text fill="#f6f6f6" x="36" y="134" id="svg_206" stroke-width="0" font-size="16" font-family="'Roboto Mono'" text-anchor="start" xml:space="preserve">Р.</text>
   </g>
   <g id="svg_212">
    <rect fill="#ffffff" x="20" y="65" width="655" height="40" id="svg_208" rx="10"/>
    <rect fill="#7c7c7c" stroke-width="0" x="27.5" y="70" width="30" height="30" id="svg_209" stroke="null" rx="10"/>
    <rect fill="#f6f6f6" stroke-width="0" x="61.5" y="70" width="120" height="30" id="svg_210" stroke="null" rx="10"/>
    <text fill="#f6f6f6" x="36.5" y="90" id="svg_211" stroke-width="0" font-size="16" font-family="'Roboto Mono'" text-anchor="start" xml:space="preserve">В.</text>
   </g>
  </g>
  <text fill="#323232" x="68" y="401" id="svg_214" stroke-width="0" font-size="14" font-family="'Roboto Mono'" text-anchor="start" xml:space="preserve">${name_2_1_9}</text>
  <text fill="#323232" x="68" y="357" id="svg_215" stroke-width="0" font-size="14" font-family="'Roboto Mono'" text-anchor="start" xml:space="preserve">${name_2_1_8}</text>
  <text fill="#323232" x="68" y="313" id="svg_216" stroke-width="0" font-size="14" font-family="'Roboto Mono'" text-anchor="start" xml:space="preserve">${name_2_1_7}</text>
  <text fill="#323232" x="68" y="268" id="svg_217" stroke-width="0" font-size="14" font-family="'Roboto Mono'" text-anchor="start" xml:space="preserve">${name_2_1_6}</text>
  <text fill="#323232" x="68" y="178" id="svg_218" stroke-width="0" font-size="14" font-family="'Roboto Mono'" text-anchor="start" xml:space="preserve">${name_2_1_4}</text>
  <text fill="#323232" x="68" y="134" id="svg_219" stroke-width="0" font-size="14" font-family="'Roboto Mono'" text-anchor="start" xml:space="preserve">${name_2_1_3}</text>
  <text fill="#323232" x="68" y="90" id="svg_220" stroke-width="0" font-size="14" font-family="'Roboto Mono'" text-anchor="start" xml:space="preserve">${name_2_1_2}</text>
  <text fill="#323232" x="68.5" y="491" id="svg_221" stroke-width="0" font-size="14" font-family="'Roboto Mono'" text-anchor="start" xml:space="preserve">${name_2_1_13}</text>
  <text fill="#323232" x="229" y="491" id="svg_222" stroke-width="0" font-size="14" font-family="'Roboto Mono'" text-anchor="start" xml:space="preserve">${name_2_1_14}</text>
  <text fill="#323232" x="389" y="446" id="svg_223" stroke-width="0" font-size="14" font-family="'Roboto Mono'" text-anchor="start" xml:space="preserve">${name_2_1_12}</text>
  <text fill="#323232" x="68.5" y="446" id="svg_224" stroke-width="0" font-size="14" font-family="'Roboto Mono'" text-anchor="start" xml:space="preserve">${name_2_1_10}</text>
  <text fill="#323232" x="229" y="446" id="svg_225" stroke-width="0" font-size="14" font-family="'Roboto Mono'" text-anchor="start" xml:space="preserve">${name_2_1_11}</text>
  <text fill="#323232" x="68" y="223" id="svg_226" stroke-width="0" font-size="14" font-family="'Roboto Mono'" text-anchor="start" xml:space="preserve">${name_2_1_5}</text>
  <text fill="#323232" x="68" y="536" id="svg_227" stroke-width="0" font-size="14" font-family="'Roboto Mono'" text-anchor="start" xml:space="preserve">${name_2_1_15}</text>
  <text fill="#323232" x="276.98438" y="50" id="svg_228" stroke-width="0" font-size="24" font-family="'Roboto Mono'" text-anchor="start" xml:space="preserve" font-weight="normal" font-style="normal">${name_2_1_1}</text>
  <text xml:space="preserve" text-anchor="start" font-family="'Roboto Mono'" font-size="16" id="svg_395" y="358" x="34" stroke-width="0" fill="#f6f6f6">Н3</text>
  <rect fill="#f6f6f6" stroke-width="0" x="1068.5" y="426" width="120" height="30" id="svg_245" stroke="null" rx="10"/>
  <rect fill="#a14a2e" stroke-width="0" x="714" y="426" width="30" height="30" id="svg_246" stroke="null" rx="10"/>
  <rect fill="#f6f6f6" stroke-width="0" x="748" y="426" width="120" height="30" id="svg_247" stroke="null" rx="10"/>
  <text fill="#f6f6f6" x="721" y="446" id="svg_248" stroke-width="0" font-size="16" font-family="'Roboto Mono'" text-anchor="start" xml:space="preserve">П1</text>
  <rect fill="#a14a2e" stroke-width="0" x="874.5" y="426" width="30" height="30" id="svg_249" stroke="null" rx="10"/>
  <rect fill="#f6f6f6" stroke-width="0" x="908.5" y="426" width="120" height="30" id="svg_250" stroke="null" rx="10"/>
  <text fill="#f6f6f6" x="881" y="446" id="svg_251" stroke-width="0" font-size="16" font-family="'Roboto Mono'" text-anchor="start" xml:space="preserve">П2</text>
  <rect fill="#a14a2e" stroke-width="0" x="1034.5" y="426" width="30" height="30" id="svg_252" stroke="null" rx="10"/>
  <text fill="#f6f6f6" x="1041" y="446" id="svg_253" stroke-width="0" font-size="16" font-family="'Roboto Mono'" text-anchor="start" xml:space="preserve">П3</text>
  <text fill="#323232" x="753" y="313" id="svg_297" stroke-width="0" font-size="14" font-family="'Roboto Mono'" text-anchor="start" xml:space="preserve">${name_2_2_7}</text>
  <rect fill="#f6f6f6" stroke-width="0" x="747.5" y="248" width="608" height="30" id="svg_271" stroke="null" rx="10"/>
  <text fill="#323232" x="753" y="268" id="svg_298" stroke-width="0" font-size="14" font-family="'Roboto Mono'" text-anchor="start" xml:space="preserve">${name_2_2_6}</text>
  <rect fill="#ffffff" x="705" y="153" width="655" height="40" id="svg_279" rx="10"/>
  <rect fill="#f6f6f6" stroke-width="0" x="746.5" y="158" width="120" height="30" id="svg_281" stroke="null" rx="10"/>
  <text fill="#323232" x="753" y="178" id="svg_299" stroke-width="0" font-size="14" font-family="'Roboto Mono'" text-anchor="start" xml:space="preserve">${name_2_2_4}</text>
  <rect fill="#ffffff" x="706" y="198" width="655" height="40" id="svg_274" rx="10"/>
  <rect fill="#f6f6f6" stroke-width="0" x="747.5" y="203" width="120" height="30" id="svg_276" stroke="null" rx="10"/>
  <text fill="#323232" x="753" y="223" id="svg_307" stroke-width="0" font-size="14" font-family="'Roboto Mono'" text-anchor="start" xml:space="preserve">${name_2_2_5}</text>
  <g id="svg_235">
   <rect fill="#ffffff" x="706" y="511" width="655" height="40" id="svg_231" rx="10"/>
   <rect fill="#a14a2e" stroke-width="0" x="714" y="516" width="30" height="30" id="svg_232" stroke="null" rx="10"/>
   <rect fill="#f6f6f6" stroke-width="0" x="747.5" y="516" width="120" height="30" id="svg_233" stroke="null" rx="10"/>
   <text fill="#f6f6f6" x="722" y="536" id="svg_234" stroke-width="0" font-size="16" font-family="'Roboto Mono'" text-anchor="start" xml:space="preserve">М.</text>
  </g>
  <text fill="#323232" x="753" y="536" id="svg_308" stroke-width="0" font-size="14" font-family="'Roboto Mono'" text-anchor="start" xml:space="preserve">${name_2_2_15}</text>
  <g id="svg_243">
   <rect fill="#ffffff" x="706" y="466" width="655" height="40" id="svg_236" rx="10"/>
   <rect fill="#a14a2e" stroke-width="0" x="714" y="471" width="30" height="30" id="svg_237" stroke="null" rx="10"/>
   <rect fill="#f6f6f6" stroke-width="0" x="748" y="471" width="120" height="30" id="svg_238" stroke="null" rx="10"/>
   <text fill="#f6f6f6" x="723" y="491" id="svg_239" stroke-width="0" font-size="16" font-family="'Roboto Mono'" text-anchor="start" xml:space="preserve">И.</text>
   <rect fill="#a14a2e" stroke-width="0" x="874.5" y="471" width="30" height="30" id="svg_240" stroke="null" rx="10"/>
   <rect fill="#f6f6f6" stroke-width="0" x="908.5" y="471" width="120" height="30" id="svg_241" stroke="null" rx="10"/>
   <text fill="#f6f6f6" x="883.5" y="491" id="svg_242" stroke-width="0" font-size="16" font-family="'Roboto Mono'" text-anchor="start" xml:space="preserve">Ч.</text>
  </g>
  <g id="svg_258">
   <rect fill="#ffffff" x="706" y="332" width="655" height="40" id="svg_255" rx="10"/>
   <rect fill="#c5ba59" stroke-width="0" x="713.5" y="337" width="30" height="30" id="svg_256" stroke="null" rx="10"/>
   <rect fill="#f6f6f6" stroke-width="0" x="747.5" y="337" width="608" height="30" id="svg_257" stroke="null" rx="10"/>
  </g>
  <g id="svg_263">
   <rect fill="#ffffff" x="706" y="376" width="655" height="40" id="svg_259" rx="10"/>
   <rect fill="#c5ba59" stroke-width="0" x="713.5" y="381" width="30" height="30" id="svg_260" stroke="null" rx="10"/>
   <rect fill="#f6f6f6" stroke-width="0" x="747.5" y="381" width="608" height="30" id="svg_261" stroke="null" rx="10"/>
   <text fill="#f6f6f6" x="720" y="401" id="svg_262" stroke-width="0" font-size="16" font-family="'Roboto Mono'" text-anchor="start" xml:space="preserve">Н4</text>
  </g>
  <rect fill="#c5ba59" stroke-width="0" x="713.5" y="293" width="30" height="30" id="svg_265" stroke="null" rx="10"/>
  <text fill="#f6f6f6" x="720" y="313" id="svg_267" stroke-width="0" font-size="16" font-family="'Roboto Mono'" text-anchor="start" xml:space="preserve">Н2</text>
  <rect fill="#c5ba59" stroke-width="0" x="714" y="248" width="30" height="30" id="svg_270" stroke="null" rx="10"/>
  <text fill="#f6f6f6" x="720" y="268" id="svg_272" stroke-width="0" font-size="16" font-family="'Roboto Mono'" text-anchor="start" xml:space="preserve">Н1</text>
  <rect fill="#7c7c7c" stroke-width="0" x="714" y="203" width="30" height="30" id="svg_275" stroke="null" rx="10"/>
  <text fill="#f6f6f6" x="722" y="223" id="svg_277" stroke-width="0" font-size="16" font-family="'Roboto Mono'" text-anchor="start" xml:space="preserve">Ч.</text>
  <rect fill="#7c7c7c" stroke-width="0" x="712.5" y="158" width="30" height="30" id="svg_280" stroke="null" rx="10"/>
  <text fill="#f6f6f6" x="721.5" y="178" id="svg_282" stroke-width="0" font-size="16" font-family="'Roboto Mono'" text-anchor="start" xml:space="preserve">Ж.</text>
  <g id="svg_288">
   <rect fill="#ffffff" x="705" y="109" width="655" height="40" id="svg_284" rx="10"/>
   <rect fill="#7c7c7c" stroke-width="0" x="712.5" y="114" width="30" height="30" id="svg_285" stroke="null" rx="10"/>
   <rect fill="#f6f6f6" stroke-width="0" x="746.5" y="114" width="120" height="30" id="svg_286" stroke="null" rx="10"/>
   <text fill="#f6f6f6" x="721" y="134" id="svg_287" stroke-width="0" font-size="16" font-family="'Roboto Mono'" text-anchor="start" xml:space="preserve">Р.</text>
  </g>
  <g id="svg_293">
   <rect fill="#ffffff" x="705" y="65" width="655" height="40" id="svg_289" rx="10"/>
   <rect fill="#7c7c7c" stroke-width="0" x="712.5" y="70" width="30" height="30" id="svg_290" stroke="null" rx="10"/>
   <rect fill="#f6f6f6" stroke-width="0" x="746.5" y="70" width="120" height="30" id="svg_291" stroke="null" rx="10"/>
   <text fill="#f6f6f6" x="721.5" y="90" id="svg_292" stroke-width="0" font-size="16" font-family="'Roboto Mono'" text-anchor="start" xml:space="preserve">В.</text>
  </g>
  <text fill="#323232" x="753" y="401" id="svg_295" stroke-width="0" font-size="14" font-family="'Roboto Mono'" text-anchor="start" xml:space="preserve">${name_2_2_9}</text>
  <text fill="#323232" x="753" y="357" id="svg_296" stroke-width="0" font-size="14" font-family="'Roboto Mono'" text-anchor="start" xml:space="preserve">${name_2_2_8}</text>
  <text fill="#323232" x="753" y="134" id="svg_300" stroke-width="0" font-size="14" font-family="'Roboto Mono'" text-anchor="start" xml:space="preserve">${name_2_2_3}</text>
  <text fill="#323232" x="753" y="90" id="svg_301" stroke-width="0" font-size="14" font-family="'Roboto Mono'" text-anchor="start" xml:space="preserve">${name_2_2_2}</text>
  <text fill="#323232" x="753.5" y="491" id="svg_302" stroke-width="0" font-size="14" font-family="'Roboto Mono'" text-anchor="start" xml:space="preserve">${name_2_2_13}</text>
  <text fill="#323232" x="914" y="491" id="svg_303" stroke-width="0" font-size="14" font-family="'Roboto Mono'" text-anchor="start" xml:space="preserve">${name_2_2_14}</text>
  <text fill="#323232" x="1074" y="446" id="svg_304" stroke-width="0" font-size="14" font-family="'Roboto Mono'" text-anchor="start" xml:space="preserve">${name_2_2_12}</text>
  <text fill="#323232" x="753.5" y="446" id="svg_305" stroke-width="0" font-size="14" font-family="'Roboto Mono'" text-anchor="start" xml:space="preserve">${name_2_2_10}</text>
  <text fill="#323232" x="914" y="446" id="svg_306" stroke-width="0" font-size="14" font-family="'Roboto Mono'" text-anchor="start" xml:space="preserve">${name_2_2_11}</text>
  <text fill="#323232" x="961.98438" y="50" id="svg_309" stroke-width="0" font-size="24" font-family="'Roboto Mono'" text-anchor="start" xml:space="preserve" font-weight="normal" font-style="normal">${name_2_2_1}</text>
  <text xml:space="preserve" text-anchor="start" font-family="'Roboto Mono'" font-size="16" id="svg_394" y="358" x="720" stroke-width="0" fill="#f6f6f6">Н3</text>
  <g id="svg_402">
   <g id="svg_375">
    <rect fill="#f6f6f6" x="10" y="570" width="675" height="550" id="svg_311" rx="10"/>
    <g id="svg_316">
     <rect fill="#ffffff" x="21" y="1071" width="655" height="40" id="svg_312" rx="10"/>
     <rect fill="#a14a2e" stroke-width="0" x="29" y="1076" width="30" height="30" id="svg_313" stroke="null" rx="10"/>
     <rect fill="#f6f6f6" stroke-width="0" x="62.5" y="1076" width="120" height="30" id="svg_314" stroke="null" rx="10"/>
     <text fill="#f6f6f6" x="37" y="1096" id="svg_315" stroke-width="0" font-size="16" font-family="'Roboto Mono'" text-anchor="start" xml:space="preserve">М.</text>
    </g>
    <g id="svg_324">
     <rect fill="#ffffff" x="21" y="1026" width="655" height="40" id="svg_317" rx="10"/>
     <rect fill="#a14a2e" stroke-width="0" x="29" y="1031" width="30" height="30" id="svg_318" stroke="null" rx="10"/>
     <rect fill="#f6f6f6" stroke-width="0" x="63" y="1031" width="120" height="30" id="svg_319" stroke="null" rx="10"/>
     <text fill="#f6f6f6" x="38" y="1051" id="svg_320" stroke-width="0" font-size="16" font-family="'Roboto Mono'" text-anchor="start" xml:space="preserve">И.</text>
     <rect fill="#a14a2e" stroke-width="0" x="189.5" y="1031" width="30" height="30" id="svg_321" stroke="null" rx="10"/>
     <rect fill="#f6f6f6" stroke-width="0" x="223.5" y="1031" width="120" height="30" id="svg_322" stroke="null" rx="10"/>
     <text fill="#f6f6f6" x="198.5" y="1051" id="svg_323" stroke-width="0" font-size="16" font-family="'Roboto Mono'" text-anchor="start" xml:space="preserve">Ч.</text>
    </g>
    <g id="svg_335">
     <rect fill="#ffffff" x="21" y="981" width="655" height="40" id="svg_325" rx="10"/>
     <rect fill="#f6f6f6" stroke-width="0" x="383.5" y="986" width="120" height="30" id="svg_326" stroke="null" rx="10"/>
     <rect fill="#a14a2e" stroke-width="0" x="29" y="986" width="30" height="30" id="svg_327" stroke="null" rx="10"/>
     <rect fill="#f6f6f6" stroke-width="0" x="63" y="986" width="120" height="30" id="svg_328" stroke="null" rx="10"/>
     <text fill="#f6f6f6" x="36" y="1006" id="svg_329" stroke-width="0" font-size="16" font-family="'Roboto Mono'" text-anchor="start" xml:space="preserve">П1</text>
     <rect fill="#a14a2e" stroke-width="0" x="189.5" y="986" width="30" height="30" id="svg_330" stroke="null" rx="10"/>
     <rect fill="#f6f6f6" stroke-width="0" x="223.5" y="986" width="120" height="30" id="svg_331" stroke="null" rx="10"/>
     <text fill="#f6f6f6" x="196" y="1006" id="svg_332" stroke-width="0" font-size="16" font-family="'Roboto Mono'" text-anchor="start" xml:space="preserve">П2</text>
     <rect fill="#a14a2e" stroke-width="0" x="349.5" y="986" width="30" height="30" id="svg_333" stroke="null" rx="10"/>
     <text fill="#f6f6f6" x="356" y="1006" id="svg_334" stroke-width="0" font-size="16" font-family="'Roboto Mono'" text-anchor="start" xml:space="preserve">П3</text>
    </g>
    <g id="svg_339">
     <rect fill="#ffffff" x="21" y="892" width="655" height="40" id="svg_336" rx="10"/>
     <rect fill="#c5ba59" stroke-width="0" x="28.5" y="897" width="30" height="30" id="svg_337" stroke="null" rx="10"/>
     <rect fill="#f6f6f6" stroke-width="0" x="62.5" y="897" width="608" height="30" id="svg_338" stroke="null" rx="10"/>
    </g>
    <g id="svg_344">
     <rect fill="#ffffff" x="21" y="936" width="655" height="40" id="svg_340" rx="10"/>
     <rect fill="#c5ba59" stroke-width="0" x="28.5" y="941" width="30" height="30" id="svg_341" stroke="null" rx="10"/>
     <rect fill="#f6f6f6" stroke-width="0" x="62.5" y="941" width="608" height="30" id="svg_342" stroke="null" rx="10"/>
     <text fill="#f6f6f6" x="35" y="961" id="svg_343" stroke-width="0" font-size="16" font-family="'Roboto Mono'" text-anchor="start" xml:space="preserve">Н4</text>
    </g>
    <g id="svg_349">
     <rect fill="#ffffff" x="21" y="848" width="655" height="40" id="svg_345" rx="10"/>
     <rect fill="#c5ba59" stroke-width="0" x="28.5" y="853" width="30" height="30" id="svg_346" stroke="null" rx="10"/>
     <rect fill="#f6f6f6" stroke-width="0" x="62.5" y="853" width="608" height="30" id="svg_347" stroke="null" rx="10"/>
     <text fill="#f6f6f6" x="35" y="873" id="svg_348" stroke-width="0" font-size="16" font-family="'Roboto Mono'" text-anchor="start" xml:space="preserve">Н2</text>
    </g>
    <g id="svg_354">
     <rect fill="#ffffff" x="21" y="803" width="655" height="40" id="svg_350" rx="10"/>
     <rect fill="#c5ba59" stroke-width="0" x="29" y="808" width="30" height="30" id="svg_351" stroke="null" rx="10"/>
     <rect fill="#f6f6f6" stroke-width="0" x="62.5" y="808" width="608" height="30" id="svg_352" stroke="null" rx="10"/>
     <text fill="#f6f6f6" x="35" y="828" id="svg_353" stroke-width="0" font-size="16" font-family="'Roboto Mono'" text-anchor="start" xml:space="preserve">Н1</text>
    </g>
    <g id="svg_359">
     <rect fill="#ffffff" x="21" y="758" width="655" height="40" id="svg_355" rx="10"/>
     <rect fill="#7c7c7c" stroke-width="0" x="29" y="763" width="30" height="30" id="svg_356" stroke="null" rx="10"/>
     <rect fill="#f6f6f6" stroke-width="0" x="62.5" y="763" width="120" height="30" id="svg_357" stroke="null" rx="10"/>
     <text fill="#f6f6f6" x="37" y="783" id="svg_358" stroke-width="0" font-size="16" font-family="'Roboto Mono'" text-anchor="start" xml:space="preserve">Ч.</text>
    </g>
    <g id="svg_364">
     <rect fill="#ffffff" x="20" y="713" width="655" height="40" id="svg_360" rx="10"/>
     <rect fill="#7c7c7c" stroke-width="0" x="27.5" y="718" width="30" height="30" id="svg_361" stroke="null" rx="10"/>
     <rect fill="#f6f6f6" stroke-width="0" x="61.5" y="718" width="120" height="30" id="svg_362" stroke="null" rx="10"/>
     <text fill="#f6f6f6" x="36.5" y="738" id="svg_363" stroke-width="0" font-size="16" font-family="'Roboto Mono'" text-anchor="start" xml:space="preserve">Ж.</text>
    </g>
    <g id="svg_369">
     <rect fill="#ffffff" x="20" y="669" width="655" height="40" id="svg_365" rx="10"/>
     <rect fill="#7c7c7c" stroke-width="0" x="27.5" y="674" width="30" height="30" id="svg_366" stroke="null" rx="10"/>
     <rect fill="#f6f6f6" stroke-width="0" x="61.5" y="674" width="120" height="30" id="svg_367" stroke="null" rx="10"/>
     <text fill="#f6f6f6" x="36" y="694" id="svg_368" stroke-width="0" font-size="16" font-family="'Roboto Mono'" text-anchor="start" xml:space="preserve">Р.</text>
    </g>
    <g id="svg_374">
     <rect fill="#ffffff" x="20" y="625" width="655" height="40" id="svg_370" rx="10"/>
     <rect fill="#7c7c7c" stroke-width="0" x="27.5" y="630" width="30" height="30" id="svg_371" stroke="null" rx="10"/>
     <rect fill="#f6f6f6" stroke-width="0" x="61.5" y="630" width="120" height="30" id="svg_372" stroke="null" rx="10"/>
     <text fill="#f6f6f6" x="36.5" y="650" id="svg_373" stroke-width="0" font-size="16" font-family="'Roboto Mono'" text-anchor="start" xml:space="preserve">В.</text>
    </g>
   </g>
   <text fill="#323232" x="68" y="961" id="svg_376" stroke-width="0" font-size="14" font-family="'Roboto Mono'" text-anchor="start" xml:space="preserve">${name_2_3_9}</text>
   <text fill="#323232" x="68" y="917" id="svg_377" stroke-width="0" font-size="14" font-family="'Roboto Mono'" text-anchor="start" xml:space="preserve">${name_2_3_8}</text>
   <text fill="#323232" x="68" y="873" id="svg_378" stroke-width="0" font-size="14" font-family="'Roboto Mono'" text-anchor="start" xml:space="preserve">${name_2_3_7}</text>
   <text fill="#323232" x="68" y="828" id="svg_379" stroke-width="0" font-size="14" font-family="'Roboto Mono'" text-anchor="start" xml:space="preserve">${name_2_3_6}</text>
   <text fill="#323232" x="68" y="738" id="svg_380" stroke-width="0" font-size="14" font-family="'Roboto Mono'" text-anchor="start" xml:space="preserve">${name_2_3_4}</text>
   <text fill="#323232" x="68" y="694" id="svg_381" stroke-width="0" font-size="14" font-family="'Roboto Mono'" text-anchor="start" xml:space="preserve">${name_2_3_3}</text>
   <text fill="#323232" x="68" y="650" id="svg_382" stroke-width="0" font-size="14" font-family="'Roboto Mono'" text-anchor="start" xml:space="preserve">${name_2_3_2}</text>
   <text fill="#323232" x="68.5" y="1051" id="svg_383" stroke-width="0" font-size="14" font-family="'Roboto Mono'" text-anchor="start" xml:space="preserve">${name_2_3_13}</text>
   <text fill="#323232" x="229" y="1051" id="svg_384" stroke-width="0" font-size="14" font-family="'Roboto Mono'" text-anchor="start" xml:space="preserve">${name_2_3_14}</text>
   <text fill="#323232" x="389" y="1006" id="svg_385" stroke-width="0" font-size="14" font-family="'Roboto Mono'" text-anchor="start" xml:space="preserve">${name_2_3_12}</text>
   <text fill="#323232" x="68.5" y="1006" id="svg_386" stroke-width="0" font-size="14" font-family="'Roboto Mono'" text-anchor="start" xml:space="preserve">${name_2_3_10}</text>
   <text fill="#323232" x="229" y="1006" id="svg_387" stroke-width="0" font-size="14" font-family="'Roboto Mono'" text-anchor="start" xml:space="preserve">${name_2_3_11}</text>
   <text fill="#323232" x="68" y="783" id="svg_388" stroke-width="0" font-size="14" font-family="'Roboto Mono'" text-anchor="start" xml:space="preserve">${name_2_3_5}</text>
   <text fill="#323232" x="68" y="1096" id="svg_389" stroke-width="0" font-size="14" font-family="'Roboto Mono'" text-anchor="start" xml:space="preserve">${name_2_3_15}</text>
   <text fill="#323232" x="276.98438" y="610" id="svg_390" stroke-width="0" font-size="24" font-family="'Roboto Mono'" text-anchor="start" xml:space="preserve" font-weight="normal" font-style="normal">${name_2_3_1}</text>
   <text xml:space="preserve" text-anchor="start" font-family="'Roboto Mono'" font-size="16" id="svg_393" y="918" x="34" stroke-width="0" fill="#f6f6f6">Н3</text>
  </g>
  <g id="svg_403">
   <g id="svg_146">
    <rect fill="#f6f6f6" x="695" y="570" width="675" height="550" id="svg_9" rx="10"/>
    <g id="svg_129">
     <rect fill="#ffffff" x="706" y="1071" width="655" height="40" id="svg_95" rx="10"/>
     <rect fill="#a14a2e" stroke-width="0" x="714" y="1076" width="30" height="30" id="svg_96" stroke="null" rx="10"/>
     <rect fill="#f6f6f6" stroke-width="0" x="747.5" y="1076" width="120" height="30" id="svg_97" stroke="null" rx="10"/>
     <text fill="#f6f6f6" x="722" y="1096" id="svg_99" stroke-width="0" font-size="16" font-family="'Roboto Mono'" text-anchor="start" xml:space="preserve">М.</text>
    </g>
    <g id="svg_130">
     <rect fill="#ffffff" x="706" y="1026" width="655" height="40" id="svg_11" rx="10"/>
     <rect fill="#a14a2e" stroke-width="0" x="714" y="1031" width="30" height="30" id="svg_25" stroke="null" rx="10"/>
     <rect fill="#f6f6f6" stroke-width="0" x="748" y="1031" width="120" height="30" id="svg_26" stroke="null" rx="10"/>
     <text fill="#f6f6f6" x="723" y="1051" id="svg_28" stroke-width="0" font-size="16" font-family="'Roboto Mono'" text-anchor="start" xml:space="preserve">И.</text>
     <rect fill="#a14a2e" stroke-width="0" x="874.5" y="1031" width="30" height="30" id="svg_6" stroke="null" rx="10"/>
     <rect fill="#f6f6f6" stroke-width="0" x="908.5" y="1031" width="120" height="30" id="svg_7" stroke="null" rx="10"/>
     <text fill="#f6f6f6" x="883.5" y="1051" id="svg_19" stroke-width="0" font-size="16" font-family="'Roboto Mono'" text-anchor="start" xml:space="preserve">Ч.</text>
    </g>
    <g id="svg_131">
     <rect fill="#ffffff" x="706" y="981" width="655" height="40" id="svg_59" rx="10"/>
     <rect fill="#f6f6f6" stroke-width="0" x="1068.5" y="986" width="120" height="30" id="svg_107" stroke="null" rx="10"/>
     <rect fill="#a14a2e" stroke-width="0" x="714" y="986" width="30" height="30" id="svg_111" stroke="null" rx="10"/>
     <rect fill="#f6f6f6" stroke-width="0" x="748" y="986" width="120" height="30" id="svg_112" stroke="null" rx="10"/>
     <text fill="#f6f6f6" x="721" y="1006" id="svg_114" stroke-width="0" font-size="16" font-family="'Roboto Mono'" text-anchor="start" xml:space="preserve">П1</text>
     <rect fill="#a14a2e" stroke-width="0" x="874.5" y="986" width="30" height="30" id="svg_116" stroke="null" rx="10"/>
     <rect fill="#f6f6f6" stroke-width="0" x="908.5" y="986" width="120" height="30" id="svg_117" stroke="null" rx="10"/>
     <text fill="#f6f6f6" x="881" y="1006" id="svg_118" stroke-width="0" font-size="16" font-family="'Roboto Mono'" text-anchor="start" xml:space="preserve">П2</text>
     <rect fill="#a14a2e" stroke-width="0" x="1034.5" y="986" width="30" height="30" id="svg_106" stroke="null" rx="10"/>
     <text fill="#f6f6f6" x="1041" y="1006" id="svg_108" stroke-width="0" font-size="16" font-family="'Roboto Mono'" text-anchor="start" xml:space="preserve">П3</text>
    </g>
    <g id="svg_133">
     <rect fill="#ffffff" x="706" y="892" width="655" height="40" id="svg_13" rx="10"/>
     <rect fill="#c5ba59" stroke-width="0" x="713.5" y="897" width="30" height="30" id="svg_33" stroke="null" rx="10"/>
     <rect fill="#f6f6f6" stroke-width="0" x="747.5" y="897" width="608" height="30" id="svg_34" stroke="null" rx="10"/>
    </g>
    <g id="svg_134">
     <rect fill="#ffffff" x="706" y="936" width="655" height="40" id="svg_14" rx="10"/>
     <rect fill="#c5ba59" stroke-width="0" x="713.5" y="941" width="30" height="30" id="svg_44" stroke="null" rx="10"/>
     <rect fill="#f6f6f6" stroke-width="0" x="747.5" y="941" width="608" height="30" id="svg_45" stroke="null" rx="10"/>
     <text fill="#f6f6f6" x="720" y="961" id="svg_47" stroke-width="0" font-size="16" font-family="'Roboto Mono'" text-anchor="start" xml:space="preserve">Н4</text>
    </g>
    <g id="svg_135">
     <rect fill="#ffffff" x="706" y="848" width="655" height="40" id="svg_12" rx="10"/>
     <rect fill="#c5ba59" stroke-width="0" x="713.5" y="853" width="30" height="30" id="svg_38" stroke="null" rx="10"/>
     <rect fill="#f6f6f6" stroke-width="0" x="747.5" y="853" width="608" height="30" id="svg_39" stroke="null" rx="10"/>
     <text fill="#f6f6f6" x="720" y="873" id="svg_40" stroke-width="0" font-size="16" font-family="'Roboto Mono'" text-anchor="start" xml:space="preserve">Н2</text>
    </g>
    <g id="svg_136">
     <rect fill="#ffffff" x="706" y="803" width="655" height="40" id="svg_67" rx="10"/>
     <rect fill="#c5ba59" stroke-width="0" x="714" y="808" width="30" height="30" id="svg_68" stroke="null" rx="10"/>
     <rect fill="#f6f6f6" stroke-width="0" x="747.5" y="808" width="608" height="30" id="svg_69" stroke="null" rx="10"/>
     <text fill="#f6f6f6" x="720" y="828" id="svg_70" stroke-width="0" font-size="16" font-family="'Roboto Mono'" text-anchor="start" xml:space="preserve">Н1</text>
    </g>
    <g id="svg_137">
     <rect fill="#ffffff" x="706" y="758" width="655" height="40" id="svg_122" rx="10"/>
     <rect fill="#7c7c7c" stroke-width="0" x="714" y="763" width="30" height="30" id="svg_123" stroke="null" rx="10"/>
     <rect fill="#f6f6f6" stroke-width="0" x="747.5" y="763" width="120" height="30" id="svg_124" stroke="null" rx="10"/>
     <text fill="#f6f6f6" x="722" y="783" id="svg_125" stroke-width="0" font-size="16" font-family="'Roboto Mono'" text-anchor="start" xml:space="preserve">Ч.</text>
    </g>
    <g id="svg_138">
     <rect fill="#ffffff" x="705" y="713" width="655" height="40" id="svg_74" rx="10"/>
     <rect fill="#7c7c7c" stroke-width="0" x="712.5" y="718" width="30" height="30" id="svg_75" stroke="null" rx="10"/>
     <rect fill="#f6f6f6" stroke-width="0" x="746.5" y="718" width="120" height="30" id="svg_76" stroke="null" rx="10"/>
     <text fill="#f6f6f6" x="721.5" y="738" id="svg_78" stroke-width="0" font-size="16" font-family="'Roboto Mono'" text-anchor="start" xml:space="preserve">Ж.</text>
    </g>
    <g id="svg_139">
     <rect fill="#ffffff" x="705" y="669" width="655" height="40" id="svg_81" rx="10"/>
     <rect fill="#7c7c7c" stroke-width="0" x="712.5" y="674" width="30" height="30" id="svg_82" stroke="null" rx="10"/>
     <rect fill="#f6f6f6" stroke-width="0" x="746.5" y="674" width="120" height="30" id="svg_83" stroke="null" rx="10"/>
     <text fill="#f6f6f6" x="721" y="694" id="svg_85" stroke-width="0" font-size="16" font-family="'Roboto Mono'" text-anchor="start" xml:space="preserve">Р.</text>
    </g>
    <g id="svg_140">
     <rect fill="#ffffff" x="705" y="625" width="655" height="40" id="svg_88" rx="10"/>
     <rect fill="#7c7c7c" stroke-width="0" x="712.5" y="630" width="30" height="30" id="svg_89" stroke="null" rx="10"/>
     <rect fill="#f6f6f6" stroke-width="0" x="746.5" y="630" width="120" height="30" id="svg_90" stroke="null" rx="10"/>
     <text fill="#f6f6f6" x="721.5" y="650" id="svg_91" stroke-width="0" font-size="16" font-family="'Roboto Mono'" text-anchor="start" xml:space="preserve">В.</text>
    </g>
   </g>
   <text fill="#323232" x="753" y="961" id="svg_46" stroke-width="0" font-size="14" font-family="'Roboto Mono'" text-anchor="start" xml:space="preserve">${name_2_4_9}</text>
   <text fill="#323232" x="753" y="917" id="svg_35" stroke-width="0" font-size="14" font-family="'Roboto Mono'" text-anchor="start" xml:space="preserve">${name_2_4_8}</text>
   <text fill="#323232" x="753" y="873" id="svg_41" stroke-width="0" font-size="14" font-family="'Roboto Mono'" text-anchor="start" xml:space="preserve">${name_2_4_7}</text>
   <text fill="#323232" x="753" y="828" id="svg_71" stroke-width="0" font-size="14" font-family="'Roboto Mono'" text-anchor="start" xml:space="preserve">${name_2_4_6}</text>
   <text fill="#323232" x="753" y="738" id="svg_77" stroke-width="0" font-size="14" font-family="'Roboto Mono'" text-anchor="start" xml:space="preserve">${name_2_4_4}</text>
   <text fill="#323232" x="753" y="694" id="svg_84" stroke-width="0" font-size="14" font-family="'Roboto Mono'" text-anchor="start" xml:space="preserve">${name_2_4_3}</text>
   <text fill="#323232" x="753" y="650" id="svg_92" stroke-width="0" font-size="14" font-family="'Roboto Mono'" text-anchor="start" xml:space="preserve">${name_2_4_2}</text>
   <text fill="#323232" x="753.5" y="1051" id="svg_27" stroke-width="0" font-size="14" font-family="'Roboto Mono'" text-anchor="start" xml:space="preserve">${name_2_4_13}</text>
   <text fill="#323232" x="914" y="1051" id="svg_24" stroke-width="0" font-size="14" font-family="'Roboto Mono'" text-anchor="start" xml:space="preserve">${name_2_4_14}</text>
   <text fill="#323232" x="1074" y="1006" id="svg_109" stroke-width="0" font-size="14" font-family="'Roboto Mono'" text-anchor="start" xml:space="preserve">${name_2_4_12}</text>
   <text fill="#323232" x="753.5" y="1006" id="svg_113" stroke-width="0" font-size="14" font-family="'Roboto Mono'" text-anchor="start" xml:space="preserve">${name_2_4_10}</text>
   <text fill="#323232" x="914" y="1006" id="svg_119" stroke-width="0" font-size="14" font-family="'Roboto Mono'" text-anchor="start" xml:space="preserve">${name_2_4_11}</text>
   <text fill="#323232" x="753" y="783" id="svg_126" stroke-width="0" font-size="14" font-family="'Roboto Mono'" text-anchor="start" xml:space="preserve">${name_2_4_5}</text>
   <text fill="#323232" x="753" y="1096" id="svg_100" stroke-width="0" font-size="14" font-family="'Roboto Mono'" text-anchor="start" xml:space="preserve">${name_2_4_15}</text>
   <text fill="#323232" x="961.98438" y="610" id="svg_10" stroke-width="0" font-size="24" font-family="'Roboto Mono'" text-anchor="start" xml:space="preserve" font-weight="normal" font-style="normal">${name_2_4_1}</text>
   <text xml:space="preserve" text-anchor="start" font-family="'Roboto Mono'" font-size="16" id="svg_392" y="917" x="720" stroke-width="0" fill="#f6f6f6">Н3</text>
  </g>
 </g>

</svg>