<svg width="1382" height="1445" xmlns="http://www.w3.org/2000/svg" version="1.1">
 <g>
  <rect stroke="null" id="svg_24" height="1382" width="1445" stroke-width="0" fill="#ffffff" y="0" x="0"/>
  <g>
   <rect stroke="null" fill="#f6f6f6" x="10" y="10" width="675" height="708" id="svg_27" rx="10"/>
   <g>
    <rect fill="#ffffff" x="20" y="67" width="655" height="40" id="svg_28" rx="10"/>
    <rect fill="#f6f6f6" stroke="null" stroke-width="0" x="136" y="72" width="197" height="30" id="svg_31" rx="10"/>
    <rect fill="#779953" stroke-width="0" x="26" y="72" width="100" height="30" id="svg_34" stroke="null" rx="10"/>
    <rect fill="#f6f6f6" stroke="null" stroke-width="0" x="469" y="72" width="197" height="30" id="svg_35" rx="10"/>
    <rect fill="#779953" stroke-width="0" x="359" y="72" width="100" height="30" id="svg_36" stroke="null" rx="10"/>
   </g>
   <g>
    <rect fill="#ffffff" x="20" y="111" width="655" height="40" id="svg_38" rx="10"/>
    <rect fill="#7c7c7c" stroke-width="0" x="27.5" y="116" width="640" height="30" id="svg_40" stroke="null" rx="10"/>
    <rect fill="#ffffff" stroke="null" x="20" y="156.00001" width="655" height="111" id="svg_41" rx="10"/>
    <rect fill="#7c7c7c" stroke-width="0" x="27.5" y="161" width="100" height="30" id="svg_42" stroke="null" rx="10"/>
    <rect fill="#f6f6f6" stroke-width="0" x="138" y="161" width="530" height="30" id="svg_43" stroke="null" rx="10"/>
    <rect fill="#7c7c7c" stroke-width="0" x="27.5" y="197" width="100" height="30" id="svg_47" stroke="null" rx="10"/>
    <rect fill="#f6f6f6" stroke-width="0" x="138" y="197" width="530" height="30" id="svg_48" stroke="null" rx="10"/>
    <rect fill="#7c7c7c" stroke-width="0" x="28" y="232" width="100" height="30" id="svg_51" stroke="null" rx="10"/>
    <rect fill="#f6f6f6" stroke-width="0" x="138" y="232" width="530" height="30" id="svg_54" stroke="null" rx="10"/>
   </g>
   <g>
    <rect fill="#ffffff" x="20" y="277" width="655" height="40" id="svg_58" rx="10"/>
    <rect fill="#c5ba59" stroke-width="0" x="27.5" y="282" width="640" height="30" id="svg_61" stroke="null" rx="10"/>
    <rect fill="#ffffff" x="20" y="321" width="655" height="147" id="svg_62" rx="10" stroke="null"/>
    <rect fill="#f6f6f6" stroke-width="0" x="138" y="326" width="530" height="30" id="svg_65" stroke="null" rx="10"/>
    <rect fill="#c5ba59" stroke-width="0" x="29.5" y="326" width="101" height="30" id="svg_68" stroke="null" rx="10"/>
    <rect fill="#f6f6f6" stroke-width="0" x="138" y="362" width="530" height="30" id="svg_69" stroke="null" rx="10"/>
    <rect fill="#c5ba59" stroke-width="0" x="29" y="362" width="100" height="30" id="svg_70" stroke="null" rx="10"/>
    <rect fill="#f6f6f6" stroke-width="0" x="138" y="398" width="530" height="30" id="svg_71" stroke="null" rx="10"/>
    <rect fill="#c5ba59" stroke-width="0" x="29" y="398" width="100" height="30" id="svg_72" stroke="null" rx="10"/>
    <rect fill="#f6f6f6" stroke-width="0" x="139" y="433" width="530" height="30" id="svg_73" stroke="null" rx="10"/>
    <rect fill="#c5ba59" stroke-width="0" x="29" y="433" width="100" height="30" id="svg_74" stroke="null" rx="10"/>
   </g>
   <g>
    <rect fill="#ffffff" x="20" y="480" width="655" height="40" id="svg_76" rx="10"/>
    <rect fill="#a14a2e" stroke-width="0" x="27.5" y="485" width="640" height="30" id="svg_77" stroke="null" rx="10"/>
    <rect fill="#ffffff" stroke="null" x="20" y="524" width="655" height="183" id="svg_79" rx="10"/>
    <rect fill="#f6f6f6" stroke-width="0" x="138" y="529" width="530" height="30" id="svg_80" stroke="null" rx="10"/>
    <rect fill="#a14a2e" stroke-width="0" x="28" y="529" width="101" height="30" id="svg_81" stroke="null" rx="10"/>
    <rect fill="#f6f6f6" stroke-width="0" x="138" y="565" width="530" height="30" id="svg_82" stroke="null" rx="10"/>
    <rect fill="#a14a2e" stroke-width="0" x="27.5" y="565" width="100" height="30" id="svg_83" stroke="null" rx="10"/>
    <rect fill="#f6f6f6" stroke-width="0" x="138" y="601" width="530" height="30" id="svg_84" stroke="null" rx="10"/>
    <rect fill="#a14a2e" stroke-width="0" x="27.5" y="601" width="100" height="30" id="svg_88" stroke="null" rx="10"/>
    <rect fill="#f6f6f6" stroke="null" stroke-width="0" x="137" y="636" width="197" height="30" id="svg_91" rx="10"/>
    <rect fill="#a14a2e" stroke-width="0" x="27" y="636" width="100" height="30" id="svg_92" stroke="null" rx="10"/>
    <rect fill="#f6f6f6" stroke="null" stroke-width="0" x="470" y="636" width="197" height="30" id="svg_95" rx="10"/>
    <rect fill="#a14a2e" stroke-width="0" x="360" y="636" width="100" height="30" id="svg_98" stroke="null" rx="10"/>
    <rect fill="#f6f6f6" stroke-width="0" x="138" y="672" width="530" height="30" id="svg_99" stroke="null" rx="10"/>
    <rect fill="#a14a2e" stroke-width="0" x="28" y="672" width="100" height="30" id="svg_100" stroke="null" rx="10"/>
   </g>
   <text fill="#323232" x="276.98438" y="50" id="svg_106" stroke-width="0" font-size="24" font-family="'Roboto Mono'" text-anchor="start" xml:space="preserve">${H_1_0}</text>
   <g>
    <text fill="#f6f6f6" x="41" y="92" id="svg_107" stroke-width="0" font-size="16" font-family="'Roboto Mono'" text-anchor="start" xml:space="preserve">Ведучий</text>
    <text fill="#323232" x="141.5" y="92" id="svg_110" stroke-width="0" font-size="14" font-family="'Roboto Mono'" text-anchor="start" xml:space="preserve">${H_1_1}</text>
    <text fill="#f6f6f6" x="376" y="92" id="svg_113" stroke-width="0" font-size="16" font-family="'Roboto Mono'" text-anchor="start" xml:space="preserve">Молитва</text>
    <text fill="#323232" x="474.5" y="92" id="svg_114" stroke-width="0" font-size="14" font-family="'Roboto Mono'" text-anchor="start" xml:space="preserve">${H_1_2}</text>
   </g>
   <g>
    <text stroke="null" fill="#f6f6f6" x="245" y="136" id="svg_118" stroke-width="0" font-size="16" font-family="'Roboto Mono'" text-anchor="start" xml:space="preserve">Скарби з Божого слова</text>
    <g>
     <text fill="#f6f6f6" x="45" y="181" id="svg_119" stroke-width="0" font-size="16" font-family="'Roboto Mono'" text-anchor="start" xml:space="preserve">Промова</text>
     <text fill="#323232" x="144.5" y="181" id="svg_121" stroke-width="0" font-size="14" font-family="'Roboto Mono'" text-anchor="start" xml:space="preserve">${H_1_3}</text>
     <text fill="#f6f6f6" x="43.5" y="218" id="svg_122" stroke-width="0" font-size="16" font-family="'Roboto Mono'" text-anchor="start" xml:space="preserve">Перлини</text>
     <text fill="#323232" x="144.5" y="217" id="svg_125" stroke-width="0" font-size="14" font-family="'Roboto Mono'" text-anchor="start" xml:space="preserve">${H_1_4}</text>
     <text fill="#f6f6f6" x="43" y="252" id="svg_128" stroke-width="0" font-size="16" font-family="'Roboto Mono'" text-anchor="start" xml:space="preserve">Читання</text>
     <text fill="#323232" x="143.5" y="252" id="svg_129" stroke-width="0" font-size="14" font-family="'Roboto Mono'" text-anchor="start" xml:space="preserve">${H_1_5}</text>
    </g>
   </g>
   <g>
    <text stroke="null" fill="#f6f6f6" x="217" y="302" id="svg_138" stroke-width="0" font-size="16" font-family="'Roboto Mono'" text-anchor="start" xml:space="preserve">Вдосконалюймо своє служіння</text>
    <g>
     <text fill="#f6f6f6" x="36.5" y="346" id="svg_139" stroke-width="0" font-size="16" font-family="'Roboto Mono'" text-anchor="start" xml:space="preserve">Розмова 1</text>
     <text fill="#323232" x="144.5" y="346" id="svg_141" stroke-width="0" font-size="14" font-family="'Roboto Mono'" text-anchor="start" xml:space="preserve">${H_1_6}</text>
     <text fill="#f6f6f6" x="36.5" y="382" id="svg_142" stroke-width="0" font-size="16" font-family="'Roboto Mono'" text-anchor="start" xml:space="preserve">Розмова 2</text>
     <text fill="#323232" x="144.5" y="382" id="svg_147" stroke-width="0" font-size="14" font-family="'Roboto Mono'" text-anchor="start" xml:space="preserve">${H_1_7}</text>
     <text fill="#f6f6f6" x="36.5" y="419" id="svg_153" stroke-width="0" font-size="16" font-family="'Roboto Mono'" text-anchor="start" xml:space="preserve">Розмова 3</text>
     <text fill="#323232" x="144.5" y="418" id="svg_154" stroke-width="0" font-size="14" font-family="'Roboto Mono'" text-anchor="start" xml:space="preserve">${H_1_8}</text>
     <text fill="#f6f6f6" x="35" y="453" id="svg_155" stroke-width="0" font-size="16" font-family="'Roboto Mono'" text-anchor="start" xml:space="preserve">Розмова 4</text>
     <text fill="#323232" x="144.5" y="453" id="svg_156" stroke-width="0" font-size="14" font-family="'Roboto Mono'" text-anchor="start" xml:space="preserve">${H_1_9}</text>
    </g>
   </g>
   <g>
    <text stroke="null" fill="#f6f6f6" x="263" y="505" id="svg_159" stroke-width="0" font-size="16" font-family="'Roboto Mono'" text-anchor="start" xml:space="preserve">Християнське життя</text>
    <g>
     <text fill="#f6f6f6" x="43.5" y="549" id="svg_160" stroke-width="0" font-size="16" font-family="'Roboto Mono'" text-anchor="start" xml:space="preserve">Пункт 1</text>
     <text fill="#323232" x="144.5" y="549" id="svg_161" stroke-width="0" font-size="14" font-family="'Roboto Mono'" text-anchor="start" xml:space="preserve">${H_1_10}</text>
     <text fill="#f6f6f6" x="45" y="585" id="svg_162" stroke-width="0" font-size="16" font-family="'Roboto Mono'" text-anchor="start" xml:space="preserve">Пункт 2</text>
     <text fill="#323232" x="144.5" y="585" id="svg_163" stroke-width="0" font-size="14" font-family="'Roboto Mono'" text-anchor="start" xml:space="preserve">${H_1_11}</text>
     <text fill="#f6f6f6" x="43.5" y="622" id="svg_164" stroke-width="0" font-size="16" font-family="'Roboto Mono'" text-anchor="start" xml:space="preserve">Пункт 3</text>
     <text fill="#323232" x="144.5" y="621" id="svg_165" stroke-width="0" font-size="14" font-family="'Roboto Mono'" text-anchor="start" xml:space="preserve">${H_1_12}</text>
     <text fill="#f6f6f6" x="38" y="656" id="svg_166" stroke-width="0" font-size="16" font-family="'Roboto Mono'" text-anchor="start" xml:space="preserve">Вивчення</text>
     <text fill="#323232" x="142.5" y="656" id="svg_167" stroke-width="0" font-size="14" font-family="'Roboto Mono'" text-anchor="start" xml:space="preserve">${H_1_13}</text>
     <text fill="#f6f6f6" x="382" y="656" id="svg_168" stroke-width="0" font-size="16" font-family="'Roboto Mono'" text-anchor="start" xml:space="preserve">Читець</text>
     <text fill="#323232" x="475.5" y="656" id="svg_169" stroke-width="0" font-size="14" font-family="'Roboto Mono'" text-anchor="start" xml:space="preserve">${H_1_14}</text>
     <text fill="#f6f6f6" x="43" y="692" id="svg_170" stroke-width="0" font-size="16" font-family="'Roboto Mono'" text-anchor="start" xml:space="preserve">Молитва</text>
     <text fill="#323232" x="143.5" y="692" id="svg_171" stroke-width="0" font-size="14" font-family="'Roboto Mono'" text-anchor="start" xml:space="preserve">${H_1_15}</text>
    </g>
   </g>
  </g>

  <g>
   <rect stroke="null" fill="#f6f6f6" x="698" y="9" width="675" height="708" id="svg_442" rx="10"/>
   <g>
    <rect fill="#ffffff" x="708" y="66" width="655" height="40" id="svg_443" rx="10"/>
    <rect fill="#f6f6f6" stroke="null" stroke-width="0" x="824" y="71" width="197" height="30" id="svg_444" rx="10"/>
    <rect fill="#779953" stroke-width="0" x="714" y="71" width="100" height="30" id="svg_445" stroke="null" rx="10"/>
    <rect fill="#f6f6f6" stroke="null" stroke-width="0" x="1157" y="71" width="197" height="30" id="svg_446" rx="10"/>
    <rect fill="#779953" stroke-width="0" x="1047" y="71" width="100" height="30" id="svg_447" stroke="null" rx="10"/>
   </g>
   <g>
    <rect fill="#ffffff" x="708" y="110" width="655" height="40" id="svg_449" rx="10"/>
    <rect fill="#7c7c7c" stroke-width="0" x="715.5" y="115" width="640" height="30" id="svg_450" stroke="null" rx="10"/>
    <rect fill="#ffffff" stroke="null" x="708" y="155.00001" width="655" height="111" id="svg_451" rx="10"/>
    <rect fill="#7c7c7c" stroke-width="0" x="715.5" y="160" width="100" height="30" id="svg_452" stroke="null" rx="10"/>
    <rect fill="#f6f6f6" stroke-width="0" x="826" y="160" width="530" height="30" id="svg_453" stroke="null" rx="10"/>
    <rect fill="#7c7c7c" stroke-width="0" x="715.5" y="196" width="100" height="30" id="svg_454" stroke="null" rx="10"/>
    <rect fill="#f6f6f6" stroke-width="0" x="826" y="196" width="530" height="30" id="svg_455" stroke="null" rx="10"/>
    <rect fill="#7c7c7c" stroke-width="0" x="716" y="231" width="100" height="30" id="svg_456" stroke="null" rx="10"/>
    <rect fill="#f6f6f6" stroke-width="0" x="826" y="231" width="530" height="30" id="svg_457" stroke="null" rx="10"/>
   </g>
   <g>
    <rect fill="#ffffff" x="708" y="276" width="655" height="40" id="svg_459" rx="10"/>
    <rect fill="#c5ba59" stroke-width="0" x="715.5" y="281" width="640" height="30" id="svg_460" stroke="null" rx="10"/>
    <rect fill="#ffffff" x="708" y="320" width="655" height="147" id="svg_461" rx="10" stroke="null"/>
    <rect fill="#f6f6f6" stroke-width="0" x="826" y="325" width="530" height="30" id="svg_462" stroke="null" rx="10"/>
    <rect fill="#c5ba59" stroke-width="0" x="717.5" y="325" width="101" height="30" id="svg_463" stroke="null" rx="10"/>
    <rect fill="#f6f6f6" stroke-width="0" x="826" y="361" width="530" height="30" id="svg_464" stroke="null" rx="10"/>
    <rect fill="#c5ba59" stroke-width="0" x="717" y="361" width="100" height="30" id="svg_465" stroke="null" rx="10"/>
    <rect fill="#f6f6f6" stroke-width="0" x="826" y="397" width="530" height="30" id="svg_466" stroke="null" rx="10"/>
    <rect fill="#c5ba59" stroke-width="0" x="717" y="397" width="100" height="30" id="svg_467" stroke="null" rx="10"/>
    <rect fill="#f6f6f6" stroke-width="0" x="827" y="432" width="530" height="30" id="svg_468" stroke="null" rx="10"/>
    <rect fill="#c5ba59" stroke-width="0" x="717" y="432" width="100" height="30" id="svg_469" stroke="null" rx="10"/>
   </g>
   <g>
    <rect fill="#ffffff" x="708" y="479" width="655" height="40" id="svg_471" rx="10"/>
    <rect fill="#a14a2e" stroke-width="0" x="715.5" y="484" width="640" height="30" id="svg_472" stroke="null" rx="10"/>
    <rect fill="#ffffff" stroke="null" x="708" y="523" width="655" height="183" id="svg_473" rx="10"/>
    <rect fill="#f6f6f6" stroke-width="0" x="826" y="528" width="530" height="30" id="svg_474" stroke="null" rx="10"/>
    <rect fill="#a14a2e" stroke-width="0" x="716" y="528" width="101" height="30" id="svg_475" stroke="null" rx="10"/>
    <rect fill="#f6f6f6" stroke-width="0" x="826" y="564" width="530" height="30" id="svg_476" stroke="null" rx="10"/>
    <rect fill="#a14a2e" stroke-width="0" x="715.5" y="564" width="100" height="30" id="svg_477" stroke="null" rx="10"/>
    <rect fill="#f6f6f6" stroke-width="0" x="826" y="600" width="530" height="30" id="svg_478" stroke="null" rx="10"/>
    <rect fill="#a14a2e" stroke-width="0" x="715.5" y="600" width="100" height="30" id="svg_479" stroke="null" rx="10"/>
    <rect fill="#f6f6f6" stroke="null" stroke-width="0" x="825" y="635" width="197" height="30" id="svg_480" rx="10"/>
    <rect fill="#a14a2e" stroke-width="0" x="715" y="635" width="100" height="30" id="svg_481" stroke="null" rx="10"/>
    <rect fill="#f6f6f6" stroke="null" stroke-width="0" x="1158" y="635" width="197" height="30" id="svg_482" rx="10"/>
    <rect fill="#a14a2e" stroke-width="0" x="1048" y="635" width="100" height="30" id="svg_483" stroke="null" rx="10"/>
    <rect fill="#f6f6f6" stroke-width="0" x="826" y="671" width="530" height="30" id="svg_484" stroke="null" rx="10"/>
    <rect fill="#a14a2e" stroke-width="0" x="716" y="671" width="100" height="30" id="svg_485" stroke="null" rx="10"/>
   </g>
   <text fill="#323232" x="964.98438" y="49" id="svg_487" stroke-width="0" font-size="24" font-family="'Roboto Mono'" text-anchor="start" xml:space="preserve">${H_1_0}</text>
   <g>
    <text fill="#f6f6f6" x="729" y="91" id="svg_488" stroke-width="0" font-size="16" font-family="'Roboto Mono'" text-anchor="start" xml:space="preserve">Ведучий</text>
    <text fill="#323232" x="829.5" y="91" id="svg_489" stroke-width="0" font-size="14" font-family="'Roboto Mono'" text-anchor="start" xml:space="preserve">${H_1_1}</text>
    <text fill="#f6f6f6" x="1064" y="91" id="svg_490" stroke-width="0" font-size="16" font-family="'Roboto Mono'" text-anchor="start" xml:space="preserve">Молитва</text>
    <text fill="#323232" x="1162.5" y="91" id="svg_491" stroke-width="0" font-size="14" font-family="'Roboto Mono'" text-anchor="start" xml:space="preserve">${H_1_2}</text>
   </g>
   <g>
    <text stroke="null" fill="#f6f6f6" x="933" y="135" id="svg_493" stroke-width="0" font-size="16" font-family="'Roboto Mono'" text-anchor="start" xml:space="preserve">Скарби з Божого слова</text>
    <g>
     <text fill="#f6f6f6" x="733" y="180" id="svg_494" stroke-width="0" font-size="16" font-family="'Roboto Mono'" text-anchor="start" xml:space="preserve">Промова</text>
     <text fill="#323232" x="832.5" y="180" id="svg_495" stroke-width="0" font-size="14" font-family="'Roboto Mono'" text-anchor="start" xml:space="preserve">${H_1_3}</text>
     <text fill="#f6f6f6" x="731.5" y="217" id="svg_496" stroke-width="0" font-size="16" font-family="'Roboto Mono'" text-anchor="start" xml:space="preserve">Перлини</text>
     <text fill="#323232" x="832.5" y="216" id="svg_497" stroke-width="0" font-size="14" font-family="'Roboto Mono'" text-anchor="start" xml:space="preserve">${H_1_4}</text>
     <text fill="#f6f6f6" x="731" y="251" id="svg_498" stroke-width="0" font-size="16" font-family="'Roboto Mono'" text-anchor="start" xml:space="preserve">Читання</text>
     <text fill="#323232" x="831.5" y="251" id="svg_499" stroke-width="0" font-size="14" font-family="'Roboto Mono'" text-anchor="start" xml:space="preserve">${H_1_5}</text>
    </g>
   </g>
   <g>
    <text stroke="null" fill="#f6f6f6" x="905" y="301" id="svg_502" stroke-width="0" font-size="16" font-family="'Roboto Mono'" text-anchor="start" xml:space="preserve">Вдосконалюймо своє служіння</text>
    <g>
     <text fill="#f6f6f6" x="724.5" y="345" id="svg_503" stroke-width="0" font-size="16" font-family="'Roboto Mono'" text-anchor="start" xml:space="preserve">Розмова 1</text>
     <text fill="#323232" x="832.5" y="345" id="svg_504" stroke-width="0" font-size="14" font-family="'Roboto Mono'" text-anchor="start" xml:space="preserve">${H_1_6}</text>
     <text fill="#f6f6f6" x="724.5" y="381" id="svg_505" stroke-width="0" font-size="16" font-family="'Roboto Mono'" text-anchor="start" xml:space="preserve">Розмова 2</text>
     <text fill="#323232" x="832.5" y="381" id="svg_506" stroke-width="0" font-size="14" font-family="'Roboto Mono'" text-anchor="start" xml:space="preserve">${H_1_7}</text>
     <text fill="#f6f6f6" x="724.5" y="418" id="svg_507" stroke-width="0" font-size="16" font-family="'Roboto Mono'" text-anchor="start" xml:space="preserve">Розмова 3</text>
     <text fill="#323232" x="832.5" y="417" id="svg_508" stroke-width="0" font-size="14" font-family="'Roboto Mono'" text-anchor="start" xml:space="preserve">${H_1_8}</text>
     <text fill="#f6f6f6" x="723" y="452" id="svg_509" stroke-width="0" font-size="16" font-family="'Roboto Mono'" text-anchor="start" xml:space="preserve">Розмова 4</text>
     <text fill="#323232" x="832.5" y="452" id="svg_510" stroke-width="0" font-size="14" font-family="'Roboto Mono'" text-anchor="start" xml:space="preserve">${H_1_9}</text>
    </g>
   </g>
   <g>
    <text stroke="null" fill="#f6f6f6" x="951" y="504" id="svg_513" stroke-width="0" font-size="16" font-family="'Roboto Mono'" text-anchor="start" xml:space="preserve">Християнське життя</text>
    <g>
     <text fill="#f6f6f6" x="731.5" y="548" id="svg_514" stroke-width="0" font-size="16" font-family="'Roboto Mono'" text-anchor="start" xml:space="preserve">Пункт 1</text>
     <text fill="#323232" x="832.5" y="548" id="svg_515" stroke-width="0" font-size="14" font-family="'Roboto Mono'" text-anchor="start" xml:space="preserve">${H_1_10}</text>
     <text fill="#f6f6f6" x="733" y="584" id="svg_516" stroke-width="0" font-size="16" font-family="'Roboto Mono'" text-anchor="start" xml:space="preserve">Пункт 2</text>
     <text fill="#323232" x="832.5" y="584" id="svg_517" stroke-width="0" font-size="14" font-family="'Roboto Mono'" text-anchor="start" xml:space="preserve">${H_1_11}</text>
     <text fill="#f6f6f6" x="731.5" y="621" id="svg_518" stroke-width="0" font-size="16" font-family="'Roboto Mono'" text-anchor="start" xml:space="preserve">Пункт 3</text>
     <text fill="#323232" x="832.5" y="620" id="svg_519" stroke-width="0" font-size="14" font-family="'Roboto Mono'" text-anchor="start" xml:space="preserve">${H_1_12}</text>
     <text fill="#f6f6f6" x="726" y="655" id="svg_520" stroke-width="0" font-size="16" font-family="'Roboto Mono'" text-anchor="start" xml:space="preserve">Вивчення</text>
     <text fill="#323232" x="830.5" y="655" id="svg_521" stroke-width="0" font-size="14" font-family="'Roboto Mono'" text-anchor="start" xml:space="preserve">${H_1_13}</text>
     <text fill="#f6f6f6" x="1070" y="655" id="svg_522" stroke-width="0" font-size="16" font-family="'Roboto Mono'" text-anchor="start" xml:space="preserve">Читець</text>
     <text fill="#323232" x="1163.5" y="655" id="svg_523" stroke-width="0" font-size="14" font-family="'Roboto Mono'" text-anchor="start" xml:space="preserve">${H_1_14}</text>
     <text fill="#f6f6f6" x="731" y="691" id="svg_524" stroke-width="0" font-size="16" font-family="'Roboto Mono'" text-anchor="start" xml:space="preserve">Молитва</text>
     <text fill="#323232" x="831.5" y="691" id="svg_525" stroke-width="0" font-size="14" font-family="'Roboto Mono'" text-anchor="start" xml:space="preserve">${H_1_15}</text>
    </g>
   </g>
  </g>

  <g>
   <rect stroke="null" fill="#f6f6f6" x="10" y="726" width="675" height="708" id="svg_149" rx="10"/>
   <g>
    <rect fill="#ffffff" x="20" y="783" width="655" height="40" id="svg_78" rx="10"/>
    <rect fill="#f6f6f6" stroke="null" stroke-width="0" x="136" y="788" width="197" height="30" id="svg_133" rx="10"/>
    <rect fill="#779953" stroke-width="0" x="26" y="788" width="100" height="30" id="svg_131" stroke="null" rx="10"/>
    <rect fill="#f6f6f6" stroke="null" stroke-width="0" x="469" y="788" width="197" height="30" id="svg_126" rx="10"/>
    <rect fill="#779953" stroke-width="0" x="359" y="788" width="100" height="30" id="svg_123" stroke="null" rx="10"/>
   </g>
   <g>
    <rect fill="#ffffff" x="20" y="827" width="655" height="40" id="svg_136" rx="10"/>
    <rect fill="#7c7c7c" stroke-width="0" x="27.5" y="832" width="640" height="30" id="svg_137" stroke="null" rx="10"/>
    <rect fill="#ffffff" stroke="null" x="20" y="872.00001" width="655" height="111" id="svg_44" rx="10"/>
    <rect fill="#7c7c7c" stroke-width="0" x="27.5" y="877" width="100" height="30" id="svg_63" stroke="null" rx="10"/>
    <rect fill="#f6f6f6" stroke-width="0" x="138" y="877" width="530" height="30" id="svg_66" stroke="null" rx="10"/>
    <rect fill="#7c7c7c" stroke-width="0" x="27.5" y="913" width="100" height="30" id="svg_56" stroke="null" rx="10"/>
    <rect fill="#f6f6f6" stroke-width="0" x="138" y="913" width="530" height="30" id="svg_59" stroke="null" rx="10"/>
    <rect fill="#7c7c7c" stroke-width="0" x="28" y="948" width="100" height="30" id="svg_49" stroke="null" rx="10"/>
    <rect fill="#f6f6f6" stroke-width="0" x="138" y="948" width="530" height="30" id="svg_52" stroke="null" rx="10"/>
   </g>
   <g>
    <rect fill="#ffffff" x="20" y="993" width="655" height="40" id="svg_116" rx="10"/>
    <rect fill="#c5ba59" stroke-width="0" x="27.5" y="998" width="640" height="30" id="svg_117" stroke="null" rx="10"/>
    <rect fill="#ffffff" x="20" y="1037" width="655" height="147" id="svg_85" rx="10" stroke="null"/>
    <rect fill="#f6f6f6" stroke-width="0" x="138" y="1042" width="530" height="30" id="svg_111" stroke="null" rx="10"/>
    <rect fill="#c5ba59" stroke-width="0" x="29.5" y="1042" width="101" height="30" id="svg_108" stroke="null" rx="10"/>
    <rect fill="#f6f6f6" stroke-width="0" x="138" y="1078" width="530" height="30" id="svg_104" stroke="null" rx="10"/>
    <rect fill="#c5ba59" stroke-width="0" x="29" y="1078" width="100" height="30" id="svg_101" stroke="null" rx="10"/>
    <rect fill="#f6f6f6" stroke-width="0" x="138" y="1114" width="530" height="30" id="svg_96" stroke="null" rx="10"/>
    <rect fill="#c5ba59" stroke-width="0" x="29" y="1114" width="100" height="30" id="svg_93" stroke="null" rx="10"/>
    <rect fill="#f6f6f6" stroke-width="0" x="139" y="1149" width="530" height="30" id="svg_89" stroke="null" rx="10"/>
    <rect fill="#c5ba59" stroke-width="0" x="29" y="1149" width="100" height="30" id="svg_86" stroke="null" rx="10"/>
   </g>
   <g>
    <rect fill="#ffffff" x="20" y="1196" width="655" height="40" id="svg_45" rx="10"/>
    <rect fill="#a14a2e" stroke-width="0" x="27.5" y="1201" width="640" height="30" id="svg_46" stroke="null" rx="10"/>
    <rect fill="#ffffff" stroke="null" x="20" y="1240" width="655" height="183" id="svg_7" rx="10"/>
    <rect fill="#f6f6f6" stroke-width="0" x="138" y="1245" width="530" height="30" id="svg_32" stroke="null" rx="10"/>
    <rect fill="#a14a2e" stroke-width="0" x="28" y="1245" width="101" height="30" id="svg_29" stroke="null" rx="10"/>
    <rect fill="#f6f6f6" stroke-width="0" x="138" y="1281" width="530" height="30" id="svg_25" stroke="null" rx="10"/>
    <rect fill="#a14a2e" stroke-width="0" x="27.5" y="1281" width="100" height="30" id="svg_22" stroke="null" rx="10"/>
    <rect fill="#f6f6f6" stroke-width="0" x="138" y="1317" width="530" height="30" id="svg_18" stroke="null" rx="10"/>
    <rect fill="#a14a2e" stroke-width="0" x="27.5" y="1317" width="100" height="30" id="svg_15" stroke="null" rx="10"/>
    <rect fill="#f6f6f6" stroke="null" stroke-width="0" x="137" y="1352" width="197" height="30" id="svg_151" rx="10"/>
    <rect fill="#a14a2e" stroke-width="0" x="27" y="1352" width="100" height="30" id="svg_148" stroke="null" rx="10"/>
    <rect fill="#f6f6f6" stroke="null" stroke-width="0" x="470" y="1352" width="197" height="30" id="svg_145" rx="10"/>
    <rect fill="#a14a2e" stroke-width="0" x="360" y="1352" width="100" height="30" id="svg_143" stroke="null" rx="10"/>
    <rect fill="#f6f6f6" stroke-width="0" x="138" y="1388" width="530" height="30" id="svg_11" stroke="null" rx="10"/>
    <rect fill="#a14a2e" stroke-width="0" x="28" y="1388" width="100" height="30" id="svg_8" stroke="null" rx="10"/>
   </g>
   <text fill="#323232" x="276.98438" y="766" id="svg_228" stroke-width="0" font-size="24" font-family="'Roboto Mono'" text-anchor="start" xml:space="preserve">${H_1_0}</text>
   <g>
    <text fill="#f6f6f6" x="41" y="808" id="svg_132" stroke-width="0" font-size="16" font-family="'Roboto Mono'" text-anchor="start" xml:space="preserve">Ведучий</text>
    <text fill="#323232" x="141.5" y="808" id="svg_134" stroke-width="0" font-size="14" font-family="'Roboto Mono'" text-anchor="start" xml:space="preserve">${H_1_1}</text>
    <text fill="#f6f6f6" x="376" y="808" id="svg_124" stroke-width="0" font-size="16" font-family="'Roboto Mono'" text-anchor="start" xml:space="preserve">Молитва</text>
    <text fill="#323232" x="474.5" y="808" id="svg_127" stroke-width="0" font-size="14" font-family="'Roboto Mono'" text-anchor="start" xml:space="preserve">${H_1_2}</text>
   </g>
   <g>
    <text stroke="null" fill="#f6f6f6" x="245" y="852" id="svg_140" stroke-width="0" font-size="16" font-family="'Roboto Mono'" text-anchor="start" xml:space="preserve">Скарби з Божого слова</text>
    <g>
     <text fill="#f6f6f6" x="45" y="897" id="svg_64" stroke-width="0" font-size="16" font-family="'Roboto Mono'" text-anchor="start" xml:space="preserve">Промова</text>
     <text fill="#323232" x="144.5" y="897" id="svg_67" stroke-width="0" font-size="14" font-family="'Roboto Mono'" text-anchor="start" xml:space="preserve">${H_1_3}</text>
     <text fill="#f6f6f6" x="43.5" y="934" id="svg_57" stroke-width="0" font-size="16" font-family="'Roboto Mono'" text-anchor="start" xml:space="preserve">Перлини</text>
     <text fill="#323232" x="144.5" y="933" id="svg_60" stroke-width="0" font-size="14" font-family="'Roboto Mono'" text-anchor="start" xml:space="preserve">${H_1_4}</text>
     <text fill="#f6f6f6" x="43" y="968" id="svg_50" stroke-width="0" font-size="16" font-family="'Roboto Mono'" text-anchor="start" xml:space="preserve">Читання</text>
     <text fill="#323232" x="143.5" y="968" id="svg_53" stroke-width="0" font-size="14" font-family="'Roboto Mono'" text-anchor="start" xml:space="preserve">${H_1_5}</text>
    </g>
   </g>
   <g>
    <text stroke="null" fill="#f6f6f6" x="217" y="1018" id="svg_120" stroke-width="0" font-size="16" font-family="'Roboto Mono'" text-anchor="start" xml:space="preserve">Вдосконалюймо своє служіння</text>
    <g>
     <text fill="#f6f6f6" x="36.5" y="1062" id="svg_109" stroke-width="0" font-size="16" font-family="'Roboto Mono'" text-anchor="start" xml:space="preserve">Розмова 1</text>
     <text fill="#323232" x="144.5" y="1062" id="svg_112" stroke-width="0" font-size="14" font-family="'Roboto Mono'" text-anchor="start" xml:space="preserve">${H_1_6}</text>
     <text fill="#f6f6f6" x="36.5" y="1098" id="svg_102" stroke-width="0" font-size="16" font-family="'Roboto Mono'" text-anchor="start" xml:space="preserve">Розмова 2</text>
     <text fill="#323232" x="144.5" y="1098" id="svg_105" stroke-width="0" font-size="14" font-family="'Roboto Mono'" text-anchor="start" xml:space="preserve">${H_1_7}</text>
     <text fill="#f6f6f6" x="36.5" y="1135" id="svg_94" stroke-width="0" font-size="16" font-family="'Roboto Mono'" text-anchor="start" xml:space="preserve">Розмова 3</text>
     <text fill="#323232" x="144.5" y="1134" id="svg_97" stroke-width="0" font-size="14" font-family="'Roboto Mono'" text-anchor="start" xml:space="preserve">${H_1_8}</text>
     <text fill="#f6f6f6" x="35" y="1169" id="svg_87" stroke-width="0" font-size="16" font-family="'Roboto Mono'" text-anchor="start" xml:space="preserve">Розмова 4</text>
     <text fill="#323232" x="144.5" y="1169" id="svg_90" stroke-width="0" font-size="14" font-family="'Roboto Mono'" text-anchor="start" xml:space="preserve">${H_1_9}</text>
    </g>
   </g>
   <g>
    <text stroke="null" fill="#f6f6f6" x="263" y="1221" id="svg_39" stroke-width="0" font-size="16" font-family="'Roboto Mono'" text-anchor="start" xml:space="preserve">Християнське життя</text>
    <g>
     <text fill="#f6f6f6" x="43.5" y="1265" id="svg_30" stroke-width="0" font-size="16" font-family="'Roboto Mono'" text-anchor="start" xml:space="preserve">Пункт 1</text>
     <text fill="#323232" x="144.5" y="1265" id="svg_33" stroke-width="0" font-size="14" font-family="'Roboto Mono'" text-anchor="start" xml:space="preserve">${H_1_10}</text>
     <text fill="#f6f6f6" x="45" y="1301" id="svg_23" stroke-width="0" font-size="16" font-family="'Roboto Mono'" text-anchor="start" xml:space="preserve">Пункт 2</text>
     <text fill="#323232" x="144.5" y="1301" id="svg_26" stroke-width="0" font-size="14" font-family="'Roboto Mono'" text-anchor="start" xml:space="preserve">${H_1_11}</text>
     <text fill="#f6f6f6" x="43.5" y="1338" id="svg_16" stroke-width="0" font-size="16" font-family="'Roboto Mono'" text-anchor="start" xml:space="preserve">Пункт 3</text>
     <text fill="#323232" x="144.5" y="1337" id="svg_19" stroke-width="0" font-size="14" font-family="'Roboto Mono'" text-anchor="start" xml:space="preserve">${H_1_12}</text>
     <text fill="#f6f6f6" x="38" y="1372" id="svg_150" stroke-width="0" font-size="16" font-family="'Roboto Mono'" text-anchor="start" xml:space="preserve">Вивчення</text>
     <text fill="#323232" x="142.5" y="1372" id="svg_152" stroke-width="0" font-size="14" font-family="'Roboto Mono'" text-anchor="start" xml:space="preserve">${H_1_13}</text>
     <text fill="#f6f6f6" x="382" y="1372" id="svg_144" stroke-width="0" font-size="16" font-family="'Roboto Mono'" text-anchor="start" xml:space="preserve">Читець</text>
     <text fill="#323232" x="475.5" y="1372" id="svg_146" stroke-width="0" font-size="14" font-family="'Roboto Mono'" text-anchor="start" xml:space="preserve">${H_1_14}</text>
     <text fill="#f6f6f6" x="43" y="1408" id="svg_9" stroke-width="0" font-size="16" font-family="'Roboto Mono'" text-anchor="start" xml:space="preserve">Молитва</text>
     <text fill="#323232" x="143.5" y="1408" id="svg_12" stroke-width="0" font-size="14" font-family="'Roboto Mono'" text-anchor="start" xml:space="preserve">${H_1_15}</text>
    </g>
   </g>
  </g>

  <g>
   <rect stroke="null" fill="#f6f6f6" x="698" y="727" width="675" height="708" id="svg_176" rx="10"/>
   <g>
    <rect fill="#ffffff" x="708" y="784" width="655" height="40" id="svg_177" rx="10"/>
    <rect fill="#f6f6f6" stroke="null" stroke-width="0" x="824" y="789" width="197" height="30" id="svg_178" rx="10"/>
    <rect fill="#779953" stroke-width="0" x="714" y="789" width="100" height="30" id="svg_179" stroke="null" rx="10"/>
    <rect fill="#f6f6f6" stroke="null" stroke-width="0" x="1157" y="789" width="197" height="30" id="svg_180" rx="10"/>
    <rect fill="#779953" stroke-width="0" x="1047" y="789" width="100" height="30" id="svg_181" stroke="null" rx="10"/>
   </g>
   <g>
    <rect fill="#ffffff" x="708" y="828" width="655" height="40" id="svg_183" rx="10"/>
    <rect fill="#7c7c7c" stroke-width="0" x="715.5" y="833" width="640" height="30" id="svg_184" stroke="null" rx="10"/>
    <rect fill="#ffffff" stroke="null" x="708" y="873.00001" width="655" height="111" id="svg_185" rx="10"/>
    <rect fill="#7c7c7c" stroke-width="0" x="715.5" y="878" width="100" height="30" id="svg_186" stroke="null" rx="10"/>
    <rect fill="#f6f6f6" stroke-width="0" x="826" y="878" width="530" height="30" id="svg_187" stroke="null" rx="10"/>
    <rect fill="#7c7c7c" stroke-width="0" x="715.5" y="914" width="100" height="30" id="svg_188" stroke="null" rx="10"/>
    <rect fill="#f6f6f6" stroke-width="0" x="826" y="914" width="530" height="30" id="svg_189" stroke="null" rx="10"/>
    <rect fill="#7c7c7c" stroke-width="0" x="716" y="949" width="100" height="30" id="svg_190" stroke="null" rx="10"/>
    <rect fill="#f6f6f6" stroke-width="0" x="826" y="949" width="530" height="30" id="svg_191" stroke="null" rx="10"/>
   </g>
   <g>
    <rect fill="#ffffff" x="708" y="994" width="655" height="40" id="svg_193" rx="10"/>
    <rect fill="#c5ba59" stroke-width="0" x="715.5" y="999" width="640" height="30" id="svg_194" stroke="null" rx="10"/>
    <rect fill="#ffffff" x="708" y="1038" width="655" height="147" id="svg_195" rx="10" stroke="null"/>
    <rect fill="#f6f6f6" stroke-width="0" x="826" y="1043" width="530" height="30" id="svg_196" stroke="null" rx="10"/>
    <rect fill="#c5ba59" stroke-width="0" x="717.5" y="1043" width="101" height="30" id="svg_197" stroke="null" rx="10"/>
    <rect fill="#f6f6f6" stroke-width="0" x="826" y="1079" width="530" height="30" id="svg_198" stroke="null" rx="10"/>
    <rect fill="#c5ba59" stroke-width="0" x="717" y="1079" width="100" height="30" id="svg_199" stroke="null" rx="10"/>
    <rect fill="#f6f6f6" stroke-width="0" x="826" y="1115" width="530" height="30" id="svg_200" stroke="null" rx="10"/>
    <rect fill="#c5ba59" stroke-width="0" x="717" y="1115" width="100" height="30" id="svg_201" stroke="null" rx="10"/>
    <rect fill="#f6f6f6" stroke-width="0" x="827" y="1150" width="530" height="30" id="svg_202" stroke="null" rx="10"/>
    <rect fill="#c5ba59" stroke-width="0" x="717" y="1150" width="100" height="30" id="svg_203" stroke="null" rx="10"/>
   </g>
   <g>
    <rect fill="#ffffff" x="708" y="1197" width="655" height="40" id="svg_205" rx="10"/>
    <rect fill="#a14a2e" stroke-width="0" x="715.5" y="1202" width="640" height="30" id="svg_206" stroke="null" rx="10"/>
    <rect fill="#ffffff" stroke="null" x="708" y="1241" width="655" height="183" id="svg_207" rx="10"/>
    <rect fill="#f6f6f6" stroke-width="0" x="826" y="1246" width="530" height="30" id="svg_208" stroke="null" rx="10"/>
    <rect fill="#a14a2e" stroke-width="0" x="716" y="1246" width="101" height="30" id="svg_209" stroke="null" rx="10"/>
    <rect fill="#f6f6f6" stroke-width="0" x="826" y="1282" width="530" height="30" id="svg_210" stroke="null" rx="10"/>
    <rect fill="#a14a2e" stroke-width="0" x="715.5" y="1282" width="100" height="30" id="svg_211" stroke="null" rx="10"/>
    <rect fill="#f6f6f6" stroke-width="0" x="826" y="1318" width="530" height="30" id="svg_212" stroke="null" rx="10"/>
    <rect fill="#a14a2e" stroke-width="0" x="715.5" y="1318" width="100" height="30" id="svg_213" stroke="null" rx="10"/>
    <rect fill="#f6f6f6" stroke="null" stroke-width="0" x="825" y="1353" width="197" height="30" id="svg_214" rx="10"/>
    <rect fill="#a14a2e" stroke-width="0" x="715" y="1353" width="100" height="30" id="svg_215" stroke="null" rx="10"/>
    <rect fill="#f6f6f6" stroke="null" stroke-width="0" x="1158" y="1353" width="197" height="30" id="svg_216" rx="10"/>
    <rect fill="#a14a2e" stroke-width="0" x="1048" y="1353" width="100" height="30" id="svg_217" stroke="null" rx="10"/>
    <rect fill="#f6f6f6" stroke-width="0" x="826" y="1389" width="530" height="30" id="svg_218" stroke="null" rx="10"/>
    <rect fill="#a14a2e" stroke-width="0" x="716" y="1389" width="100" height="30" id="svg_219" stroke="null" rx="10"/>
   </g>
   <text fill="#323232" x="964.98438" y="767" id="svg_221" stroke-width="0" font-size="24" font-family="'Roboto Mono'" text-anchor="start" xml:space="preserve">${H_1_0}</text>
   <g>
    <text fill="#f6f6f6" x="729" y="809" id="svg_222" stroke-width="0" font-size="16" font-family="'Roboto Mono'" text-anchor="start" xml:space="preserve">Ведучий</text>
    <text fill="#323232" x="829.5" y="809" id="svg_223" stroke-width="0" font-size="14" font-family="'Roboto Mono'" text-anchor="start" xml:space="preserve">${H_1_1}</text>
    <text fill="#f6f6f6" x="1064" y="809" id="svg_224" stroke-width="0" font-size="16" font-family="'Roboto Mono'" text-anchor="start" xml:space="preserve">Молитва</text>
    <text fill="#323232" x="1162.5" y="809" id="svg_225" stroke-width="0" font-size="14" font-family="'Roboto Mono'" text-anchor="start" xml:space="preserve">${H_1_2}</text>
   </g>
   <g>
    <text stroke="null" fill="#f6f6f6" x="933" y="853" id="svg_227" stroke-width="0" font-size="16" font-family="'Roboto Mono'" text-anchor="start" xml:space="preserve">Скарби з Божого слова</text>
    <g>
     <text fill="#f6f6f6" x="733" y="898" id="svg_229" stroke-width="0" font-size="16" font-family="'Roboto Mono'" text-anchor="start" xml:space="preserve">Промова</text>
     <text fill="#323232" x="832.5" y="898" id="svg_230" stroke-width="0" font-size="14" font-family="'Roboto Mono'" text-anchor="start" xml:space="preserve">${H_1_3}</text>
     <text fill="#f6f6f6" x="731.5" y="935" id="svg_231" stroke-width="0" font-size="16" font-family="'Roboto Mono'" text-anchor="start" xml:space="preserve">Перлини</text>
     <text fill="#323232" x="832.5" y="934" id="svg_232" stroke-width="0" font-size="14" font-family="'Roboto Mono'" text-anchor="start" xml:space="preserve">${H_1_4}</text>
     <text fill="#f6f6f6" x="731" y="969" id="svg_233" stroke-width="0" font-size="16" font-family="'Roboto Mono'" text-anchor="start" xml:space="preserve">Читання</text>
     <text fill="#323232" x="831.5" y="969" id="svg_234" stroke-width="0" font-size="14" font-family="'Roboto Mono'" text-anchor="start" xml:space="preserve">${H_1_5}</text>
    </g>
   </g>
   <g>
    <text stroke="null" fill="#f6f6f6" x="905" y="1019" id="svg_237" stroke-width="0" font-size="16" font-family="'Roboto Mono'" text-anchor="start" xml:space="preserve">Вдосконалюймо своє служіння</text>
    <g>
     <text fill="#f6f6f6" x="724.5" y="1063" id="svg_238" stroke-width="0" font-size="16" font-family="'Roboto Mono'" text-anchor="start" xml:space="preserve">Розмова 1</text>
     <text fill="#323232" x="832.5" y="1063" id="svg_239" stroke-width="0" font-size="14" font-family="'Roboto Mono'" text-anchor="start" xml:space="preserve">${H_1_6}</text>
     <text fill="#f6f6f6" x="724.5" y="1099" id="svg_240" stroke-width="0" font-size="16" font-family="'Roboto Mono'" text-anchor="start" xml:space="preserve">Розмова 2</text>
     <text fill="#323232" x="832.5" y="1099" id="svg_241" stroke-width="0" font-size="14" font-family="'Roboto Mono'" text-anchor="start" xml:space="preserve">${H_1_7}</text>
     <text fill="#f6f6f6" x="724.5" y="1136" id="svg_242" stroke-width="0" font-size="16" font-family="'Roboto Mono'" text-anchor="start" xml:space="preserve">Розмова 3</text>
     <text fill="#323232" x="832.5" y="1135" id="svg_243" stroke-width="0" font-size="14" font-family="'Roboto Mono'" text-anchor="start" xml:space="preserve">${H_1_8}</text>
     <text fill="#f6f6f6" x="723" y="1170" id="svg_244" stroke-width="0" font-size="16" font-family="'Roboto Mono'" text-anchor="start" xml:space="preserve">Розмова 4</text>
     <text fill="#323232" x="832.5" y="1170" id="svg_245" stroke-width="0" font-size="14" font-family="'Roboto Mono'" text-anchor="start" xml:space="preserve">${H_1_9}</text>
    </g>
   </g>
   <g>
    <text stroke="null" fill="#f6f6f6" x="951" y="1222" id="svg_248" stroke-width="0" font-size="16" font-family="'Roboto Mono'" text-anchor="start" xml:space="preserve">Християнське життя</text>
    <g>
     <text fill="#f6f6f6" x="731.5" y="1266" id="svg_249" stroke-width="0" font-size="16" font-family="'Roboto Mono'" text-anchor="start" xml:space="preserve">Пункт 1</text>
     <text fill="#323232" x="832.5" y="1266" id="svg_250" stroke-width="0" font-size="14" font-family="'Roboto Mono'" text-anchor="start" xml:space="preserve">${H_1_10}</text>
     <text fill="#f6f6f6" x="733" y="1302" id="svg_251" stroke-width="0" font-size="16" font-family="'Roboto Mono'" text-anchor="start" xml:space="preserve">Пункт 2</text>
     <text fill="#323232" x="832.5" y="1302" id="svg_252" stroke-width="0" font-size="14" font-family="'Roboto Mono'" text-anchor="start" xml:space="preserve">${H_1_11}</text>
     <text fill="#f6f6f6" x="731.5" y="1339" id="svg_253" stroke-width="0" font-size="16" font-family="'Roboto Mono'" text-anchor="start" xml:space="preserve">Пункт 3</text>
     <text fill="#323232" x="832.5" y="1338" id="svg_254" stroke-width="0" font-size="14" font-family="'Roboto Mono'" text-anchor="start" xml:space="preserve">${H_1_12}</text>
     <text fill="#f6f6f6" x="726" y="1373" id="svg_255" stroke-width="0" font-size="16" font-family="'Roboto Mono'" text-anchor="start" xml:space="preserve">Вивчення</text>
     <text fill="#323232" x="830.5" y="1373" id="svg_256" stroke-width="0" font-size="14" font-family="'Roboto Mono'" text-anchor="start" xml:space="preserve">${H_1_13}</text>
     <text fill="#f6f6f6" x="1070" y="1373" id="svg_257" stroke-width="0" font-size="16" font-family="'Roboto Mono'" text-anchor="start" xml:space="preserve">Читець</text>
     <text fill="#323232" x="1163.5" y="1373" id="svg_258" stroke-width="0" font-size="14" font-family="'Roboto Mono'" text-anchor="start" xml:space="preserve">${H_1_14}</text>
     <text fill="#f6f6f6" x="731" y="1409" id="svg_259" stroke-width="0" font-size="16" font-family="'Roboto Mono'" text-anchor="start" xml:space="preserve">Молитва</text>
     <text fill="#323232" x="831.5" y="1409" id="svg_260" stroke-width="0" font-size="14" font-family="'Roboto Mono'" text-anchor="start" xml:space="preserve">${H_1_15}</text>
    </g>
   </g>
  </g>

 </g>

</svg>