<svg width="695" height="570" xmlns="http://www.w3.org/2000/svg" version="1.1">
 <g>
  <title>Layer 1</title>
  <rect stroke="null" id="svg_1" height="570" width="695" y="0" x="0" stroke-width="0" fill="#ffffff"/>
  <text xml:space="preserve" text-anchor="start" font-family="'Roboto Mono'" font-size="16" stroke-width="0" id="svg_98" y="335" x="36.5" fill="#f6f6f6">В.</text>
  <text xml:space="preserve" text-anchor="start" font-family="'Roboto Mono'" font-size="16" stroke-width="0" id="svg_36" y="357" x="34" fill="#f6f6f6">Н3</text>
  <g id="svg_213">
   <rect rx="10" id="svg_149" height="550" width="675" y="10" x="10" fill="#f6f6f6"/>
   <g id="svg_154">
    <rect rx="10" id="svg_150" height="40" width="655" y="511" x="21" fill="#ffffff"/>
    <rect rx="10" stroke="null" id="svg_151" height="30" width="30" y="516" x="29" stroke-width="0" fill="#a14a2e"/>
    <rect rx="10" stroke="null" id="svg_152" height="30" width="120" y="516" x="62.5" stroke-width="0" fill="#f6f6f6"/>
    <text xml:space="preserve" text-anchor="start" font-family="'Roboto Mono'" font-size="16" stroke-width="0" id="svg_153" y="536" x="37" fill="#f6f6f6">М.</text>
   </g>
   <g id="svg_162">
    <rect rx="10" id="svg_155" height="40" width="655" y="466" x="21" fill="#ffffff"/>
    <rect rx="10" stroke="null" id="svg_156" height="30" width="30" y="471" x="29" stroke-width="0" fill="#a14a2e"/>
    <rect rx="10" stroke="null" id="svg_157" height="30" width="120" y="471" x="63" stroke-width="0" fill="#f6f6f6"/>
    <text xml:space="preserve" text-anchor="start" font-family="'Roboto Mono'" font-size="16" stroke-width="0" id="svg_158" y="491" x="38" fill="#f6f6f6">И.</text>
    <rect rx="10" stroke="null" id="svg_159" height="30" width="30" y="471" x="189.5" stroke-width="0" fill="#a14a2e"/>
    <rect rx="10" stroke="null" id="svg_160" height="30" width="120" y="471" x="223.5" stroke-width="0" fill="#f6f6f6"/>
    <text xml:space="preserve" text-anchor="start" font-family="'Roboto Mono'" font-size="16" stroke-width="0" id="svg_161" y="491" x="198.5" fill="#f6f6f6">Ч.</text>
   </g>
   <g id="svg_173">
    <rect rx="10" id="svg_163" height="40" width="655" y="421" x="21" fill="#ffffff"/>
    <rect rx="10" stroke="null" id="svg_164" height="30" width="120" y="426" x="383.5" stroke-width="0" fill="#f6f6f6"/>
    <rect rx="10" stroke="null" id="svg_165" height="30" width="30" y="426" x="29" stroke-width="0" fill="#a14a2e"/>
    <rect rx="10" stroke="null" id="svg_166" height="30" width="120" y="426" x="63" stroke-width="0" fill="#f6f6f6"/>
    <text xml:space="preserve" text-anchor="start" font-family="'Roboto Mono'" font-size="16" stroke-width="0" id="svg_167" y="446" x="36" fill="#f6f6f6">П1</text>
    <rect rx="10" stroke="null" id="svg_168" height="30" width="30" y="426" x="189.5" stroke-width="0" fill="#a14a2e"/>
    <rect rx="10" stroke="null" id="svg_169" height="30" width="120" y="426" x="223.5" stroke-width="0" fill="#f6f6f6"/>
    <text xml:space="preserve" text-anchor="start" font-family="'Roboto Mono'" font-size="16" stroke-width="0" id="svg_170" y="446" x="196" fill="#f6f6f6">П2</text>
    <rect rx="10" stroke="null" id="svg_171" height="30" width="30" y="426" x="349.5" stroke-width="0" fill="#a14a2e"/>
    <text xml:space="preserve" text-anchor="start" font-family="'Roboto Mono'" font-size="16" stroke-width="0" id="svg_172" y="446" x="356" fill="#f6f6f6">П3</text>
   </g>
   <g id="svg_177">
    <rect rx="10" id="svg_174" height="40" width="655" y="332" x="21" fill="#ffffff"/>
    <rect rx="10" stroke="null" id="svg_175" height="30" width="30" y="337" x="28.5" stroke-width="0" fill="#c5ba59"/>
    <rect rx="10" stroke="null" id="svg_176" height="30" width="608" y="337" x="62.5" stroke-width="0" fill="#f6f6f6"/>
   </g>
   <g id="svg_182">
    <rect rx="10" id="svg_178" height="40" width="655" y="376" x="21" fill="#ffffff"/>
    <rect rx="10" stroke="null" id="svg_179" height="30" width="30" y="381" x="28.5" stroke-width="0" fill="#c5ba59"/>
    <rect rx="10" stroke="null" id="svg_180" height="30" width="608" y="381" x="62.5" stroke-width="0" fill="#f6f6f6"/>
    <text xml:space="preserve" text-anchor="start" font-family="'Roboto Mono'" font-size="16" stroke-width="0" id="svg_181" y="401" x="35" fill="#f6f6f6">Н4</text>
   </g>
   <g id="svg_187">
    <rect rx="10" id="svg_183" height="40" width="655" y="288" x="21" fill="#ffffff"/>
    <rect rx="10" stroke="null" id="svg_184" height="30" width="30" y="293" x="28.5" stroke-width="0" fill="#c5ba59"/>
    <rect rx="10" stroke="null" id="svg_185" height="30" width="608" y="293" x="62.5" stroke-width="0" fill="#f6f6f6"/>
    <text xml:space="preserve" text-anchor="start" font-family="'Roboto Mono'" font-size="16" stroke-width="0" id="svg_186" y="313" x="35" fill="#f6f6f6">Н2</text>
   </g>
   <g id="svg_192">
    <rect rx="10" id="svg_188" height="40" width="655" y="243" x="21" fill="#ffffff"/>
    <rect rx="10" stroke="null" id="svg_189" height="30" width="30" y="248" x="29" stroke-width="0" fill="#c5ba59"/>
    <rect rx="10" stroke="null" id="svg_190" height="30" width="608" y="248" x="62.5" stroke-width="0" fill="#f6f6f6"/>
    <text xml:space="preserve" text-anchor="start" font-family="'Roboto Mono'" font-size="16" stroke-width="0" id="svg_191" y="268" x="35" fill="#f6f6f6">Н1</text>
   </g>
   <g id="svg_197">
    <rect rx="10" id="svg_193" height="40" width="655" y="198" x="21" fill="#ffffff"/>
    <rect rx="10" stroke="null" id="svg_194" height="30" width="30" y="203" x="29" stroke-width="0" fill="#7c7c7c"/>
    <rect rx="10" stroke="null" id="svg_195" height="30" width="120" y="203" x="62.5" stroke-width="0" fill="#f6f6f6"/>
    <text xml:space="preserve" text-anchor="start" font-family="'Roboto Mono'" font-size="16" stroke-width="0" id="svg_196" y="223" x="37" fill="#f6f6f6">Ч.</text>
   </g>
   <g id="svg_202">
    <rect rx="10" id="svg_198" height="40" width="655" y="153" x="20" fill="#ffffff"/>
    <rect rx="10" stroke="null" id="svg_199" height="30" width="30" y="158" x="27.5" stroke-width="0" fill="#7c7c7c"/>
    <rect rx="10" stroke="null" id="svg_200" height="30" width="120" y="158" x="61.5" stroke-width="0" fill="#f6f6f6"/>
    <text xml:space="preserve" text-anchor="start" font-family="'Roboto Mono'" font-size="16" stroke-width="0" id="svg_201" y="178" x="36.5" fill="#f6f6f6">Ж.</text>
   </g>
   <g id="svg_207">
    <rect rx="10" id="svg_203" height="40" width="655" y="109" x="20" fill="#ffffff"/>
    <rect rx="10" stroke="null" id="svg_204" height="30" width="30" y="114" x="27.5" stroke-width="0" fill="#7c7c7c"/>
    <rect rx="10" stroke="null" id="svg_205" height="30" width="120" y="114" x="61.5" stroke-width="0" fill="#f6f6f6"/>
    <text xml:space="preserve" text-anchor="start" font-family="'Roboto Mono'" font-size="16" stroke-width="0" id="svg_206" y="134" x="36" fill="#f6f6f6">Р.</text>
   </g>
   <g id="svg_212">
    <rect rx="10" id="svg_208" height="40" width="655" y="65" x="20" fill="#ffffff"/>
    <rect rx="10" stroke="null" id="svg_209" height="30" width="30" y="70" x="27.5" stroke-width="0" fill="#7c7c7c"/>
    <rect rx="10" stroke="null" id="svg_210" height="30" width="120" y="70" x="61.5" stroke-width="0" fill="#f6f6f6"/>
    <text xml:space="preserve" text-anchor="start" font-family="'Roboto Mono'" font-size="16" stroke-width="0" id="svg_211" y="90" x="36.5" fill="#f6f6f6">В.</text>
   </g>
  </g>
  <text xml:space="preserve" text-anchor="start" font-family="'Roboto Mono'" font-size="14" stroke-width="0" id="svg_214" y="401" x="68" fill="#323232">${name_2_1_9}</text>
  <text xml:space="preserve" text-anchor="start" font-family="'Roboto Mono'" font-size="14" stroke-width="0" id="svg_215" y="357" x="68" fill="#323232">${name_2_1_8}</text>
  <text xml:space="preserve" text-anchor="start" font-family="'Roboto Mono'" font-size="14" stroke-width="0" id="svg_216" y="313" x="68" fill="#323232">${name_2_1_7}</text>
  <text xml:space="preserve" text-anchor="start" font-family="'Roboto Mono'" font-size="14" stroke-width="0" id="svg_217" y="268" x="68" fill="#323232">${name_2_1_6}</text>
  <text xml:space="preserve" text-anchor="start" font-family="'Roboto Mono'" font-size="14" stroke-width="0" id="svg_218" y="178" x="68" fill="#323232">${name_2_1_4}</text>
  <text xml:space="preserve" text-anchor="start" font-family="'Roboto Mono'" font-size="14" stroke-width="0" id="svg_219" y="134" x="68" fill="#323232">${name_2_1_3}</text>
  <text xml:space="preserve" text-anchor="start" font-family="'Roboto Mono'" font-size="14" stroke-width="0" id="svg_220" y="90" x="68" fill="#323232">${name_2_1_2}</text>
  <text xml:space="preserve" text-anchor="start" font-family="'Roboto Mono'" font-size="14" stroke-width="0" id="svg_221" y="491" x="68.5" fill="#323232">${name_2_1_13}</text>
  <text xml:space="preserve" text-anchor="start" font-family="'Roboto Mono'" font-size="14" stroke-width="0" id="svg_222" y="491" x="229" fill="#323232">${name_2_1_14}</text>
  <text xml:space="preserve" text-anchor="start" font-family="'Roboto Mono'" font-size="14" stroke-width="0" id="svg_223" y="446" x="389" fill="#323232">${name_2_1_12}</text>
  <text xml:space="preserve" text-anchor="start" font-family="'Roboto Mono'" font-size="14" stroke-width="0" id="svg_224" y="446" x="68.5" fill="#323232">${name_2_1_10}</text>
  <text xml:space="preserve" text-anchor="start" font-family="'Roboto Mono'" font-size="14" stroke-width="0" id="svg_225" y="446" x="229" fill="#323232">${name_2_1_11}</text>
  <text xml:space="preserve" text-anchor="start" font-family="'Roboto Mono'" font-size="14" stroke-width="0" id="svg_226" y="223" x="68" fill="#323232">${name_2_1_5}</text>
  <text xml:space="preserve" text-anchor="start" font-family="'Roboto Mono'" font-size="14" stroke-width="0" id="svg_227" y="536" x="68" fill="#323232">${name_2_1_15}</text>
  <text font-style="normal" font-weight="normal" xml:space="preserve" text-anchor="start" font-family="'Roboto Mono'" font-size="24" stroke-width="0" id="svg_228" y="50" x="276.98438" fill="#323232">${name_2_1_1}</text>
  <text fill="#f6f6f6" stroke-width="0" x="34" y="358" id="svg_395" font-size="16" font-family="'Roboto Mono'" text-anchor="start" xml:space="preserve">Н3</text>
 </g>

</svg>