<svg width="1380" height="570" xmlns="http://www.w3.org/2000/svg" version="1.1">
 <g>
  <title>Layer 1</title>
  <rect stroke="#000" fill="#fff" x="0" y="0" width="1380" height="570" id="svg_2" stroke-width="0"/>
  <g id="svg_1">
   <rect rx="10" id="svg_230" height="550" width="675" y="10" x="695" fill="#f6f6f6"/>
   <rect rx="10" id="svg_244" height="40" width="655" y="421" x="706" fill="#ffffff"/>
  </g>
  <rect rx="10" id="svg_269" height="40" width="655" y="243" x="706" fill="#ffffff"/>
  <rect rx="10" id="svg_264" height="40" width="655" y="288" x="706" fill="#ffffff"/>
  <rect rx="10" stroke="null" id="svg_266" height="30" width="608" y="293" x="747.5" stroke-width="0" fill="#f6f6f6"/>
  <text xml:space="preserve" text-anchor="start" font-family="'Roboto Mono'" font-size="16" stroke-width="0" id="svg_98" y="335" x="36.5" fill="#f6f6f6">В.</text>
  <text xml:space="preserve" text-anchor="start" font-family="'Roboto Mono'" font-size="16" stroke-width="0" id="svg_36" y="357" x="34" fill="#f6f6f6">Н3</text>
  <g id="svg_213">
   <rect rx="10" id="svg_149" height="550" width="675" y="10" x="10" fill="#f6f6f6"/>
   <g id="svg_154">
    <rect rx="10" id="svg_150" height="40" width="655" y="511" x="21" fill="#ffffff"/>
    <rect rx="10" stroke="null" id="svg_151" height="30" width="30" y="516" x="29" stroke-width="0" fill="#a14a2e"/>
    <rect rx="10" stroke="null" id="svg_152" height="30" width="120" y="516" x="62.5" stroke-width="0" fill="#f6f6f6"/>
    <text xml:space="preserve" text-anchor="start" font-family="'Roboto Mono'" font-size="16" stroke-width="0" id="svg_153" y="536" x="37" fill="#f6f6f6">М.</text>
   </g>
   <g id="svg_162">
    <rect rx="10" id="svg_155" height="40" width="655" y="466" x="21" fill="#ffffff"/>
    <rect rx="10" stroke="null" id="svg_156" height="30" width="30" y="471" x="29" stroke-width="0" fill="#a14a2e"/>
    <rect rx="10" stroke="null" id="svg_157" height="30" width="120" y="471" x="63" stroke-width="0" fill="#f6f6f6"/>
    <text xml:space="preserve" text-anchor="start" font-family="'Roboto Mono'" font-size="16" stroke-width="0" id="svg_158" y="491" x="38" fill="#f6f6f6">И.</text>
    <rect rx="10" stroke="null" id="svg_159" height="30" width="30" y="471" x="189.5" stroke-width="0" fill="#a14a2e"/>
    <rect rx="10" stroke="null" id="svg_160" height="30" width="120" y="471" x="223.5" stroke-width="0" fill="#f6f6f6"/>
    <text xml:space="preserve" text-anchor="start" font-family="'Roboto Mono'" font-size="16" stroke-width="0" id="svg_161" y="491" x="198.5" fill="#f6f6f6">Ч.</text>
   </g>
   <g id="svg_173">
    <rect rx="10" id="svg_163" height="40" width="655" y="421" x="21" fill="#ffffff"/>
    <rect rx="10" stroke="null" id="svg_164" height="30" width="120" y="426" x="383.5" stroke-width="0" fill="#f6f6f6"/>
    <rect rx="10" stroke="null" id="svg_165" height="30" width="30" y="426" x="29" stroke-width="0" fill="#a14a2e"/>
    <rect rx="10" stroke="null" id="svg_166" height="30" width="120" y="426" x="63" stroke-width="0" fill="#f6f6f6"/>
    <text xml:space="preserve" text-anchor="start" font-family="'Roboto Mono'" font-size="16" stroke-width="0" id="svg_167" y="446" x="36" fill="#f6f6f6">П1</text>
    <rect rx="10" stroke="null" id="svg_168" height="30" width="30" y="426" x="189.5" stroke-width="0" fill="#a14a2e"/>
    <rect rx="10" stroke="null" id="svg_169" height="30" width="120" y="426" x="223.5" stroke-width="0" fill="#f6f6f6"/>
    <text xml:space="preserve" text-anchor="start" font-family="'Roboto Mono'" font-size="16" stroke-width="0" id="svg_170" y="446" x="196" fill="#f6f6f6">П2</text>
    <rect rx="10" stroke="null" id="svg_171" height="30" width="30" y="426" x="349.5" stroke-width="0" fill="#a14a2e"/>
    <text xml:space="preserve" text-anchor="start" font-family="'Roboto Mono'" font-size="16" stroke-width="0" id="svg_172" y="446" x="356" fill="#f6f6f6">П3</text>
   </g>
   <g id="svg_177">
    <rect rx="10" id="svg_174" height="40" width="655" y="332" x="21" fill="#ffffff"/>
    <rect rx="10" stroke="null" id="svg_175" height="30" width="30" y="337" x="28.5" stroke-width="0" fill="#c5ba59"/>
    <rect rx="10" stroke="null" id="svg_176" height="30" width="608" y="337" x="62.5" stroke-width="0" fill="#f6f6f6"/>
   </g>
   <g id="svg_182">
    <rect rx="10" id="svg_178" height="40" width="655" y="376" x="21" fill="#ffffff"/>
    <rect rx="10" stroke="null" id="svg_179" height="30" width="30" y="381" x="28.5" stroke-width="0" fill="#c5ba59"/>
    <rect rx="10" stroke="null" id="svg_180" height="30" width="608" y="381" x="62.5" stroke-width="0" fill="#f6f6f6"/>
    <text xml:space="preserve" text-anchor="start" font-family="'Roboto Mono'" font-size="16" stroke-width="0" id="svg_181" y="401" x="35" fill="#f6f6f6">Н4</text>
   </g>
   <g id="svg_187">
    <rect rx="10" id="svg_183" height="40" width="655" y="288" x="21" fill="#ffffff"/>
    <rect rx="10" stroke="null" id="svg_184" height="30" width="30" y="293" x="28.5" stroke-width="0" fill="#c5ba59"/>
    <rect rx="10" stroke="null" id="svg_185" height="30" width="608" y="293" x="62.5" stroke-width="0" fill="#f6f6f6"/>
    <text xml:space="preserve" text-anchor="start" font-family="'Roboto Mono'" font-size="16" stroke-width="0" id="svg_186" y="313" x="35" fill="#f6f6f6">Н2</text>
   </g>
   <g id="svg_192">
    <rect rx="10" id="svg_188" height="40" width="655" y="243" x="21" fill="#ffffff"/>
    <rect rx="10" stroke="null" id="svg_189" height="30" width="30" y="248" x="29" stroke-width="0" fill="#c5ba59"/>
    <rect rx="10" stroke="null" id="svg_190" height="30" width="608" y="248" x="62.5" stroke-width="0" fill="#f6f6f6"/>
    <text xml:space="preserve" text-anchor="start" font-family="'Roboto Mono'" font-size="16" stroke-width="0" id="svg_191" y="268" x="35" fill="#f6f6f6">Н1</text>
   </g>
   <g id="svg_197">
    <rect rx="10" id="svg_193" height="40" width="655" y="198" x="21" fill="#ffffff"/>
    <rect rx="10" stroke="null" id="svg_194" height="30" width="30" y="203" x="29" stroke-width="0" fill="#7c7c7c"/>
    <rect rx="10" stroke="null" id="svg_195" height="30" width="120" y="203" x="62.5" stroke-width="0" fill="#f6f6f6"/>
    <text xml:space="preserve" text-anchor="start" font-family="'Roboto Mono'" font-size="16" stroke-width="0" id="svg_196" y="223" x="37" fill="#f6f6f6">Ч.</text>
   </g>
   <g id="svg_202">
    <rect rx="10" id="svg_198" height="40" width="655" y="153" x="20" fill="#ffffff"/>
    <rect rx="10" stroke="null" id="svg_199" height="30" width="30" y="158" x="27.5" stroke-width="0" fill="#7c7c7c"/>
    <rect rx="10" stroke="null" id="svg_200" height="30" width="120" y="158" x="61.5" stroke-width="0" fill="#f6f6f6"/>
    <text xml:space="preserve" text-anchor="start" font-family="'Roboto Mono'" font-size="16" stroke-width="0" id="svg_201" y="178" x="36.5" fill="#f6f6f6">Ж.</text>
   </g>
   <g id="svg_207">
    <rect rx="10" id="svg_203" height="40" width="655" y="109" x="20" fill="#ffffff"/>
    <rect rx="10" stroke="null" id="svg_204" height="30" width="30" y="114" x="27.5" stroke-width="0" fill="#7c7c7c"/>
    <rect rx="10" stroke="null" id="svg_205" height="30" width="120" y="114" x="61.5" stroke-width="0" fill="#f6f6f6"/>
    <text xml:space="preserve" text-anchor="start" font-family="'Roboto Mono'" font-size="16" stroke-width="0" id="svg_206" y="134" x="36" fill="#f6f6f6">Р.</text>
   </g>
   <g id="svg_212">
    <rect rx="10" id="svg_208" height="40" width="655" y="65" x="20" fill="#ffffff"/>
    <rect rx="10" stroke="null" id="svg_209" height="30" width="30" y="70" x="27.5" stroke-width="0" fill="#7c7c7c"/>
    <rect rx="10" stroke="null" id="svg_210" height="30" width="120" y="70" x="61.5" stroke-width="0" fill="#f6f6f6"/>
    <text xml:space="preserve" text-anchor="start" font-family="'Roboto Mono'" font-size="16" stroke-width="0" id="svg_211" y="90" x="36.5" fill="#f6f6f6">В.</text>
   </g>
  </g>
  <text xml:space="preserve" text-anchor="start" font-family="'Roboto Mono'" font-size="14" stroke-width="0" id="svg_214" y="401" x="68" fill="#323232">${name_2_1_9}</text>
  <text xml:space="preserve" text-anchor="start" font-family="'Roboto Mono'" font-size="14" stroke-width="0" id="svg_215" y="357" x="68" fill="#323232">${name_2_1_8}</text>
  <text xml:space="preserve" text-anchor="start" font-family="'Roboto Mono'" font-size="14" stroke-width="0" id="svg_216" y="313" x="68" fill="#323232">${name_2_1_7}</text>
  <text xml:space="preserve" text-anchor="start" font-family="'Roboto Mono'" font-size="14" stroke-width="0" id="svg_217" y="268" x="68" fill="#323232">${name_2_1_6}</text>
  <text xml:space="preserve" text-anchor="start" font-family="'Roboto Mono'" font-size="14" stroke-width="0" id="svg_218" y="178" x="68" fill="#323232">${name_2_1_4}</text>
  <text xml:space="preserve" text-anchor="start" font-family="'Roboto Mono'" font-size="14" stroke-width="0" id="svg_219" y="134" x="68" fill="#323232">${name_2_1_3}</text>
  <text xml:space="preserve" text-anchor="start" font-family="'Roboto Mono'" font-size="14" stroke-width="0" id="svg_220" y="90" x="68" fill="#323232">${name_2_1_2}</text>
  <text xml:space="preserve" text-anchor="start" font-family="'Roboto Mono'" font-size="14" stroke-width="0" id="svg_221" y="491" x="68.5" fill="#323232">${name_2_1_13}</text>
  <text xml:space="preserve" text-anchor="start" font-family="'Roboto Mono'" font-size="14" stroke-width="0" id="svg_222" y="491" x="229" fill="#323232">${name_2_1_14}</text>
  <text xml:space="preserve" text-anchor="start" font-family="'Roboto Mono'" font-size="14" stroke-width="0" id="svg_223" y="446" x="389" fill="#323232">${name_2_1_12}</text>
  <text xml:space="preserve" text-anchor="start" font-family="'Roboto Mono'" font-size="14" stroke-width="0" id="svg_224" y="446" x="68.5" fill="#323232">${name_2_1_10}</text>
  <text xml:space="preserve" text-anchor="start" font-family="'Roboto Mono'" font-size="14" stroke-width="0" id="svg_225" y="446" x="229" fill="#323232">${name_2_1_11}</text>
  <text xml:space="preserve" text-anchor="start" font-family="'Roboto Mono'" font-size="14" stroke-width="0" id="svg_226" y="223" x="68" fill="#323232">${name_2_1_5}</text>
  <text xml:space="preserve" text-anchor="start" font-family="'Roboto Mono'" font-size="14" stroke-width="0" id="svg_227" y="536" x="68" fill="#323232">${name_2_1_15}</text>
  <text font-style="normal" font-weight="normal" xml:space="preserve" text-anchor="start" font-family="'Roboto Mono'" font-size="24" stroke-width="0" id="svg_228" y="50" x="276.98438" fill="#323232">${name_2_1_1}</text>
  <text fill="#f6f6f6" stroke-width="0" x="34" y="358" id="svg_395" font-size="16" font-family="'Roboto Mono'" text-anchor="start" xml:space="preserve">Н3</text>
  <rect rx="10" stroke="null" id="svg_245" height="30" width="120" y="426" x="1068.5" stroke-width="0" fill="#f6f6f6"/>
  <rect rx="10" stroke="null" id="svg_246" height="30" width="30" y="426" x="714" stroke-width="0" fill="#a14a2e"/>
  <rect rx="10" stroke="null" id="svg_247" height="30" width="120" y="426" x="748" stroke-width="0" fill="#f6f6f6"/>
  <text xml:space="preserve" text-anchor="start" font-family="'Roboto Mono'" font-size="16" stroke-width="0" id="svg_248" y="446" x="721" fill="#f6f6f6">П1</text>
  <rect rx="10" stroke="null" id="svg_249" height="30" width="30" y="426" x="874.5" stroke-width="0" fill="#a14a2e"/>
  <rect rx="10" stroke="null" id="svg_250" height="30" width="120" y="426" x="908.5" stroke-width="0" fill="#f6f6f6"/>
  <text xml:space="preserve" text-anchor="start" font-family="'Roboto Mono'" font-size="16" stroke-width="0" id="svg_251" y="446" x="881" fill="#f6f6f6">П2</text>
  <rect rx="10" stroke="null" id="svg_252" height="30" width="30" y="426" x="1034.5" stroke-width="0" fill="#a14a2e"/>
  <text xml:space="preserve" text-anchor="start" font-family="'Roboto Mono'" font-size="16" stroke-width="0" id="svg_253" y="446" x="1041" fill="#f6f6f6">П3</text>
  <text xml:space="preserve" text-anchor="start" font-family="'Roboto Mono'" font-size="14" stroke-width="0" id="svg_297" y="313" x="753" fill="#323232">${name_2_2_7}</text>
  <rect rx="10" stroke="null" id="svg_271" height="30" width="608" y="248" x="747.5" stroke-width="0" fill="#f6f6f6"/>
  <text xml:space="preserve" text-anchor="start" font-family="'Roboto Mono'" font-size="14" stroke-width="0" id="svg_298" y="268" x="753" fill="#323232">${name_2_2_6}</text>
  <rect rx="10" id="svg_279" height="40" width="655" y="153" x="705" fill="#ffffff"/>
  <rect rx="10" stroke="null" id="svg_281" height="30" width="120" y="158" x="746.5" stroke-width="0" fill="#f6f6f6"/>
  <text xml:space="preserve" text-anchor="start" font-family="'Roboto Mono'" font-size="14" stroke-width="0" id="svg_299" y="178" x="753" fill="#323232">${name_2_2_4}</text>
  <rect rx="10" id="svg_274" height="40" width="655" y="198" x="706" fill="#ffffff"/>
  <rect rx="10" stroke="null" id="svg_276" height="30" width="120" y="203" x="747.5" stroke-width="0" fill="#f6f6f6"/>
  <text xml:space="preserve" text-anchor="start" font-family="'Roboto Mono'" font-size="14" stroke-width="0" id="svg_307" y="223" x="753" fill="#323232">${name_2_2_5}</text>
  <g id="svg_235">
   <rect rx="10" id="svg_231" height="40" width="655" y="511" x="706" fill="#ffffff"/>
   <rect rx="10" stroke="null" id="svg_232" height="30" width="30" y="516" x="714" stroke-width="0" fill="#a14a2e"/>
   <rect rx="10" stroke="null" id="svg_233" height="30" width="120" y="516" x="747.5" stroke-width="0" fill="#f6f6f6"/>
   <text xml:space="preserve" text-anchor="start" font-family="'Roboto Mono'" font-size="16" stroke-width="0" id="svg_234" y="536" x="722" fill="#f6f6f6">М.</text>
  </g>
  <text xml:space="preserve" text-anchor="start" font-family="'Roboto Mono'" font-size="14" stroke-width="0" id="svg_308" y="536" x="753" fill="#323232">${name_2_2_15}</text>
  <g id="svg_243">
   <rect rx="10" id="svg_236" height="40" width="655" y="466" x="706" fill="#ffffff"/>
   <rect rx="10" stroke="null" id="svg_237" height="30" width="30" y="471" x="714" stroke-width="0" fill="#a14a2e"/>
   <rect rx="10" stroke="null" id="svg_238" height="30" width="120" y="471" x="748" stroke-width="0" fill="#f6f6f6"/>
   <text xml:space="preserve" text-anchor="start" font-family="'Roboto Mono'" font-size="16" stroke-width="0" id="svg_239" y="491" x="723" fill="#f6f6f6">И.</text>
   <rect rx="10" stroke="null" id="svg_240" height="30" width="30" y="471" x="874.5" stroke-width="0" fill="#a14a2e"/>
   <rect rx="10" stroke="null" id="svg_241" height="30" width="120" y="471" x="908.5" stroke-width="0" fill="#f6f6f6"/>
   <text xml:space="preserve" text-anchor="start" font-family="'Roboto Mono'" font-size="16" stroke-width="0" id="svg_242" y="491" x="883.5" fill="#f6f6f6">Ч.</text>
  </g>
  <g id="svg_258">
   <rect rx="10" id="svg_255" height="40" width="655" y="332" x="706" fill="#ffffff"/>
   <rect rx="10" stroke="null" id="svg_256" height="30" width="30" y="337" x="713.5" stroke-width="0" fill="#c5ba59"/>
   <rect rx="10" stroke="null" id="svg_257" height="30" width="608" y="337" x="747.5" stroke-width="0" fill="#f6f6f6"/>
  </g>
  <g id="svg_263">
   <rect rx="10" id="svg_259" height="40" width="655" y="376" x="706" fill="#ffffff"/>
   <rect rx="10" stroke="null" id="svg_260" height="30" width="30" y="381" x="713.5" stroke-width="0" fill="#c5ba59"/>
   <rect rx="10" stroke="null" id="svg_261" height="30" width="608" y="381" x="747.5" stroke-width="0" fill="#f6f6f6"/>
   <text xml:space="preserve" text-anchor="start" font-family="'Roboto Mono'" font-size="16" stroke-width="0" id="svg_262" y="401" x="720" fill="#f6f6f6">Н4</text>
  </g>
  <rect rx="10" stroke="null" id="svg_265" height="30" width="30" y="293" x="713.5" stroke-width="0" fill="#c5ba59"/>
  <text xml:space="preserve" text-anchor="start" font-family="'Roboto Mono'" font-size="16" stroke-width="0" id="svg_267" y="313" x="720" fill="#f6f6f6">Н2</text>
  <rect rx="10" stroke="null" id="svg_270" height="30" width="30" y="248" x="714" stroke-width="0" fill="#c5ba59"/>
  <text xml:space="preserve" text-anchor="start" font-family="'Roboto Mono'" font-size="16" stroke-width="0" id="svg_272" y="268" x="720" fill="#f6f6f6">Н1</text>
  <rect rx="10" stroke="null" id="svg_275" height="30" width="30" y="203" x="714" stroke-width="0" fill="#7c7c7c"/>
  <text xml:space="preserve" text-anchor="start" font-family="'Roboto Mono'" font-size="16" stroke-width="0" id="svg_277" y="223" x="722" fill="#f6f6f6">Ч.</text>
  <rect rx="10" stroke="null" id="svg_280" height="30" width="30" y="158" x="712.5" stroke-width="0" fill="#7c7c7c"/>
  <text xml:space="preserve" text-anchor="start" font-family="'Roboto Mono'" font-size="16" stroke-width="0" id="svg_282" y="178" x="721.5" fill="#f6f6f6">Ж.</text>
  <g id="svg_288">
   <rect rx="10" id="svg_284" height="40" width="655" y="109" x="705" fill="#ffffff"/>
   <rect rx="10" stroke="null" id="svg_285" height="30" width="30" y="114" x="712.5" stroke-width="0" fill="#7c7c7c"/>
   <rect rx="10" stroke="null" id="svg_286" height="30" width="120" y="114" x="746.5" stroke-width="0" fill="#f6f6f6"/>
   <text xml:space="preserve" text-anchor="start" font-family="'Roboto Mono'" font-size="16" stroke-width="0" id="svg_287" y="134" x="721" fill="#f6f6f6">Р.</text>
  </g>
  <g id="svg_293">
   <rect rx="10" id="svg_289" height="40" width="655" y="65" x="705" fill="#ffffff"/>
   <rect rx="10" stroke="null" id="svg_290" height="30" width="30" y="70" x="712.5" stroke-width="0" fill="#7c7c7c"/>
   <rect rx="10" stroke="null" id="svg_291" height="30" width="120" y="70" x="746.5" stroke-width="0" fill="#f6f6f6"/>
   <text xml:space="preserve" text-anchor="start" font-family="'Roboto Mono'" font-size="16" stroke-width="0" id="svg_292" y="90" x="721.5" fill="#f6f6f6">В.</text>
  </g>
  <text xml:space="preserve" text-anchor="start" font-family="'Roboto Mono'" font-size="14" stroke-width="0" id="svg_295" y="401" x="753" fill="#323232">${name_2_2_9}</text>
  <text xml:space="preserve" text-anchor="start" font-family="'Roboto Mono'" font-size="14" stroke-width="0" id="svg_296" y="357" x="753" fill="#323232">${name_2_2_8}</text>
  <text xml:space="preserve" text-anchor="start" font-family="'Roboto Mono'" font-size="14" stroke-width="0" id="svg_300" y="134" x="753" fill="#323232">${name_2_2_3}</text>
  <text xml:space="preserve" text-anchor="start" font-family="'Roboto Mono'" font-size="14" stroke-width="0" id="svg_301" y="90" x="753" fill="#323232">${name_2_2_2}</text>
  <text xml:space="preserve" text-anchor="start" font-family="'Roboto Mono'" font-size="14" stroke-width="0" id="svg_302" y="491" x="753.5" fill="#323232">${name_2_2_13}</text>
  <text xml:space="preserve" text-anchor="start" font-family="'Roboto Mono'" font-size="14" stroke-width="0" id="svg_303" y="491" x="914" fill="#323232">${name_2_2_14}</text>
  <text xml:space="preserve" text-anchor="start" font-family="'Roboto Mono'" font-size="14" stroke-width="0" id="svg_304" y="446" x="1074" fill="#323232">${name_2_2_12}</text>
  <text xml:space="preserve" text-anchor="start" font-family="'Roboto Mono'" font-size="14" stroke-width="0" id="svg_305" y="446" x="753.5" fill="#323232">${name_2_2_10}</text>
  <text xml:space="preserve" text-anchor="start" font-family="'Roboto Mono'" font-size="14" stroke-width="0" id="svg_306" y="446" x="914" fill="#323232">${name_2_2_11}</text>
  <text font-style="normal" font-weight="normal" xml:space="preserve" text-anchor="start" font-family="'Roboto Mono'" font-size="24" stroke-width="0" id="svg_309" y="50" x="961.98438" fill="#323232">${name_2_2_1}</text>
  <text fill="#f6f6f6" stroke-width="0" x="720" y="358" id="svg_394" font-size="16" font-family="'Roboto Mono'" text-anchor="start" xml:space="preserve">Н3</text>
 </g>

</svg>