<svg width="695" height="1835" xmlns="http://www.w3.org/2000/svg" version="1.1">
 <g>
  <title>Layer 1</title>
  <rect id="svg_3" height="1835" width="695" y="0" x="0" stroke-width="0" stroke="null" fill="#ffffff"/>
  <rect fill="#f6f6f6" x="10" y="10" width="675" height="550" id="svg_6" rx="10"/>
  <rect fill="#ffffff" x="21" y="511" width="655" height="40" id="svg_7" rx="10"/>
  <rect fill="#ffffff" x="21" y="466" width="655" height="40" id="svg_12" rx="10"/>
  <rect fill="#a14a2e" stroke-width="0" x="29" y="471" width="30" height="30" id="svg_13" stroke="null" rx="10"/>
  <rect fill="#f6f6f6" stroke-width="0" x="63" y="471" width="120" height="30" id="svg_14" stroke="null" rx="10"/>
  <text fill="#f6f6f6" x="38" y="491" id="svg_15" stroke-width="0" font-size="16" font-family="'Roboto Mono'" text-anchor="start" xml:space="preserve">Р.</text>
  <rect stroke="null" fill="#f6f6f6" stroke-width="0" x="190" y="471" width="480" height="30" id="svg_17" rx="10"/>
  <g id="svg_30">
   <rect fill="#ffffff" x="21" y="421" width="655" height="40" id="svg_20" rx="10"/>
   <rect fill="#f6f6f6" stroke-width="0" x="383.5" y="426" width="120" height="30" id="svg_21" stroke="null" rx="10"/>
   <rect fill="#a14a2e" stroke-width="0" x="29" y="426" width="30" height="30" id="svg_22" stroke="null" rx="10"/>
   <rect fill="#f6f6f6" stroke-width="0" x="63" y="426" width="120" height="30" id="svg_23" stroke="null" rx="10"/>
   <text fill="#f6f6f6" x="36" y="446" id="svg_24" stroke-width="0" font-size="16" font-family="'Roboto Mono'" text-anchor="start" xml:space="preserve">П1</text>
   <rect fill="#a14a2e" stroke-width="0" x="189.5" y="426" width="30" height="30" id="svg_25" stroke="null" rx="10"/>
   <rect fill="#f6f6f6" stroke-width="0" x="223.5" y="426" width="120" height="30" id="svg_26" stroke="null" rx="10"/>
   <text fill="#f6f6f6" x="196" y="446" id="svg_27" stroke-width="0" font-size="16" font-family="'Roboto Mono'" text-anchor="start" xml:space="preserve">П2</text>
   <rect fill="#a14a2e" stroke-width="0" x="349.5" y="426" width="30" height="30" id="svg_28" stroke="null" rx="10"/>
   <text fill="#f6f6f6" x="356" y="446" id="svg_29" stroke-width="0" font-size="16" font-family="'Roboto Mono'" text-anchor="start" xml:space="preserve">П3</text>
  </g>
  <g id="svg_34">
   <rect fill="#ffffff" x="21" y="332" width="655" height="40" id="svg_31" rx="10"/>
   <rect fill="#c5ba59" stroke-width="0" x="28.5" y="337" width="30" height="30" id="svg_32" stroke="null" rx="10"/>
   <rect fill="#f6f6f6" stroke-width="0" x="62.5" y="337" width="608" height="30" id="svg_33" stroke="null" rx="10"/>
  </g>
  <g id="svg_39">
   <rect fill="#ffffff" x="21" y="376" width="655" height="40" id="svg_35" rx="10"/>
   <rect fill="#c5ba59" stroke-width="0" x="28.5" y="381" width="30" height="30" id="svg_36" stroke="null" rx="10"/>
   <rect fill="#f6f6f6" stroke-width="0" x="62.5" y="381" width="608" height="30" id="svg_37" stroke="null" rx="10"/>
   <text fill="#f6f6f6" x="35" y="401" id="svg_38" stroke-width="0" font-size="16" font-family="'Roboto Mono'" text-anchor="start" xml:space="preserve">Н4</text>
  </g>
  <g id="svg_44">
   <rect fill="#ffffff" x="21" y="288" width="655" height="40" id="svg_40" rx="10"/>
   <rect fill="#c5ba59" stroke-width="0" x="28.5" y="293" width="30" height="30" id="svg_41" stroke="null" rx="10"/>
   <rect fill="#f6f6f6" stroke-width="0" x="62.5" y="293" width="608" height="30" id="svg_42" stroke="null" rx="10"/>
   <text fill="#f6f6f6" x="35" y="313" id="svg_43" stroke-width="0" font-size="16" font-family="'Roboto Mono'" text-anchor="start" xml:space="preserve">Н2</text>
  </g>
  <g id="svg_49">
   <rect fill="#ffffff" x="21" y="243" width="655" height="40" id="svg_45" rx="10"/>
   <rect fill="#c5ba59" stroke-width="0" x="29" y="248" width="30" height="30" id="svg_46" stroke="null" rx="10"/>
   <rect fill="#f6f6f6" stroke-width="0" x="62.5" y="248" width="608" height="30" id="svg_47" stroke="null" rx="10"/>
   <text fill="#f6f6f6" x="35" y="268" id="svg_48" stroke-width="0" font-size="16" font-family="'Roboto Mono'" text-anchor="start" xml:space="preserve">Н1</text>
  </g>
  <g id="svg_54">
   <rect fill="#ffffff" x="21" y="198" width="655" height="40" id="svg_50" rx="10"/>
   <rect fill="#7c7c7c" stroke-width="0" x="29" y="203" width="30" height="30" id="svg_51" stroke="null" rx="10"/>
   <rect fill="#f6f6f6" stroke-width="0" x="62.5" y="203" width="120" height="30" id="svg_52" stroke="null" rx="10"/>
   <text fill="#f6f6f6" x="37" y="223" id="svg_53" stroke-width="0" font-size="16" font-family="'Roboto Mono'" text-anchor="start" xml:space="preserve">Ч.</text>
  </g>
  <g id="svg_59">
   <rect fill="#ffffff" x="20" y="153" width="655" height="40" id="svg_55" rx="10"/>
   <rect fill="#7c7c7c" stroke-width="0" x="27.5" y="158" width="30" height="30" id="svg_56" stroke="null" rx="10"/>
   <rect fill="#f6f6f6" stroke-width="0" x="61.5" y="158" width="120" height="30" id="svg_57" stroke="null" rx="10"/>
   <text fill="#f6f6f6" x="36.5" y="178" id="svg_58" stroke-width="0" font-size="16" font-family="'Roboto Mono'" text-anchor="start" xml:space="preserve">Ж.</text>
  </g>
  <g id="svg_64">
   <rect fill="#ffffff" x="20" y="109" width="655" height="40" id="svg_60" rx="10"/>
   <rect fill="#7c7c7c" stroke-width="0" x="27.5" y="114" width="30" height="30" id="svg_61" stroke="null" rx="10"/>
   <rect fill="#f6f6f6" stroke-width="0" x="61.5" y="114" width="120" height="30" id="svg_62" stroke="null" rx="10"/>
   <text fill="#f6f6f6" x="36" y="134" id="svg_63" stroke-width="0" font-size="16" font-family="'Roboto Mono'" text-anchor="start" xml:space="preserve">Р.</text>
  </g>
  <g id="svg_69">
   <rect fill="#ffffff" x="20" y="65" width="655" height="40" id="svg_65" rx="10"/>
   <rect fill="#7c7c7c" stroke-width="0" x="27.5" y="70" width="30" height="30" id="svg_66" stroke="null" rx="10"/>
   <rect fill="#f6f6f6" stroke-width="0" x="61.5" y="70" width="120" height="30" id="svg_67" stroke="null" rx="10"/>
   <text fill="#f6f6f6" x="36.5" y="90" id="svg_68" stroke-width="0" font-size="16" font-family="'Roboto Mono'" text-anchor="start" xml:space="preserve">В.</text>
  </g>
  <text xml:space="preserve" text-anchor="start" font-family="'Roboto Mono'" font-size="16" id="svg_71" y="358" x="34" stroke-width="0" fill="#f6f6f6">Н3</text>
  <text fill="#323232" x="68" y="401" id="svg_73" stroke-width="0" font-size="14" font-family="'Roboto Mono'" text-anchor="start" xml:space="preserve">${r_9}</text>
  <text fill="#323232" x="68" y="357" id="svg_74" stroke-width="0" font-size="14" font-family="'Roboto Mono'" text-anchor="start" xml:space="preserve">${r_8}</text>
  <text fill="#323232" x="68" y="313" id="svg_75" stroke-width="0" font-size="14" font-family="'Roboto Mono'" text-anchor="start" xml:space="preserve">${r_7}</text>
  <text fill="#323232" x="68" y="268" id="svg_76" stroke-width="0" font-size="14" font-family="'Roboto Mono'" text-anchor="start" xml:space="preserve">${r_6}</text>
  <text fill="#323232" x="68" y="178" id="svg_77" stroke-width="0" font-size="14" font-family="'Roboto Mono'" text-anchor="start" xml:space="preserve">${r_4}</text>
  <text fill="#323232" x="68" y="134" id="svg_78" stroke-width="0" font-size="14" font-family="'Roboto Mono'" text-anchor="start" xml:space="preserve">${r_3}</text>
  <text fill="#323232" x="68" y="90" id="svg_79" stroke-width="0" font-size="14" font-family="'Roboto Mono'" text-anchor="start" xml:space="preserve">${r_2}</text>
  <text fill="#323232" x="67.5" y="491" id="svg_80" stroke-width="0" font-size="14" font-family="'Roboto Mono'" text-anchor="start" xml:space="preserve">${r_13}</text>
  <text fill="#323232" x="195" y="491" id="svg_81" stroke-width="0" font-size="14" font-family="'Roboto Mono'" text-anchor="start" xml:space="preserve">${r_14}</text>
  <text fill="#323232" x="389" y="446" id="svg_82" stroke-width="0" font-size="14" font-family="'Roboto Mono'" text-anchor="start" xml:space="preserve">${r_12}</text>
  <text fill="#323232" x="68.5" y="446" id="svg_83" stroke-width="0" font-size="14" font-family="'Roboto Mono'" text-anchor="start" xml:space="preserve">${r_10}</text>
  <text fill="#323232" x="229" y="446" id="svg_84" stroke-width="0" font-size="14" font-family="'Roboto Mono'" text-anchor="start" xml:space="preserve">${r_11}</text>
  <text fill="#323232" x="68" y="223" id="svg_85" stroke-width="0" font-size="14" font-family="'Roboto Mono'" text-anchor="start" xml:space="preserve">${r_5}</text>
  <text fill="#323232" x="296.79297" y="50" id="svg_87" stroke-width="0" font-size="24" font-family="'Roboto Mono'" text-anchor="start" xml:space="preserve" font-weight="normal" font-style="normal">${r_1}</text>
  <rect fill="#a14a2e" stroke-width="0" x="29" y="516" width="30" height="30" id="svg_90" stroke="null" rx="10"/>
  <rect fill="#f6f6f6" stroke-width="0" x="62.5" y="516" width="120" height="30" id="svg_91" stroke="null" rx="10"/>
  <text fill="#f6f6f6" x="37" y="536" id="svg_92" stroke-width="0" font-size="16" font-family="'Roboto Mono'" text-anchor="start" xml:space="preserve">П.</text>
  <text fill="#323232" x="67" y="536" id="svg_93" stroke-width="0" font-size="14" font-family="'Roboto Mono'" text-anchor="start" xml:space="preserve">${r_15}</text>
  <rect stroke="null" fill="#f6f6f6" x="10" y="1544" width="675" height="280" id="svg_149" rx="10"/>
  <text fill="#323232" x="268.28125" y="1584" id="svg_228" stroke-width="0" font-size="24" font-family="'Roboto Mono'" text-anchor="start" xml:space="preserve" font-weight="normal" font-style="normal">Воскресенье</text>
  <rect fill="#ffffff" x="20" y="1687" width="655" height="40" id="svg_198" rx="10"/>
  <rect fill="#779953" stroke-width="0" x="27.5" y="1692" width="30" height="30" id="svg_199" stroke="null" rx="10"/>
  <text fill="#f6f6f6" x="36.5" y="1712" id="svg_201" stroke-width="0" font-size="16" font-family="'Roboto Mono'" text-anchor="start" xml:space="preserve">И.</text>
  <rect fill="#ffffff" x="20" y="1643" width="655" height="40" id="svg_203" rx="10"/>
  <rect fill="#779953" stroke-width="0" x="27.5" y="1648" width="30" height="30" id="svg_204" stroke="null" rx="10"/>
  <text fill="#f6f6f6" x="36" y="1668" id="svg_206" stroke-width="0" font-size="16" font-family="'Roboto Mono'" text-anchor="start" xml:space="preserve">Д.</text>
  <rect fill="#ffffff" x="20" y="1599" width="655" height="40" id="svg_208" rx="10"/>
  <rect fill="#779953" stroke-width="0" x="27.5" y="1604" width="30" height="30" id="svg_209" stroke="null" rx="10"/>
  <text fill="#f6f6f6" x="36.5" y="1624" id="svg_211" stroke-width="0" font-size="16" font-family="'Roboto Mono'" text-anchor="start" xml:space="preserve">В.</text>
  <rect fill="#f6f6f6" stroke-width="0" x="190" y="1648" width="480" height="30" id="svg_205" stroke="null" rx="10"/>
  <rect fill="#f6f6f6" stroke-width="0" x="61.5" y="1692" width="120" height="30" id="svg_97" stroke="null" rx="10"/>
  <rect fill="#f6f6f6" stroke-width="0" x="61.5" y="1648" width="120" height="30" id="svg_98" stroke="null" rx="10"/>
  <rect fill="#f6f6f6" stroke-width="0" x="61.5" y="1604" width="120" height="30" id="svg_99" stroke="null" rx="10"/>
  <text fill="#323232" x="195" y="1668" id="svg_219" stroke-width="0" font-size="14" font-family="'Roboto Mono'" text-anchor="start" xml:space="preserve">${r_57}</text>
  <text fill="#323232" x="68" y="1712" id="svg_100" stroke-width="0" font-size="14" font-family="'Roboto Mono'" text-anchor="start" xml:space="preserve">${r_58}</text>
  <text fill="#323232" x="68" y="1668" id="svg_101" stroke-width="0" font-size="14" font-family="'Roboto Mono'" text-anchor="start" xml:space="preserve">${r_56}</text>
  <text fill="#323232" x="68" y="1624" id="svg_102" stroke-width="0" font-size="14" font-family="'Roboto Mono'" text-anchor="start" xml:space="preserve">${r_54}</text>
  <rect stroke="null" fill="#f6f6f6" x="10" y="568" width="675" height="235" id="svg_107" rx="10"/>
  <text fill="#323232" x="311.49219" y="608" id="svg_108" stroke-width="0" font-size="24" font-family="'Roboto Mono'" text-anchor="start" xml:space="preserve" font-weight="normal" font-style="normal">${r_17}</text>
  <rect fill="#ffffff" x="21" y="756" width="655" height="40" id="svg_109" rx="10"/>
  <rect fill="#537299" stroke-width="0" x="29" y="761" width="30" height="30" id="svg_110" stroke="null" rx="10"/>
  <text fill="#f6f6f6" x="37" y="781" id="svg_111" stroke-width="0" font-size="16" font-family="'Roboto Mono'" text-anchor="start" xml:space="preserve">4.</text>
  <rect fill="#ffffff" x="20" y="711" width="655" height="40" id="svg_112" rx="10"/>
  <rect fill="#537299" stroke-width="0" x="27.5" y="716" width="30" height="30" id="svg_113" stroke="null" rx="10"/>
  <text fill="#f6f6f6" x="36.5" y="736" id="svg_114" stroke-width="0" font-size="16" font-family="'Roboto Mono'" text-anchor="start" xml:space="preserve">3.</text>
  <rect fill="#ffffff" x="20" y="667" width="655" height="40" id="svg_115" rx="10"/>
  <rect fill="#537299" stroke-width="0" x="27.5" y="672" width="30" height="30" id="svg_116" stroke="null" rx="10"/>
  <text fill="#f6f6f6" x="36" y="692" id="svg_117" stroke-width="0" font-size="16" font-family="'Roboto Mono'" text-anchor="start" xml:space="preserve">2.</text>
  <rect fill="#ffffff" x="20" y="623" width="655" height="40" id="svg_118" rx="10"/>
  <rect fill="#537299" stroke-width="0" x="27.5" y="628" width="30" height="30" id="svg_119" stroke="null" rx="10"/>
  <text fill="#f6f6f6" x="36.5" y="648" id="svg_120" stroke-width="0" font-size="16" font-family="'Roboto Mono'" text-anchor="start" xml:space="preserve">1.</text>
  <rect fill="#f6f6f6" stroke-width="0" x="152" y="761" width="518" height="30" id="svg_121" stroke="null" rx="10"/>
  <rect fill="#f6f6f6" stroke-width="0" x="151" y="716" width="518" height="30" id="svg_122" stroke="null" rx="10"/>
  <rect fill="#f6f6f6" stroke-width="0" x="151" y="672" width="518" height="30" id="svg_123" stroke="null" rx="10"/>
  <rect fill="#f6f6f6" stroke-width="0" x="151" y="628" width="518" height="30" id="svg_124" stroke="null" rx="10"/>
  <rect fill="#f6f6f6" stroke-width="0" x="62.5" y="761" width="80" height="30" id="svg_125" stroke="null" rx="10"/>
  <rect fill="#f6f6f6" stroke-width="0" x="61.5" y="716" width="80" height="30" id="svg_126" stroke="null" rx="10"/>
  <rect fill="#f6f6f6" stroke-width="0" x="61.5" y="672" width="80" height="30" id="svg_127" stroke="null" rx="10"/>
  <rect fill="#f6f6f6" stroke-width="0" x="61.5" y="628" width="80" height="30" id="svg_128" stroke="null" rx="10"/>
  <text fill="#323232" x="157.5" y="736" id="svg_130" stroke-width="0" font-size="14" font-family="'Roboto Mono'" text-anchor="start" xml:space="preserve">${r_23}</text>
  <text fill="#323232" x="157.5" y="692" id="svg_131" stroke-width="0" font-size="14" font-family="'Roboto Mono'" text-anchor="start" xml:space="preserve">${r_21}</text>
  <text fill="#323232" x="157.5" y="648" id="svg_132" stroke-width="0" font-size="14" font-family="'Roboto Mono'" text-anchor="start" xml:space="preserve">${r_19}</text>
  <text fill="#323232" x="157.5" y="781" id="svg_133" stroke-width="0" font-size="14" font-family="'Roboto Mono'" text-anchor="start" xml:space="preserve">${r_25}</text>
  <text fill="#323232" x="68" y="736" id="svg_134" stroke-width="0" font-size="14" font-family="'Roboto Mono'" text-anchor="start" xml:space="preserve">${r_22}</text>
  <text fill="#323232" x="68" y="692" id="svg_135" stroke-width="0" font-size="14" font-family="'Roboto Mono'" text-anchor="start" xml:space="preserve">${r_20}</text>
  <text fill="#323232" x="68" y="648" id="svg_136" stroke-width="0" font-size="14" font-family="'Roboto Mono'" text-anchor="start" xml:space="preserve">${r_18}</text>
  <text fill="#323232" x="68" y="781" id="svg_137" stroke-width="0" font-size="14" font-family="'Roboto Mono'" text-anchor="start" xml:space="preserve">${r_24}</text>
  <rect stroke="null" fill="#f6f6f6" x="10" y="812" width="675" height="235" id="svg_139" rx="10"/>
  <text fill="#323232" x="297.08594" y="852" id="svg_140" stroke-width="0" font-size="24" font-family="'Roboto Mono'" text-anchor="start" xml:space="preserve" font-weight="normal" font-style="normal">${r_26}</text>
  <rect fill="#ffffff" x="21" y="1000" width="655" height="40" id="svg_141" rx="10"/>
  <rect fill="#537299" stroke-width="0" x="29" y="1005" width="30" height="30" id="svg_142" stroke="null" rx="10"/>
  <text fill="#f6f6f6" x="37" y="1025" id="svg_143" stroke-width="0" font-size="16" font-family="'Roboto Mono'" text-anchor="start" xml:space="preserve">4.</text>
  <rect fill="#ffffff" x="20" y="955" width="655" height="40" id="svg_144" rx="10"/>
  <rect fill="#537299" stroke-width="0" x="27.5" y="960" width="30" height="30" id="svg_145" stroke="null" rx="10"/>
  <text fill="#f6f6f6" x="36.5" y="980" id="svg_146" stroke-width="0" font-size="16" font-family="'Roboto Mono'" text-anchor="start" xml:space="preserve">3.</text>
  <rect fill="#ffffff" x="20" y="911" width="655" height="40" id="svg_147" rx="10"/>
  <rect fill="#537299" stroke-width="0" x="27.5" y="916" width="30" height="30" id="svg_148" stroke="null" rx="10"/>
  <text fill="#f6f6f6" x="36" y="936" id="svg_150" stroke-width="0" font-size="16" font-family="'Roboto Mono'" text-anchor="start" xml:space="preserve">2.</text>
  <rect fill="#ffffff" x="20" y="867" width="655" height="40" id="svg_151" rx="10"/>
  <rect fill="#537299" stroke-width="0" x="27.5" y="872" width="30" height="30" id="svg_152" stroke="null" rx="10"/>
  <text fill="#f6f6f6" x="36.5" y="892" id="svg_153" stroke-width="0" font-size="16" font-family="'Roboto Mono'" text-anchor="start" xml:space="preserve">1.</text>
  <rect fill="#f6f6f6" stroke-width="0" x="152" y="1005" width="518" height="30" id="svg_154" stroke="null" rx="10"/>
  <rect fill="#f6f6f6" stroke-width="0" x="151" y="960" width="518" height="30" id="svg_155" stroke="null" rx="10"/>
  <rect fill="#f6f6f6" stroke-width="0" x="151" y="916" width="518" height="30" id="svg_156" stroke="null" rx="10"/>
  <rect fill="#f6f6f6" stroke-width="0" x="151" y="872" width="518" height="30" id="svg_157" stroke="null" rx="10"/>
  <rect fill="#f6f6f6" stroke-width="0" x="62.5" y="1005" width="80" height="30" id="svg_158" stroke="null" rx="10"/>
  <rect fill="#f6f6f6" stroke-width="0" x="61.5" y="960" width="80" height="30" id="svg_159" stroke="null" rx="10"/>
  <rect fill="#f6f6f6" stroke-width="0" x="61.5" y="916" width="80" height="30" id="svg_160" stroke="null" rx="10"/>
  <rect fill="#f6f6f6" stroke-width="0" x="61.5" y="872" width="80" height="30" id="svg_161" stroke="null" rx="10"/>
  <text fill="#323232" x="157.5" y="980" id="svg_163" stroke-width="0" font-size="14" font-family="'Roboto Mono'" text-anchor="start" xml:space="preserve">${r_32}</text>
  <text fill="#323232" x="157.5" y="936" id="svg_164" stroke-width="0" font-size="14" font-family="'Roboto Mono'" text-anchor="start" xml:space="preserve">${r_30}</text>
  <text fill="#323232" x="157.5" y="892" id="svg_165" stroke-width="0" font-size="14" font-family="'Roboto Mono'" text-anchor="start" xml:space="preserve">${r_28}</text>
  <text fill="#323232" x="157.5" y="1025" id="svg_166" stroke-width="0" font-size="14" font-family="'Roboto Mono'" text-anchor="start" xml:space="preserve">${r_34}</text>
  <text fill="#323232" x="68" y="980" id="svg_167" stroke-width="0" font-size="14" font-family="'Roboto Mono'" text-anchor="start" xml:space="preserve">${r_31}</text>
  <text fill="#323232" x="68" y="936" id="svg_168" stroke-width="0" font-size="14" font-family="'Roboto Mono'" text-anchor="start" xml:space="preserve">${r_29}</text>
  <text fill="#323232" x="68" y="892" id="svg_169" stroke-width="0" font-size="14" font-family="'Roboto Mono'" text-anchor="start" xml:space="preserve">${r_27}</text>
  <text fill="#323232" x="68" y="1025" id="svg_170" stroke-width="0" font-size="14" font-family="'Roboto Mono'" text-anchor="start" xml:space="preserve">${r_33}</text>
  <rect stroke="null" fill="#f6f6f6" x="10" y="1056" width="675" height="235" id="svg_172" rx="10"/>
  <text fill="#323232" x="297.08594" y="1096" id="svg_173" stroke-width="0" font-size="24" font-family="'Roboto Mono'" text-anchor="start" xml:space="preserve" font-weight="normal" font-style="normal">${r_35}</text>
  <rect fill="#ffffff" x="21" y="1244" width="655" height="40" id="svg_174" rx="10"/>
  <rect fill="#537299" stroke-width="0" x="29" y="1249" width="30" height="30" id="svg_175" stroke="null" rx="10"/>
  <text fill="#f6f6f6" x="37" y="1269" id="svg_176" stroke-width="0" font-size="16" font-family="'Roboto Mono'" text-anchor="start" xml:space="preserve">4.</text>
  <rect fill="#ffffff" x="20" y="1199" width="655" height="40" id="svg_177" rx="10"/>
  <rect fill="#537299" stroke-width="0" x="27.5" y="1204" width="30" height="30" id="svg_178" stroke="null" rx="10"/>
  <text fill="#f6f6f6" x="36.5" y="1224" id="svg_179" stroke-width="0" font-size="16" font-family="'Roboto Mono'" text-anchor="start" xml:space="preserve">3.</text>
  <rect fill="#ffffff" x="20" y="1155" width="655" height="40" id="svg_180" rx="10"/>
  <rect fill="#537299" stroke-width="0" x="27.5" y="1160" width="30" height="30" id="svg_181" stroke="null" rx="10"/>
  <text fill="#f6f6f6" x="36" y="1180" id="svg_182" stroke-width="0" font-size="16" font-family="'Roboto Mono'" text-anchor="start" xml:space="preserve">2.</text>
  <rect fill="#ffffff" x="20" y="1111" width="655" height="40" id="svg_183" rx="10"/>
  <rect fill="#537299" stroke-width="0" x="27.5" y="1116" width="30" height="30" id="svg_184" stroke="null" rx="10"/>
  <text fill="#f6f6f6" x="36.5" y="1136" id="svg_185" stroke-width="0" font-size="16" font-family="'Roboto Mono'" text-anchor="start" xml:space="preserve">1.</text>
  <rect fill="#f6f6f6" stroke-width="0" x="152" y="1249" width="518" height="30" id="svg_186" stroke="null" rx="10"/>
  <rect fill="#f6f6f6" stroke-width="0" x="151" y="1204" width="518" height="30" id="svg_187" stroke="null" rx="10"/>
  <rect fill="#f6f6f6" stroke-width="0" x="151" y="1160" width="518" height="30" id="svg_188" stroke="null" rx="10"/>
  <rect fill="#f6f6f6" stroke-width="0" x="151" y="1116" width="518" height="30" id="svg_189" stroke="null" rx="10"/>
  <rect fill="#f6f6f6" stroke-width="0" x="62.5" y="1249" width="80" height="30" id="svg_190" stroke="null" rx="10"/>
  <rect fill="#f6f6f6" stroke-width="0" x="61.5" y="1204" width="80" height="30" id="svg_191" stroke="null" rx="10"/>
  <rect fill="#f6f6f6" stroke-width="0" x="61.5" y="1160" width="80" height="30" id="svg_192" stroke="null" rx="10"/>
  <rect fill="#f6f6f6" stroke-width="0" x="61.5" y="1116" width="80" height="30" id="svg_197" stroke="null" rx="10"/>
  <text fill="#323232" x="157.5" y="1224" id="svg_207" stroke-width="0" font-size="14" font-family="'Roboto Mono'" text-anchor="start" xml:space="preserve">${r_41}</text>
  <text fill="#323232" x="157.5" y="1180" id="svg_212" stroke-width="0" font-size="14" font-family="'Roboto Mono'" text-anchor="start" xml:space="preserve">${r_39}</text>
  <text fill="#323232" x="157.5" y="1136" id="svg_213" stroke-width="0" font-size="14" font-family="'Roboto Mono'" text-anchor="start" xml:space="preserve">${r_37}</text>
  <text fill="#323232" x="157.5" y="1269" id="svg_214" stroke-width="0" font-size="14" font-family="'Roboto Mono'" text-anchor="start" xml:space="preserve">${r_43}</text>
  <text fill="#323232" x="68" y="1224" id="svg_215" stroke-width="0" font-size="14" font-family="'Roboto Mono'" text-anchor="start" xml:space="preserve">${r_40}</text>
  <text fill="#323232" x="68" y="1180" id="svg_216" stroke-width="0" font-size="14" font-family="'Roboto Mono'" text-anchor="start" xml:space="preserve">${r_38}</text>
  <text fill="#323232" x="68" y="1136" id="svg_217" stroke-width="0" font-size="14" font-family="'Roboto Mono'" text-anchor="start" xml:space="preserve">${r_36}</text>
  <text fill="#323232" x="68" y="1269" id="svg_221" stroke-width="0" font-size="14" font-family="'Roboto Mono'" text-anchor="start" xml:space="preserve">${r_42}</text>
  <rect stroke="null" fill="#f6f6f6" x="10" y="1300" width="675" height="235" id="svg_223" rx="10"/>
  <text fill="#323232" x="297.08594" y="1340" id="svg_224" stroke-width="0" font-size="24" font-family="'Roboto Mono'" text-anchor="start" xml:space="preserve" font-weight="normal" font-style="normal">${r_44}</text>
  <rect fill="#ffffff" x="21" y="1488" width="655" height="40" id="svg_225" rx="10"/>
  <rect fill="#537299" stroke-width="0" x="29" y="1493" width="30" height="30" id="svg_227" stroke="null" rx="10"/>
  <text fill="#f6f6f6" x="37" y="1513" id="svg_229" stroke-width="0" font-size="16" font-family="'Roboto Mono'" text-anchor="start" xml:space="preserve">4.</text>
  <rect fill="#ffffff" x="20" y="1443" width="655" height="40" id="svg_230" rx="10"/>
  <rect fill="#537299" stroke-width="0" x="27.5" y="1448" width="30" height="30" id="svg_231" stroke="null" rx="10"/>
  <text fill="#f6f6f6" x="36.5" y="1468" id="svg_232" stroke-width="0" font-size="16" font-family="'Roboto Mono'" text-anchor="start" xml:space="preserve">3.</text>
  <rect fill="#ffffff" x="20" y="1399" width="655" height="40" id="svg_233" rx="10"/>
  <rect fill="#537299" stroke-width="0" x="27.5" y="1404" width="30" height="30" id="svg_234" stroke="null" rx="10"/>
  <text fill="#f6f6f6" x="36" y="1424" id="svg_235" stroke-width="0" font-size="16" font-family="'Roboto Mono'" text-anchor="start" xml:space="preserve">2.</text>
  <rect fill="#ffffff" x="20" y="1355" width="655" height="40" id="svg_236" rx="10"/>
  <rect fill="#537299" stroke-width="0" x="27.5" y="1360" width="30" height="30" id="svg_237" stroke="null" rx="10"/>
  <text fill="#f6f6f6" x="36.5" y="1380" id="svg_238" stroke-width="0" font-size="16" font-family="'Roboto Mono'" text-anchor="start" xml:space="preserve">1.</text>
  <rect fill="#f6f6f6" stroke-width="0" x="152" y="1493" width="518" height="30" id="svg_239" stroke="null" rx="10"/>
  <rect fill="#f6f6f6" stroke-width="0" x="151" y="1448" width="518" height="30" id="svg_240" stroke="null" rx="10"/>
  <rect fill="#f6f6f6" stroke-width="0" x="151" y="1404" width="518" height="30" id="svg_241" stroke="null" rx="10"/>
  <rect fill="#f6f6f6" stroke-width="0" x="151" y="1360" width="518" height="30" id="svg_242" stroke="null" rx="10"/>
  <rect fill="#f6f6f6" stroke-width="0" x="62.5" y="1493" width="80" height="30" id="svg_243" stroke="null" rx="10"/>
  <rect fill="#f6f6f6" stroke-width="0" x="61.5" y="1448" width="80" height="30" id="svg_244" stroke="null" rx="10"/>
  <rect fill="#f6f6f6" stroke-width="0" x="61.5" y="1404" width="80" height="30" id="svg_245" stroke="null" rx="10"/>
  <rect fill="#f6f6f6" stroke-width="0" x="61.5" y="1360" width="80" height="30" id="svg_246" stroke="null" rx="10"/>
  <text fill="#323232" x="157.5" y="1468" id="svg_248" stroke-width="0" font-size="14" font-family="'Roboto Mono'" text-anchor="start" xml:space="preserve">${r_50}</text>
  <text fill="#323232" x="157.5" y="1424" id="svg_249" stroke-width="0" font-size="14" font-family="'Roboto Mono'" text-anchor="start" xml:space="preserve">${r_48}</text>
  <text fill="#323232" x="157.5" y="1380" id="svg_250" stroke-width="0" font-size="14" font-family="'Roboto Mono'" text-anchor="start" xml:space="preserve">${r_46}</text>
  <text fill="#323232" x="157.5" y="1513" id="svg_251" stroke-width="0" font-size="14" font-family="'Roboto Mono'" text-anchor="start" xml:space="preserve">${r_52}</text>
  <text fill="#323232" x="68" y="1468" id="svg_252" stroke-width="0" font-size="14" font-family="'Roboto Mono'" text-anchor="start" xml:space="preserve">${r_49}</text>
  <text fill="#323232" x="68" y="1424" id="svg_253" stroke-width="0" font-size="14" font-family="'Roboto Mono'" text-anchor="start" xml:space="preserve">${r_47}</text>
  <text fill="#323232" x="68" y="1380" id="svg_254" stroke-width="0" font-size="14" font-family="'Roboto Mono'" text-anchor="start" xml:space="preserve">${r_45}</text>
  <text fill="#323232" x="68" y="1513" id="svg_255" stroke-width="0" font-size="14" font-family="'Roboto Mono'" text-anchor="start" xml:space="preserve">${r_51}</text>
  <rect fill="#ffffff" x="20" y="1777" width="655" height="40" id="svg_193" rx="10"/>
  <rect fill="#779953" stroke-width="0" x="28" y="1782" width="30" height="30" id="svg_194" stroke="null" rx="10"/>
  <text fill="#f6f6f6" x="36" y="1802" id="svg_196" stroke-width="0" font-size="16" font-family="'Roboto Mono'" text-anchor="start" xml:space="preserve">П.</text>
  <rect fill="#f6f6f6" stroke-width="0" x="61.5" y="1782" width="120" height="30" id="svg_96" stroke="null" rx="10"/>
  <text fill="#323232" x="67" y="1802" id="svg_103" stroke-width="0" font-size="14" font-family="'Roboto Mono'" text-anchor="start" xml:space="preserve">${r_62}</text>
  <rect fill="#ffffff" x="21" y="1732" width="655" height="40" id="svg_258" rx="10"/>
  <rect fill="#779953" stroke-width="0" x="29" y="1737" width="30" height="30" id="svg_259" stroke="null" rx="10"/>
  <text fill="#f6f6f6" x="37" y="1757" id="svg_260" stroke-width="0" font-size="16" font-family="'Roboto Mono'" text-anchor="start" xml:space="preserve">Д.</text>
  <rect fill="#f6f6f6" stroke-width="0" x="190" y="1737" width="480" height="30" id="svg_261" stroke="null" rx="10"/>
  <rect fill="#f6f6f6" stroke-width="0" x="62.5" y="1737" width="120" height="30" id="svg_262" stroke="null" rx="10"/>
  <text fill="#323232" x="195" y="1757" id="svg_263" stroke-width="0" font-size="14" font-family="'Roboto Mono'" text-anchor="start" xml:space="preserve">${r_61}</text>
  <text fill="#323232" x="68" y="1757" id="svg_264" stroke-width="0" font-size="14" font-family="'Roboto Mono'" text-anchor="start" xml:space="preserve">${r_60}</text>
  <rect fill="#779953" stroke-width="0" x="190" y="1782" width="30" height="30" id="svg_8" stroke="null" rx="10"/>
  <rect fill="#f6f6f6" stroke-width="0" x="223.5" y="1782" width="120" height="30" id="svg_9" stroke="null" rx="10"/>
  <text fill="#f6f6f6" x="198" y="1802" id="svg_10" stroke-width="0" font-size="16" font-family="'Roboto Mono'" text-anchor="start" xml:space="preserve">М.</text>
  <text fill="#323232" x="228" y="1802" id="svg_86" stroke-width="0" font-size="14" font-family="'Roboto Mono'" text-anchor="start" xml:space="preserve">${r_63}</text>
  <rect fill="#a14a2e" stroke-width="0" x="190" y="516" width="30" height="30" id="svg_267" stroke="null" rx="10"/>
  <rect fill="#f6f6f6" stroke-width="0" x="223.5" y="516" width="120" height="30" id="svg_268" stroke="null" rx="10"/>
  <text fill="#f6f6f6" x="198" y="536" id="svg_269" stroke-width="0" font-size="16" font-family="'Roboto Mono'" text-anchor="start" xml:space="preserve">М.</text>
  <text fill="#323232" x="228" y="536" id="svg_270" stroke-width="0" font-size="14" font-family="'Roboto Mono'" text-anchor="start" xml:space="preserve">${r_16}</text>
  <rect fill="#779953" stroke-width="0" x="190" y="1604" width="30" height="30" id="svg_272" stroke="null" rx="10"/>
  <rect fill="#f6f6f6" stroke-width="0" x="223.5" y="1604" width="120" height="30" id="svg_273" stroke="null" rx="10"/>
  <text fill="#f6f6f6" x="198" y="1624" id="svg_274" stroke-width="0" font-size="16" font-family="'Roboto Mono'" text-anchor="start" xml:space="preserve">П.</text>
  <text fill="#323232" x="228" y="1624" id="svg_275" stroke-width="0" font-size="14" font-family="'Roboto Mono'" text-anchor="start" xml:space="preserve">${r_55}</text>
  <rect fill="#779953" stroke-width="0" x="190" y="1692" width="30" height="30" id="svg_277" stroke="null" rx="10"/>
  <rect fill="#f6f6f6" stroke-width="0" x="223.5" y="1692" width="120" height="30" id="svg_278" stroke="null" rx="10"/>
  <text fill="#f6f6f6" x="198" y="1712" id="svg_279" stroke-width="0" font-size="16" font-family="'Roboto Mono'" text-anchor="start" xml:space="preserve">Ч.</text>
  <text fill="#323232" x="228" y="1712" id="svg_280" stroke-width="0" font-size="14" font-family="'Roboto Mono'" text-anchor="start" xml:space="preserve">${r_59}</text>
 </g>

</svg>