<svg width="695" height="1835" xmlns="http://www.w3.org/2000/svg" version="1.1">
 <g>
  <title>Layer 1</title>
  <rect fill="#ffffff" stroke="null" stroke-width="0" x="0" y="0" width="695" height="1835" id="svg_3"/>
  <rect rx="10" id="svg_6" height="550" width="675" y="10" x="10" fill="#f6f6f6"/>
  <rect rx="10" id="svg_7" height="40" width="655" y="511" x="21" fill="#ffffff"/>
  <rect rx="10" id="svg_12" height="40" width="655" y="466" x="21" fill="#ffffff"/>
  <rect rx="10" stroke="null" id="svg_13" height="30" width="30" y="471" x="29" stroke-width="0" fill="#a14a2e"/>
  <rect rx="10" stroke="null" id="svg_14" height="30" width="120" y="471" x="63" stroke-width="0" fill="#f6f6f6"/>
  <text xml:space="preserve" text-anchor="start" font-family="'Roboto Mono'" font-size="16" stroke-width="0" id="svg_15" y="491" x="38" fill="#f6f6f6">Р.</text>
  <rect rx="10" id="svg_17" height="30" width="480" y="471" x="190" stroke-width="0" fill="#f6f6f6" stroke="null"/>
  <g id="svg_30">
   <rect rx="10" id="svg_20" height="40" width="655" y="421" x="21" fill="#ffffff"/>
   <rect rx="10" stroke="null" id="svg_21" height="30" width="120" y="426" x="383.5" stroke-width="0" fill="#f6f6f6"/>
   <rect rx="10" stroke="null" id="svg_22" height="30" width="30" y="426" x="29" stroke-width="0" fill="#a14a2e"/>
   <rect rx="10" stroke="null" id="svg_23" height="30" width="120" y="426" x="63" stroke-width="0" fill="#f6f6f6"/>
   <text xml:space="preserve" text-anchor="start" font-family="'Roboto Mono'" font-size="16" stroke-width="0" id="svg_24" y="446" x="36" fill="#f6f6f6">П1</text>
   <rect rx="10" stroke="null" id="svg_25" height="30" width="30" y="426" x="189.5" stroke-width="0" fill="#a14a2e"/>
   <rect rx="10" stroke="null" id="svg_26" height="30" width="120" y="426" x="223.5" stroke-width="0" fill="#f6f6f6"/>
   <text xml:space="preserve" text-anchor="start" font-family="'Roboto Mono'" font-size="16" stroke-width="0" id="svg_27" y="446" x="196" fill="#f6f6f6">П2</text>
   <rect rx="10" stroke="null" id="svg_28" height="30" width="30" y="426" x="349.5" stroke-width="0" fill="#a14a2e"/>
   <text xml:space="preserve" text-anchor="start" font-family="'Roboto Mono'" font-size="16" stroke-width="0" id="svg_29" y="446" x="356" fill="#f6f6f6">П3</text>
  </g>
  <g id="svg_34">
   <rect rx="10" id="svg_31" height="40" width="655" y="332" x="21" fill="#ffffff"/>
   <rect rx="10" stroke="null" id="svg_32" height="30" width="30" y="337" x="28.5" stroke-width="0" fill="#c5ba59"/>
   <rect rx="10" stroke="null" id="svg_33" height="30" width="608" y="337" x="62.5" stroke-width="0" fill="#f6f6f6"/>
  </g>
  <g id="svg_39">
   <rect rx="10" id="svg_35" height="40" width="655" y="376" x="21" fill="#ffffff"/>
   <rect rx="10" stroke="null" id="svg_36" height="30" width="30" y="381" x="28.5" stroke-width="0" fill="#c5ba59"/>
   <rect rx="10" stroke="null" id="svg_37" height="30" width="608" y="381" x="62.5" stroke-width="0" fill="#f6f6f6"/>
   <text xml:space="preserve" text-anchor="start" font-family="'Roboto Mono'" font-size="16" stroke-width="0" id="svg_38" y="401" x="35" fill="#f6f6f6">Н4</text>
  </g>
  <g id="svg_44">
   <rect rx="10" id="svg_40" height="40" width="655" y="288" x="21" fill="#ffffff"/>
   <rect rx="10" stroke="null" id="svg_41" height="30" width="30" y="293" x="28.5" stroke-width="0" fill="#c5ba59"/>
   <rect rx="10" stroke="null" id="svg_42" height="30" width="608" y="293" x="62.5" stroke-width="0" fill="#f6f6f6"/>
   <text xml:space="preserve" text-anchor="start" font-family="'Roboto Mono'" font-size="16" stroke-width="0" id="svg_43" y="313" x="35" fill="#f6f6f6">Н2</text>
  </g>
  <g id="svg_49">
   <rect rx="10" id="svg_45" height="40" width="655" y="243" x="21" fill="#ffffff"/>
   <rect rx="10" stroke="null" id="svg_46" height="30" width="30" y="248" x="29" stroke-width="0" fill="#c5ba59"/>
   <rect rx="10" stroke="null" id="svg_47" height="30" width="608" y="248" x="62.5" stroke-width="0" fill="#f6f6f6"/>
   <text xml:space="preserve" text-anchor="start" font-family="'Roboto Mono'" font-size="16" stroke-width="0" id="svg_48" y="268" x="35" fill="#f6f6f6">Н1</text>
  </g>
  <g id="svg_54">
   <rect rx="10" id="svg_50" height="40" width="655" y="198" x="21" fill="#ffffff"/>
   <rect rx="10" stroke="null" id="svg_51" height="30" width="30" y="203" x="29" stroke-width="0" fill="#7c7c7c"/>
   <rect rx="10" stroke="null" id="svg_52" height="30" width="120" y="203" x="62.5" stroke-width="0" fill="#f6f6f6"/>
   <text xml:space="preserve" text-anchor="start" font-family="'Roboto Mono'" font-size="16" stroke-width="0" id="svg_53" y="223" x="37" fill="#f6f6f6">Ч.</text>
  </g>
  <g id="svg_59">
   <rect rx="10" id="svg_55" height="40" width="655" y="153" x="20" fill="#ffffff"/>
   <rect rx="10" stroke="null" id="svg_56" height="30" width="30" y="158" x="27.5" stroke-width="0" fill="#7c7c7c"/>
   <rect rx="10" stroke="null" id="svg_57" height="30" width="120" y="158" x="61.5" stroke-width="0" fill="#f6f6f6"/>
   <text xml:space="preserve" text-anchor="start" font-family="'Roboto Mono'" font-size="16" stroke-width="0" id="svg_58" y="178" x="36.5" fill="#f6f6f6">Ж.</text>
  </g>
  <g id="svg_64">
   <rect rx="10" id="svg_60" height="40" width="655" y="109" x="20" fill="#ffffff"/>
   <rect rx="10" stroke="null" id="svg_61" height="30" width="30" y="114" x="27.5" stroke-width="0" fill="#7c7c7c"/>
   <rect rx="10" stroke="null" id="svg_62" height="30" width="120" y="114" x="61.5" stroke-width="0" fill="#f6f6f6"/>
   <text xml:space="preserve" text-anchor="start" font-family="'Roboto Mono'" font-size="16" stroke-width="0" id="svg_63" y="134" x="36" fill="#f6f6f6">Р.</text>
  </g>
  <g id="svg_69">
   <rect rx="10" id="svg_65" height="40" width="655" y="65" x="20" fill="#ffffff"/>
   <rect rx="10" stroke="null" id="svg_66" height="30" width="30" y="70" x="27.5" stroke-width="0" fill="#7c7c7c"/>
   <rect rx="10" stroke="null" id="svg_67" height="30" width="120" y="70" x="61.5" stroke-width="0" fill="#f6f6f6"/>
   <text xml:space="preserve" text-anchor="start" font-family="'Roboto Mono'" font-size="16" stroke-width="0" id="svg_68" y="90" x="36.5" fill="#f6f6f6">В.</text>
  </g>
  <text fill="#f6f6f6" stroke-width="0" x="34" y="358" id="svg_71" font-size="16" font-family="'Roboto Mono'" text-anchor="start" xml:space="preserve">Н3</text>
  <text xml:space="preserve" text-anchor="start" font-family="'Roboto Mono'" font-size="14" stroke-width="0" id="svg_73" y="401" x="68" fill="#323232">${r_9}</text>
  <text xml:space="preserve" text-anchor="start" font-family="'Roboto Mono'" font-size="14" stroke-width="0" id="svg_74" y="357" x="68" fill="#323232">${r_8}</text>
  <text xml:space="preserve" text-anchor="start" font-family="'Roboto Mono'" font-size="14" stroke-width="0" id="svg_75" y="313" x="68" fill="#323232">${r_7}</text>
  <text xml:space="preserve" text-anchor="start" font-family="'Roboto Mono'" font-size="14" stroke-width="0" id="svg_76" y="268" x="68" fill="#323232">${r_6}</text>
  <text xml:space="preserve" text-anchor="start" font-family="'Roboto Mono'" font-size="14" stroke-width="0" id="svg_77" y="178" x="68" fill="#323232">${r_4}</text>
  <text xml:space="preserve" text-anchor="start" font-family="'Roboto Mono'" font-size="14" stroke-width="0" id="svg_78" y="134" x="68" fill="#323232">${r_3}</text>
  <text xml:space="preserve" text-anchor="start" font-family="'Roboto Mono'" font-size="14" stroke-width="0" id="svg_79" y="90" x="68" fill="#323232">${r_2}</text>
  <text xml:space="preserve" text-anchor="start" font-family="'Roboto Mono'" font-size="14" stroke-width="0" id="svg_80" y="491" x="67.5" fill="#323232">${r_13}</text>
  <text xml:space="preserve" text-anchor="start" font-family="'Roboto Mono'" font-size="14" stroke-width="0" id="svg_81" y="491" x="195" fill="#323232">${r_14}</text>
  <text xml:space="preserve" text-anchor="start" font-family="'Roboto Mono'" font-size="14" stroke-width="0" id="svg_82" y="446" x="389" fill="#323232">${r_12}</text>
  <text xml:space="preserve" text-anchor="start" font-family="'Roboto Mono'" font-size="14" stroke-width="0" id="svg_83" y="446" x="68.5" fill="#323232">${r_10}</text>
  <text xml:space="preserve" text-anchor="start" font-family="'Roboto Mono'" font-size="14" stroke-width="0" id="svg_84" y="446" x="229" fill="#323232">${r_11}</text>
  <text xml:space="preserve" text-anchor="start" font-family="'Roboto Mono'" font-size="14" stroke-width="0" id="svg_85" y="223" x="68" fill="#323232">${r_5}</text>
  <text style="cursor: move;" font-style="normal" font-weight="normal" xml:space="preserve" text-anchor="start" font-family="'Roboto Mono'" font-size="24" stroke-width="0" id="svg_87" y="50" x="296.79297" fill="#323232">${r_1}</text>
  <rect rx="10" stroke="null" id="svg_90" height="30" width="30" y="516" x="29" stroke-width="0" fill="#a14a2e"/>
  <rect rx="10" stroke="null" id="svg_91" height="30" width="120" y="516" x="62.5" stroke-width="0" fill="#f6f6f6"/>
  <text xml:space="preserve" text-anchor="start" font-family="'Roboto Mono'" font-size="16" stroke-width="0" id="svg_92" y="536" x="37" fill="#f6f6f6">П.</text>
  <text xml:space="preserve" text-anchor="start" font-family="'Roboto Mono'" font-size="14" stroke-width="0" id="svg_93" y="536" x="67" fill="#323232">${r_15}</text>
  <rect rx="10" id="svg_149" height="280" width="675" y="1544" x="10" fill="#f6f6f6" stroke="null"/>
  <text style="cursor: move;" font-style="normal" font-weight="normal" xml:space="preserve" text-anchor="start" font-family="'Roboto Mono'" font-size="24" stroke-width="0" id="svg_228" y="1584" x="268.28125" fill="#323232">${r_53}</text>
  <rect rx="10" id="svg_198" height="40" width="655" y="1687" x="20" fill="#ffffff"/>
  <rect rx="10" stroke="null" id="svg_199" height="30" width="30" y="1692" x="27.5" stroke-width="0" fill="#779953"/>
  <text xml:space="preserve" text-anchor="start" font-family="'Roboto Mono'" font-size="16" stroke-width="0" id="svg_201" y="1712" x="36.5" fill="#f6f6f6">И.</text>
  <rect rx="10" id="svg_203" height="40" width="655" y="1643" x="20" fill="#ffffff"/>
  <rect rx="10" stroke="null" id="svg_204" height="30" width="30" y="1648" x="27.5" stroke-width="0" fill="#779953"/>
  <text xml:space="preserve" text-anchor="start" font-family="'Roboto Mono'" font-size="16" stroke-width="0" id="svg_206" y="1668" x="36" fill="#f6f6f6">Д.</text>
  <rect rx="10" id="svg_208" height="40" width="655" y="1599" x="20" fill="#ffffff"/>
  <rect rx="10" stroke="null" id="svg_209" height="30" width="30" y="1604" x="27.5" stroke-width="0" fill="#779953"/>
  <text xml:space="preserve" text-anchor="start" font-family="'Roboto Mono'" font-size="16" stroke-width="0" id="svg_211" y="1624" x="36.5" fill="#f6f6f6">В.</text>
  <rect rx="10" stroke="null" id="svg_205" height="30" width="480" y="1648" x="190" stroke-width="0" fill="#f6f6f6"/>
  <rect rx="10" stroke="null" id="svg_97" height="30" width="120" y="1692" x="61.5" stroke-width="0" fill="#f6f6f6"/>
  <rect rx="10" stroke="null" id="svg_98" height="30" width="120" y="1648" x="61.5" stroke-width="0" fill="#f6f6f6"/>
  <rect rx="10" stroke="null" id="svg_99" height="30" width="120" y="1604" x="61.5" stroke-width="0" fill="#f6f6f6"/>
  <text xml:space="preserve" text-anchor="start" font-family="'Roboto Mono'" font-size="14" stroke-width="0" id="svg_219" y="1668" x="195" fill="#323232">${r_57}</text>
  <text xml:space="preserve" text-anchor="start" font-family="'Roboto Mono'" font-size="14" stroke-width="0" id="svg_100" y="1712" x="68" fill="#323232">${r_58}</text>
  <text xml:space="preserve" text-anchor="start" font-family="'Roboto Mono'" font-size="14" stroke-width="0" id="svg_101" y="1668" x="68" fill="#323232">${r_56}</text>
  <text xml:space="preserve" text-anchor="start" font-family="'Roboto Mono'" font-size="14" stroke-width="0" id="svg_102" y="1624" x="68" fill="#323232">${r_54}</text>
  <rect rx="10" id="svg_107" height="235" width="675" y="568" x="10" fill="#f6f6f6" stroke="null"/>
  <text style="cursor: move;" font-style="normal" font-weight="normal" xml:space="preserve" text-anchor="start" font-family="'Roboto Mono'" font-size="24" stroke-width="0" id="svg_108" y="608" x="311.49219" fill="#323232">${r_17}</text>
  <g id="svg_129">
   <rect rx="10" id="svg_109" height="40" width="655" y="756" x="21" fill="#ffffff"/>
   <rect rx="10" stroke="null" id="svg_110" height="30" width="30" y="761" x="29" stroke-width="0" fill="#779953"/>
   <text xml:space="preserve" text-anchor="start" font-family="'Roboto Mono'" font-size="16" stroke-width="0" id="svg_111" y="781" x="37" fill="#f6f6f6">4.</text>
   <rect rx="10" id="svg_112" height="40" width="655" y="711" x="20" fill="#ffffff"/>
   <rect rx="10" stroke="null" id="svg_113" height="30" width="30" y="716" x="27.5" stroke-width="0" fill="#779953"/>
   <text xml:space="preserve" text-anchor="start" font-family="'Roboto Mono'" font-size="16" stroke-width="0" id="svg_114" y="736" x="36.5" fill="#f6f6f6">3.</text>
   <rect rx="10" id="svg_115" height="40" width="655" y="667" x="20" fill="#ffffff"/>
   <rect rx="10" stroke="null" id="svg_116" height="30" width="30" y="672" x="27.5" stroke-width="0" fill="#779953"/>
   <text xml:space="preserve" text-anchor="start" font-family="'Roboto Mono'" font-size="16" stroke-width="0" id="svg_117" y="692" x="36" fill="#f6f6f6">2.</text>
   <rect rx="10" id="svg_118" height="40" width="655" y="623" x="20" fill="#ffffff"/>
   <rect rx="10" stroke="null" id="svg_119" height="30" width="30" y="628" x="27.5" stroke-width="0" fill="#779953"/>
   <text xml:space="preserve" text-anchor="start" font-family="'Roboto Mono'" font-size="16" stroke-width="0" id="svg_120" y="648" x="36.5" fill="#f6f6f6">1.</text>
   <rect rx="10" stroke="null" id="svg_121" height="30" width="518" y="761" x="152" stroke-width="0" fill="#f6f6f6"/>
   <rect rx="10" stroke="null" id="svg_122" height="30" width="518" y="716" x="151" stroke-width="0" fill="#f6f6f6"/>
   <rect rx="10" stroke="null" id="svg_123" height="30" width="518" y="672" x="151" stroke-width="0" fill="#f6f6f6"/>
   <rect rx="10" stroke="null" id="svg_124" height="30" width="518" y="628" x="151" stroke-width="0" fill="#f6f6f6"/>
   <rect rx="10" stroke="null" id="svg_125" height="30" width="80" y="761" x="62.5" stroke-width="0" fill="#f6f6f6"/>
   <rect rx="10" stroke="null" id="svg_126" height="30" width="80" y="716" x="61.5" stroke-width="0" fill="#f6f6f6"/>
   <rect rx="10" stroke="null" id="svg_127" height="30" width="80" y="672" x="61.5" stroke-width="0" fill="#f6f6f6"/>
   <rect rx="10" stroke="null" id="svg_128" height="30" width="80" y="628" x="61.5" stroke-width="0" fill="#f6f6f6"/>
  </g>
  <text xml:space="preserve" text-anchor="start" font-family="'Roboto Mono'" font-size="14" stroke-width="0" id="svg_130" y="736" x="157.5" fill="#323232">${r_23}</text>
  <text xml:space="preserve" text-anchor="start" font-family="'Roboto Mono'" font-size="14" stroke-width="0" id="svg_131" y="692" x="157.5" fill="#323232">${r_21}</text>
  <text xml:space="preserve" text-anchor="start" font-family="'Roboto Mono'" font-size="14" stroke-width="0" id="svg_132" y="648" x="157.5" fill="#323232">${r_19}</text>
  <text xml:space="preserve" text-anchor="start" font-family="'Roboto Mono'" font-size="14" stroke-width="0" id="svg_133" y="781" x="157.5" fill="#323232">${r_25}</text>
  <text xml:space="preserve" text-anchor="start" font-family="'Roboto Mono'" font-size="14" stroke-width="0" id="svg_134" y="736" x="68" fill="#323232">${r_22}</text>
  <text xml:space="preserve" text-anchor="start" font-family="'Roboto Mono'" font-size="14" stroke-width="0" id="svg_135" y="692" x="68" fill="#323232">${r_20}</text>
  <text xml:space="preserve" text-anchor="start" font-family="'Roboto Mono'" font-size="14" stroke-width="0" id="svg_136" y="648" x="68" fill="#323232">${r_18}</text>
  <text xml:space="preserve" text-anchor="start" font-family="'Roboto Mono'" font-size="14" stroke-width="0" id="svg_137" y="781" x="68" fill="#323232">${r_24}</text>
  <rect rx="10" id="svg_139" height="235" width="675" y="812" x="10" fill="#f6f6f6" stroke="null"/>
  <text style="cursor: move;" font-style="normal" font-weight="normal" xml:space="preserve" text-anchor="start" font-family="'Roboto Mono'" font-size="24" stroke-width="0" id="svg_140" y="852" x="297.08594" fill="#323232">${r_26}</text>
  <g id="svg_162">
   <rect rx="10" id="svg_141" height="40" width="655" y="1000" x="21" fill="#ffffff"/>
   <rect rx="10" stroke="null" id="svg_142" height="30" width="30" y="1005" x="29" stroke-width="0" fill="#779953"/>
   <text xml:space="preserve" text-anchor="start" font-family="'Roboto Mono'" font-size="16" stroke-width="0" id="svg_143" y="1025" x="37" fill="#f6f6f6">4.</text>
   <rect rx="10" id="svg_144" height="40" width="655" y="955" x="20" fill="#ffffff"/>
   <rect rx="10" stroke="null" id="svg_145" height="30" width="30" y="960" x="27.5" stroke-width="0" fill="#779953"/>
   <text xml:space="preserve" text-anchor="start" font-family="'Roboto Mono'" font-size="16" stroke-width="0" id="svg_146" y="980" x="36.5" fill="#f6f6f6">3.</text>
   <rect rx="10" id="svg_147" height="40" width="655" y="911" x="20" fill="#ffffff"/>
   <rect rx="10" stroke="null" id="svg_148" height="30" width="30" y="916" x="27.5" stroke-width="0" fill="#779953"/>
   <text xml:space="preserve" text-anchor="start" font-family="'Roboto Mono'" font-size="16" stroke-width="0" id="svg_150" y="936" x="36" fill="#f6f6f6">2.</text>
   <rect rx="10" id="svg_151" height="40" width="655" y="867" x="20" fill="#ffffff"/>
   <rect rx="10" stroke="null" id="svg_152" height="30" width="30" y="872" x="27.5" stroke-width="0" fill="#779953"/>
   <text xml:space="preserve" text-anchor="start" font-family="'Roboto Mono'" font-size="16" stroke-width="0" id="svg_153" y="892" x="36.5" fill="#f6f6f6">1.</text>
   <rect rx="10" stroke="null" id="svg_154" height="30" width="518" y="1005" x="152" stroke-width="0" fill="#f6f6f6"/>
   <rect rx="10" stroke="null" id="svg_155" height="30" width="518" y="960" x="151" stroke-width="0" fill="#f6f6f6"/>
   <rect rx="10" stroke="null" id="svg_156" height="30" width="518" y="916" x="151" stroke-width="0" fill="#f6f6f6"/>
   <rect rx="10" stroke="null" id="svg_157" height="30" width="518" y="872" x="151" stroke-width="0" fill="#f6f6f6"/>
   <rect rx="10" stroke="null" id="svg_158" height="30" width="80" y="1005" x="62.5" stroke-width="0" fill="#f6f6f6"/>
   <rect rx="10" stroke="null" id="svg_159" height="30" width="80" y="960" x="61.5" stroke-width="0" fill="#f6f6f6"/>
   <rect rx="10" stroke="null" id="svg_160" height="30" width="80" y="916" x="61.5" stroke-width="0" fill="#f6f6f6"/>
   <rect rx="10" stroke="null" id="svg_161" height="30" width="80" y="872" x="61.5" stroke-width="0" fill="#f6f6f6"/>
  </g>
  <text xml:space="preserve" text-anchor="start" font-family="'Roboto Mono'" font-size="14" stroke-width="0" id="svg_163" y="980" x="157.5" fill="#323232">${r_32}</text>
  <text xml:space="preserve" text-anchor="start" font-family="'Roboto Mono'" font-size="14" stroke-width="0" id="svg_164" y="936" x="157.5" fill="#323232">${r_30}</text>
  <text xml:space="preserve" text-anchor="start" font-family="'Roboto Mono'" font-size="14" stroke-width="0" id="svg_165" y="892" x="157.5" fill="#323232">${r_28}</text>
  <text xml:space="preserve" text-anchor="start" font-family="'Roboto Mono'" font-size="14" stroke-width="0" id="svg_166" y="1025" x="157.5" fill="#323232">${r_34}</text>
  <text xml:space="preserve" text-anchor="start" font-family="'Roboto Mono'" font-size="14" stroke-width="0" id="svg_167" y="980" x="68" fill="#323232">${r_31}</text>
  <text xml:space="preserve" text-anchor="start" font-family="'Roboto Mono'" font-size="14" stroke-width="0" id="svg_168" y="936" x="68" fill="#323232">${r_29}</text>
  <text xml:space="preserve" text-anchor="start" font-family="'Roboto Mono'" font-size="14" stroke-width="0" id="svg_169" y="892" x="68" fill="#323232">${r_27}</text>
  <text xml:space="preserve" text-anchor="start" font-family="'Roboto Mono'" font-size="14" stroke-width="0" id="svg_170" y="1025" x="68" fill="#323232">${r_33}</text>
  <rect rx="10" id="svg_172" height="235" width="675" y="1056" x="10" fill="#f6f6f6" stroke="null"/>
  <text style="cursor: move;" font-style="normal" font-weight="normal" xml:space="preserve" text-anchor="start" font-family="'Roboto Mono'" font-size="24" stroke-width="0" id="svg_173" y="1096" x="297.08594" fill="#323232">${r_35}</text>
  <g id="svg_202">
   <rect rx="10" id="svg_174" height="40" width="655" y="1244" x="21" fill="#ffffff"/>
   <rect rx="10" stroke="null" id="svg_175" height="30" width="30" y="1249" x="29" stroke-width="0" fill="#779953"/>
   <text xml:space="preserve" text-anchor="start" font-family="'Roboto Mono'" font-size="16" stroke-width="0" id="svg_176" y="1269" x="37" fill="#f6f6f6">4.</text>
   <rect rx="10" id="svg_177" height="40" width="655" y="1199" x="20" fill="#ffffff"/>
   <rect rx="10" stroke="null" id="svg_178" height="30" width="30" y="1204" x="27.5" stroke-width="0" fill="#779953"/>
   <text xml:space="preserve" text-anchor="start" font-family="'Roboto Mono'" font-size="16" stroke-width="0" id="svg_179" y="1224" x="36.5" fill="#f6f6f6">3.</text>
   <rect rx="10" id="svg_180" height="40" width="655" y="1155" x="20" fill="#ffffff"/>
   <rect rx="10" stroke="null" id="svg_181" height="30" width="30" y="1160" x="27.5" stroke-width="0" fill="#779953"/>
   <text xml:space="preserve" text-anchor="start" font-family="'Roboto Mono'" font-size="16" stroke-width="0" id="svg_182" y="1180" x="36" fill="#f6f6f6">2.</text>
   <rect rx="10" id="svg_183" height="40" width="655" y="1111" x="20" fill="#ffffff"/>
   <rect rx="10" stroke="null" id="svg_184" height="30" width="30" y="1116" x="27.5" stroke-width="0" fill="#779953"/>
   <text xml:space="preserve" text-anchor="start" font-family="'Roboto Mono'" font-size="16" stroke-width="0" id="svg_185" y="1136" x="36.5" fill="#f6f6f6">1.</text>
   <rect rx="10" stroke="null" id="svg_186" height="30" width="518" y="1249" x="152" stroke-width="0" fill="#f6f6f6"/>
   <rect rx="10" stroke="null" id="svg_187" height="30" width="518" y="1204" x="151" stroke-width="0" fill="#f6f6f6"/>
   <rect rx="10" stroke="null" id="svg_188" height="30" width="518" y="1160" x="151" stroke-width="0" fill="#f6f6f6"/>
   <rect rx="10" stroke="null" id="svg_189" height="30" width="518" y="1116" x="151" stroke-width="0" fill="#f6f6f6"/>
   <rect rx="10" stroke="null" id="svg_190" height="30" width="80" y="1249" x="62.5" stroke-width="0" fill="#f6f6f6"/>
   <rect rx="10" stroke="null" id="svg_191" height="30" width="80" y="1204" x="61.5" stroke-width="0" fill="#f6f6f6"/>
   <rect rx="10" stroke="null" id="svg_192" height="30" width="80" y="1160" x="61.5" stroke-width="0" fill="#f6f6f6"/>
   <rect rx="10" stroke="null" id="svg_197" height="30" width="80" y="1116" x="61.5" stroke-width="0" fill="#f6f6f6"/>
  </g>
  <text xml:space="preserve" text-anchor="start" font-family="'Roboto Mono'" font-size="14" stroke-width="0" id="svg_207" y="1224" x="157.5" fill="#323232">${r_41}</text>
  <text xml:space="preserve" text-anchor="start" font-family="'Roboto Mono'" font-size="14" stroke-width="0" id="svg_212" y="1180" x="157.5" fill="#323232">${r_39}</text>
  <text xml:space="preserve" text-anchor="start" font-family="'Roboto Mono'" font-size="14" stroke-width="0" id="svg_213" y="1136" x="157.5" fill="#323232">${r_37}</text>
  <text xml:space="preserve" text-anchor="start" font-family="'Roboto Mono'" font-size="14" stroke-width="0" id="svg_214" y="1269" x="157.5" fill="#323232">${r_43}</text>
  <text xml:space="preserve" text-anchor="start" font-family="'Roboto Mono'" font-size="14" stroke-width="0" id="svg_215" y="1224" x="68" fill="#323232">${r_40}</text>
  <text xml:space="preserve" text-anchor="start" font-family="'Roboto Mono'" font-size="14" stroke-width="0" id="svg_216" y="1180" x="68" fill="#323232">${r_38}</text>
  <text xml:space="preserve" text-anchor="start" font-family="'Roboto Mono'" font-size="14" stroke-width="0" id="svg_217" y="1136" x="68" fill="#323232">${r_36}</text>
  <text xml:space="preserve" text-anchor="start" font-family="'Roboto Mono'" font-size="14" stroke-width="0" id="svg_221" y="1269" x="68" fill="#323232">${r_42}</text>
  <rect rx="10" id="svg_223" height="235" width="675" y="1300" x="10" fill="#f6f6f6" stroke="null"/>
  <text style="cursor: move;" font-style="normal" font-weight="normal" xml:space="preserve" text-anchor="start" font-family="'Roboto Mono'" font-size="24" stroke-width="0" id="svg_224" y="1340" x="297.08594" fill="#323232">${r_44}</text>
  <g id="svg_247">
   <rect rx="10" id="svg_225" height="40" width="655" y="1488" x="21" fill="#ffffff"/>
   <rect rx="10" stroke="null" id="svg_227" height="30" width="30" y="1493" x="29" stroke-width="0" fill="#779953"/>
   <text xml:space="preserve" text-anchor="start" font-family="'Roboto Mono'" font-size="16" stroke-width="0" id="svg_229" y="1513" x="37" fill="#f6f6f6">4.</text>
   <rect rx="10" id="svg_230" height="40" width="655" y="1443" x="20" fill="#ffffff"/>
   <rect rx="10" stroke="null" id="svg_231" height="30" width="30" y="1448" x="27.5" stroke-width="0" fill="#779953"/>
   <text xml:space="preserve" text-anchor="start" font-family="'Roboto Mono'" font-size="16" stroke-width="0" id="svg_232" y="1468" x="36.5" fill="#f6f6f6">3.</text>
   <rect rx="10" id="svg_233" height="40" width="655" y="1399" x="20" fill="#ffffff"/>
   <rect rx="10" stroke="null" id="svg_234" height="30" width="30" y="1404" x="27.5" stroke-width="0" fill="#779953"/>
   <text xml:space="preserve" text-anchor="start" font-family="'Roboto Mono'" font-size="16" stroke-width="0" id="svg_235" y="1424" x="36" fill="#f6f6f6">2.</text>
   <rect rx="10" id="svg_236" height="40" width="655" y="1355" x="20" fill="#ffffff"/>
   <rect rx="10" stroke="null" id="svg_237" height="30" width="30" y="1360" x="27.5" stroke-width="0" fill="#779953"/>
   <text xml:space="preserve" text-anchor="start" font-family="'Roboto Mono'" font-size="16" stroke-width="0" id="svg_238" y="1380" x="36.5" fill="#f6f6f6">1.</text>
   <rect rx="10" stroke="null" id="svg_239" height="30" width="518" y="1493" x="152" stroke-width="0" fill="#f6f6f6"/>
   <rect rx="10" stroke="null" id="svg_240" height="30" width="518" y="1448" x="151" stroke-width="0" fill="#f6f6f6"/>
   <rect rx="10" stroke="null" id="svg_241" height="30" width="518" y="1404" x="151" stroke-width="0" fill="#f6f6f6"/>
   <rect rx="10" stroke="null" id="svg_242" height="30" width="518" y="1360" x="151" stroke-width="0" fill="#f6f6f6"/>
   <rect rx="10" stroke="null" id="svg_243" height="30" width="80" y="1493" x="62.5" stroke-width="0" fill="#f6f6f6"/>
   <rect rx="10" stroke="null" id="svg_244" height="30" width="80" y="1448" x="61.5" stroke-width="0" fill="#f6f6f6"/>
   <rect rx="10" stroke="null" id="svg_245" height="30" width="80" y="1404" x="61.5" stroke-width="0" fill="#f6f6f6"/>
   <rect rx="10" stroke="null" id="svg_246" height="30" width="80" y="1360" x="61.5" stroke-width="0" fill="#f6f6f6"/>
  </g>
  <text xml:space="preserve" text-anchor="start" font-family="'Roboto Mono'" font-size="14" stroke-width="0" id="svg_248" y="1468" x="157.5" fill="#323232">${r_50}</text>
  <text xml:space="preserve" text-anchor="start" font-family="'Roboto Mono'" font-size="14" stroke-width="0" id="svg_249" y="1424" x="157.5" fill="#323232">${r_48}</text>
  <text xml:space="preserve" text-anchor="start" font-family="'Roboto Mono'" font-size="14" stroke-width="0" id="svg_250" y="1380" x="157.5" fill="#323232">${r_46}</text>
  <text xml:space="preserve" text-anchor="start" font-family="'Roboto Mono'" font-size="14" stroke-width="0" id="svg_251" y="1513" x="157.5" fill="#323232">${r_52}</text>
  <text xml:space="preserve" text-anchor="start" font-family="'Roboto Mono'" font-size="14" stroke-width="0" id="svg_252" y="1468" x="68" fill="#323232">${r_49}</text>
  <text xml:space="preserve" text-anchor="start" font-family="'Roboto Mono'" font-size="14" stroke-width="0" id="svg_253" y="1424" x="68" fill="#323232">${r_47}</text>
  <text xml:space="preserve" text-anchor="start" font-family="'Roboto Mono'" font-size="14" stroke-width="0" id="svg_254" y="1380" x="68" fill="#323232">${r_45}</text>
  <text xml:space="preserve" text-anchor="start" font-family="'Roboto Mono'" font-size="14" stroke-width="0" id="svg_255" y="1513" x="68" fill="#323232">${r_51}</text>
  <rect rx="10" id="svg_193" height="40" width="655" y="1777" x="20" fill="#ffffff"/>
  <rect rx="10" stroke="null" id="svg_194" height="30" width="30" y="1782" x="28" stroke-width="0" fill="#779953"/>
  <text xml:space="preserve" text-anchor="start" font-family="'Roboto Mono'" font-size="16" stroke-width="0" id="svg_196" y="1802" x="36" fill="#f6f6f6">П.</text>
  <rect rx="10" stroke="null" id="svg_96" height="30" width="120" y="1782" x="61.5" stroke-width="0" fill="#f6f6f6"/>
  <text xml:space="preserve" text-anchor="start" font-family="'Roboto Mono'" font-size="14" stroke-width="0" id="svg_103" y="1802" x="67" fill="#323232">${r_62}</text>
  <rect rx="10" id="svg_258" height="40" width="655" y="1732" x="21" fill="#ffffff"/>
  <rect rx="10" stroke="null" id="svg_259" height="30" width="30" y="1737" x="29" stroke-width="0" fill="#779953"/>
  <text xml:space="preserve" text-anchor="start" font-family="'Roboto Mono'" font-size="16" stroke-width="0" id="svg_260" y="1757" x="37" fill="#f6f6f6">Д.</text>
  <rect rx="10" stroke="null" id="svg_261" height="30" width="480" y="1737" x="190" stroke-width="0" fill="#f6f6f6"/>
  <rect rx="10" stroke="null" id="svg_262" height="30" width="120" y="1737" x="62.5" stroke-width="0" fill="#f6f6f6"/>
  <text xml:space="preserve" text-anchor="start" font-family="'Roboto Mono'" font-size="14" stroke-width="0" id="svg_263" y="1757" x="195" fill="#323232">${r_61}</text>
  <text xml:space="preserve" text-anchor="start" font-family="'Roboto Mono'" font-size="14" stroke-width="0" id="svg_264" y="1757" x="68" fill="#323232">${r_60}</text>
  <rect rx="10" stroke="null" id="svg_8" height="30" width="30" y="1782" x="190" stroke-width="0" fill="#779953"/>
  <rect rx="10" stroke="null" id="svg_9" height="30" width="120" y="1782" x="223.5" stroke-width="0" fill="#f6f6f6"/>
  <text xml:space="preserve" text-anchor="start" font-family="'Roboto Mono'" font-size="16" stroke-width="0" id="svg_10" y="1802" x="198" fill="#f6f6f6">М.</text>
  <text xml:space="preserve" text-anchor="start" font-family="'Roboto Mono'" font-size="14" stroke-width="0" id="svg_86" y="1802" x="228" fill="#323232">${r_63}</text>
  <rect rx="10" stroke="null" id="svg_267" height="30" width="30" y="516" x="190" stroke-width="0" fill="#a14a2e"/>
  <rect rx="10" stroke="null" id="svg_268" height="30" width="120" y="516" x="223.5" stroke-width="0" fill="#f6f6f6"/>
  <text xml:space="preserve" text-anchor="start" font-family="'Roboto Mono'" font-size="16" stroke-width="0" id="svg_269" y="536" x="198" fill="#f6f6f6">М.</text>
  <text xml:space="preserve" text-anchor="start" font-family="'Roboto Mono'" font-size="14" stroke-width="0" id="svg_270" y="536" x="228" fill="#323232">${r_16}</text>
  <rect rx="10" stroke="null" id="svg_272" height="30" width="30" y="1604" x="190" stroke-width="0" fill="#779953"/>
  <rect rx="10" stroke="null" id="svg_273" height="30" width="120" y="1604" x="223.5" stroke-width="0" fill="#f6f6f6"/>
  <text xml:space="preserve" text-anchor="start" font-family="'Roboto Mono'" font-size="16" stroke-width="0" id="svg_274" y="1624" x="198" fill="#f6f6f6">П.</text>
  <text xml:space="preserve" text-anchor="start" font-family="'Roboto Mono'" font-size="14" stroke-width="0" id="svg_275" y="1624" x="228" fill="#323232">${r_55}</text>
  <rect rx="10" stroke="null" id="svg_277" height="30" width="30" y="1692" x="190" stroke-width="0" fill="#779953"/>
  <rect rx="10" stroke="null" id="svg_278" height="30" width="120" y="1692" x="223.5" stroke-width="0" fill="#f6f6f6"/>
  <text xml:space="preserve" text-anchor="start" font-family="'Roboto Mono'" font-size="16" stroke-width="0" id="svg_279" y="1712" x="198" fill="#f6f6f6">Ч.</text>
  <text xml:space="preserve" text-anchor="start" font-family="'Roboto Mono'" font-size="14" stroke-width="0" id="svg_280" y="1712" x="228" fill="#323232">${r_59}</text>
 </g>

</svg>