<?xml version="1.0" encoding="utf-8"?>
<svg version="1.1" xmlns="http://www.w3.org/2000/svg" xmlns:xlink="http://www.w3.org/1999/xlink" x="0px" y="0px"
	 viewBox="0 0 5390 1000" style="enable-background:new 0 0 5390 1000;background: #2f2f2f;" xml:space="preserve">
<style type="text/css">
	.st0{fill:#F54D40;}
	.st1{fill:none;stroke:#F54D40;stroke-width:40;stroke-miterlimit:10;}
</style>
<g>
	<path class="st0" d="M232.3,182.2h378c63,0,108.7,14.3,137.3,42.8c28.5,28.5,42.8,74.3,42.8,137.3v81c0,49.8-8.3,88.5-24.8,116.1
		c-16.5,27.6-42.8,45.9-78.8,54.9l112.5,198H623.8l-103.5-189h-126v189h-162V182.2z M628.3,362.2c0-36-18-54-54-54h-180v189h180
		c36,0,54-18,54-54V362.2z"/>
	<path class="st0" d="M1447.3,641.2c0,63-14.3,108.8-42.8,137.3c-28.5,28.5-74.3,42.8-137.3,42.8h-225c-63,0-108.8-14.2-137.3-42.8
		c-28.5-28.5-42.8-74.3-42.8-137.3v-288c0-63,14.2-108.7,42.8-137.3c28.5-28.5,74.3-42.8,137.3-42.8h225c63,0,108.7,14.3,137.3,42.8
		c28.5,28.5,42.8,74.3,42.8,137.3V641.2z M1285.3,353.2c0-36-18-54-54-54h-153c-36,0-54,18-54,54v288c0,36,18,54,54,54h153
		c36,0,54-18,54-54V353.2z"/>
	<path class="st0" d="M2014.3,308.2l-315,378h315v126h-513v-126l315-378h-315v-126h513V308.2z"/>
	<path class="st0" d="M2585.8,812.2h-499.5v-630h499.5v126h-337.5v121.5h265.5v126h-265.5v130.5h337.5V812.2z"/>
	<path class="st0" d="M3206.8,812.2h-171l-216-378v378h-162v-630h171l216,378v-378h162V812.2z"/>
	<path class="st0" d="M3314.7,182.2h378c63,0,108.7,14.3,137.3,42.8c28.5,28.5,42.8,74.3,42.8,137.3v81c0,49.8-8.3,88.5-24.8,116.1
		c-16.5,27.6-42.8,45.9-78.8,54.9l112.5,198h-175.5l-103.5-189h-126v189h-162V182.2z M3710.7,362.2c0-36-18-54-54-54h-180v189h180
		c36,0,54-18,54-54V362.2z"/>
	<path class="st0" d="M4529.7,641.2c0,63-14.3,108.8-42.8,137.3c-28.5,28.5-74.3,42.8-137.3,42.8h-225c-63,0-108.8-14.2-137.3-42.8
		c-28.5-28.5-42.8-74.3-42.8-137.3v-288c0-63,14.2-108.7,42.8-137.3c28.5-28.5,74.3-42.8,137.3-42.8h225c63,0,108.7,14.3,137.3,42.8
		c28.5,28.5,42.8,74.3,42.8,137.3V641.2z M4367.7,353.2c0-36-18-54-54-54h-153c-36,0-54,18-54,54v288c0,36,18,54,54,54h153
		c36,0,54-18,54-54V353.2z"/>
	<path class="st0" d="M4970.7,182.2c67.8,0,119.3,17.5,154.3,52.6s52.7,86.6,52.7,154.4v216c0,67.8-17.6,119.3-52.7,154.4
		c-35.1,35.1-86.6,52.6-154.3,52.6h-351v-630H4970.7z M5015.7,389.2c0-54-27-81-81-81h-153v378h153c54,0,81-27,81-81V389.2z"/>
</g>
<rect x="20" y="20" class="st1" width="5350" height="960"/>
</svg>
